<?xml version="1.0" encoding="UTF-8" ?>
<!DOCTYPE xmeml>
<xmeml version="5">
	<sequence>
		<name>ep6c1</name>
		<duration>13715</duration>
		<rate>
			<timebase>60.0</timebase>
			<ntsc>FALSE</ntsc>
		</rate>
		<in>-1</in>
		<out>-1</out>
		<timecode>
			<string>01:00:00:00</string>
			<frame>216000</frame>
			<displayformat>NDF</displayformat>
			<rate>
				<timebase>60.0</timebase>
				<ntsc>FALSE</ntsc>
			</rate>
		</timecode>
		<media>
			<video>
				<track>
					<clipitem id="ep6c1-0">
						<name>ep6c1cut</name>
						<file id="ep6c1">
							<duration>631.1680272108844</duration>
							<duration>631.1680272108844</duration>
							<rate>
								<timebase>60.0</timebase>
								<ntsc>FALSE</ntsc>
							</rate>
							<out>ep6c1</out>
							<pathurl>file://localhost/F:\Videos\skyblock but\EP 6/ep6c1.mkv</pathurl>
							<timecode>
								<string>00:00:00:00</string>
								<displayformat>NDF</displayformat>
								<rate>
									<timebase>60.0</timebase>
									<ntsc>FALSE</ntsc>
								</rate>
							</timecode>
							<media>
								<video>
									<duration>631.1680272108844</duration>
									<samplecharacteristics>
										<width>1280</width>
										<height>720</height>
									</samplecharacteristics>
								</video>
								<audio>
									<channelcount>1</channelcount>
								</audio>
							</media>
						</file>
						<rate>
							<timebase>60.0</timebase>
							<ntsc>FALSE</ntsc>
						</rate>
						<start>0</start>
						<stop>395</stop>
						<enabled>TRUE</enabled>
						<in>252</in>
						<out>647</out>
						<compositemode>normal</compositemode>
						<filter>
							<enabled>TRUE</enabled>
							<start>0</start>
							<end>631.1680272108844</end>
							<effect>
								<name>Basic Motion</name>
								<effectid>basic</effectid>
								<effecttype>motion</effecttype>
								<mediatype>video</mediatype>
								<effectcategory>motion</effectcategory>
								<parameter>
									<name>Scale</name>
									<parameterid>scale</parameterid>
									<value>100</value>
									<valuemin>0</valuemin>
									<valuemax>10000</valuemax>
								</parameter>
								<parameter>
									<name>Center</name>
									<parameterid>center</parameterid>
									<value>
										<horiz>0</horiz>
										<vert>0</vert>
									</value>
								</parameter>
								<parameter>
									<name>Rotation</name>
									<parameterid>rotation</parameterid>
									<value>0</value>
									<valuemin>-100000</valuemin>
									<valuemax>100000</valuemax>
								</parameter>
								<parameter>
									<name>Anchor Point</name>
									<parameterid>centerOffset</parameterid>
									<value>
										<horiz>0</horiz>
										<vert>0</vert>
									</value>
								</parameter>
							</effect>
						</filter>
						<filter>
							<enabled>TRUE</enabled>
							<start>0</start>
							<end>631.1680272108844</end>
							<effect>
								<name>Crop</name>
								<effectid>crop</effectid>
								<effecttype>motion</effecttype>
								<mediatype>video</mediatype>
								<effectcategory>motion</effectcategory>
								<parameter>
									<name>left</name>
									<parameterid>left</parameterid>
									<value>0</value>
									<valuemin>0</valuemin>
									<valuemax>100</valuemax>
								</parameter>
								<parameter>
									<name>right</name>
									<parameterid>right</parameterid>
									<value>0</value>
									<valuemin>0</valuemin>
									<valuemax>100</valuemax>
								</parameter>
								<parameter>
									<name>top</name>
									<parameterid>top</parameterid>
									<value>0</value>
									<valuemin>0</valuemin>
									<valuemax>100</valuemax>
								</parameter>
								<parameter>
									<name>bottom</name>
									<parameterid>bottom</parameterid>
									<value>0</value>
									<valuemin>0</valuemin>
									<valuemax>100</valuemax>
								</parameter>
							</effect>
						</filter>
						<filter>
							<enabled>TRUE</enabled>
							<start>0</start>
							<end>631.1680272108844</end>
							<effect>
								<name>Opacity</name>
								<effectid>opacity</effectid>
								<effecttype>motion</effecttype>
								<mediatype>video</mediatype>
								<effectcategory>motion</effectcategory>
								<parameter>
									<name>opacity</name>
									<parameterid>opacity</parameterid>
									<value>100</value>
									<valuemin>0</valuemin>
									<valuemax>100</valuemax>
								</parameter>
							</effect>
						</filter>
						<link>
							<linkclipref>ep6c1</linkclipref>
						</link>
						<link>
							<linkclipref>ep6c1-0a</linkclipref>
						</link>
					</clipitem>
					<clipitem id="ep6c1-1">
						<name>ep6c1cut</name>
						<file id="ep6c1">
							<duration>631.1680272108844</duration>
						</file>
						<rate>
							<timebase>60.0</timebase>
							<ntsc>FALSE</ntsc>
						</rate>
						<start>395</start>
						<stop>867</stop>
						<enabled>TRUE</enabled>
						<in>660</in>
						<out>1133</out>
						<compositemode>normal</compositemode>
						<filter>
							<enabled>TRUE</enabled>
							<start>0</start>
							<end>631.1680272108844</end>
							<effect>
								<name>Basic Motion</name>
								<effectid>basic</effectid>
								<effecttype>motion</effecttype>
								<mediatype>video</mediatype>
								<effectcategory>motion</effectcategory>
								<parameter>
									<name>Scale</name>
									<parameterid>scale</parameterid>
									<value>100</value>
									<valuemin>0</valuemin>
									<valuemax>10000</valuemax>
								</parameter>
								<parameter>
									<name>Center</name>
									<parameterid>center</parameterid>
									<value>
										<horiz>0</horiz>
										<vert>0</vert>
									</value>
								</parameter>
								<parameter>
									<name>Rotation</name>
									<parameterid>rotation</parameterid>
									<value>0</value>
									<valuemin>-100000</valuemin>
									<valuemax>100000</valuemax>
								</parameter>
								<parameter>
									<name>Anchor Point</name>
									<parameterid>centerOffset</parameterid>
									<value>
										<horiz>0</horiz>
										<vert>0</vert>
									</value>
								</parameter>
							</effect>
						</filter>
						<filter>
							<enabled>TRUE</enabled>
							<start>0</start>
							<end>631.1680272108844</end>
							<effect>
								<name>Crop</name>
								<effectid>crop</effectid>
								<effecttype>motion</effecttype>
								<mediatype>video</mediatype>
								<effectcategory>motion</effectcategory>
								<parameter>
									<name>left</name>
									<parameterid>left</parameterid>
									<value>0</value>
									<valuemin>0</valuemin>
									<valuemax>100</valuemax>
								</parameter>
								<parameter>
									<name>right</name>
									<parameterid>right</parameterid>
									<value>0</value>
									<valuemin>0</valuemin>
									<valuemax>100</valuemax>
								</parameter>
								<parameter>
									<name>top</name>
									<parameterid>top</parameterid>
									<value>0</value>
									<valuemin>0</valuemin>
									<valuemax>100</valuemax>
								</parameter>
								<parameter>
									<name>bottom</name>
									<parameterid>bottom</parameterid>
									<value>0</value>
									<valuemin>0</valuemin>
									<valuemax>100</valuemax>
								</parameter>
							</effect>
						</filter>
						<filter>
							<enabled>TRUE</enabled>
							<start>0</start>
							<end>631.1680272108844</end>
							<effect>
								<name>Opacity</name>
								<effectid>opacity</effectid>
								<effecttype>motion</effecttype>
								<mediatype>video</mediatype>
								<effectcategory>motion</effectcategory>
								<parameter>
									<name>opacity</name>
									<parameterid>opacity</parameterid>
									<value>100</value>
									<valuemin>0</valuemin>
									<valuemax>100</valuemax>
								</parameter>
							</effect>
						</filter>
						<link>
							<linkclipref>ep6c1</linkclipref>
						</link>
						<link>
							<linkclipref>ep6c1-1a</linkclipref>
						</link>
					</clipitem>
					<clipitem id="ep6c1-2">
						<name>ep6c1cut</name>
						<file id="ep6c1">
							<duration>631.1680272108844</duration>
						</file>
						<rate>
							<timebase>60.0</timebase>
							<ntsc>FALSE</ntsc>
						</rate>
						<start>867</start>
						<stop>1064</stop>
						<enabled>TRUE</enabled>
						<in>1168</in>
						<out>1365</out>
						<compositemode>normal</compositemode>
						<filter>
							<enabled>TRUE</enabled>
							<start>0</start>
							<end>631.1680272108844</end>
							<effect>
								<name>Basic Motion</name>
								<effectid>basic</effectid>
								<effecttype>motion</effecttype>
								<mediatype>video</mediatype>
								<effectcategory>motion</effectcategory>
								<parameter>
									<name>Scale</name>
									<parameterid>scale</parameterid>
									<value>100</value>
									<valuemin>0</valuemin>
									<valuemax>10000</valuemax>
								</parameter>
								<parameter>
									<name>Center</name>
									<parameterid>center</parameterid>
									<value>
										<horiz>0</horiz>
										<vert>0</vert>
									</value>
								</parameter>
								<parameter>
									<name>Rotation</name>
									<parameterid>rotation</parameterid>
									<value>0</value>
									<valuemin>-100000</valuemin>
									<valuemax>100000</valuemax>
								</parameter>
								<parameter>
									<name>Anchor Point</name>
									<parameterid>centerOffset</parameterid>
									<value>
										<horiz>0</horiz>
										<vert>0</vert>
									</value>
								</parameter>
							</effect>
						</filter>
						<filter>
							<enabled>TRUE</enabled>
							<start>0</start>
							<end>631.1680272108844</end>
							<effect>
								<name>Crop</name>
								<effectid>crop</effectid>
								<effecttype>motion</effecttype>
								<mediatype>video</mediatype>
								<effectcategory>motion</effectcategory>
								<parameter>
									<name>left</name>
									<parameterid>left</parameterid>
									<value>0</value>
									<valuemin>0</valuemin>
									<valuemax>100</valuemax>
								</parameter>
								<parameter>
									<name>right</name>
									<parameterid>right</parameterid>
									<value>0</value>
									<valuemin>0</valuemin>
									<valuemax>100</valuemax>
								</parameter>
								<parameter>
									<name>top</name>
									<parameterid>top</parameterid>
									<value>0</value>
									<valuemin>0</valuemin>
									<valuemax>100</valuemax>
								</parameter>
								<parameter>
									<name>bottom</name>
									<parameterid>bottom</parameterid>
									<value>0</value>
									<valuemin>0</valuemin>
									<valuemax>100</valuemax>
								</parameter>
							</effect>
						</filter>
						<filter>
							<enabled>TRUE</enabled>
							<start>0</start>
							<end>631.1680272108844</end>
							<effect>
								<name>Opacity</name>
								<effectid>opacity</effectid>
								<effecttype>motion</effecttype>
								<mediatype>video</mediatype>
								<effectcategory>motion</effectcategory>
								<parameter>
									<name>opacity</name>
									<parameterid>opacity</parameterid>
									<value>100</value>
									<valuemin>0</valuemin>
									<valuemax>100</valuemax>
								</parameter>
							</effect>
						</filter>
						<link>
							<linkclipref>ep6c1</linkclipref>
						</link>
						<link>
							<linkclipref>ep6c1-2a</linkclipref>
						</link>
					</clipitem>
					<clipitem id="ep6c1-3">
						<name>ep6c1cut</name>
						<file id="ep6c1">
							<duration>631.1680272108844</duration>
						</file>
						<rate>
							<timebase>60.0</timebase>
							<ntsc>FALSE</ntsc>
						</rate>
						<start>1064</start>
						<stop>1151</stop>
						<enabled>TRUE</enabled>
						<in>1374</in>
						<out>1461</out>
						<compositemode>normal</compositemode>
						<filter>
							<enabled>TRUE</enabled>
							<start>0</start>
							<end>631.1680272108844</end>
							<effect>
								<name>Basic Motion</name>
								<effectid>basic</effectid>
								<effecttype>motion</effecttype>
								<mediatype>video</mediatype>
								<effectcategory>motion</effectcategory>
								<parameter>
									<name>Scale</name>
									<parameterid>scale</parameterid>
									<value>100</value>
									<valuemin>0</valuemin>
									<valuemax>10000</valuemax>
								</parameter>
								<parameter>
									<name>Center</name>
									<parameterid>center</parameterid>
									<value>
										<horiz>0</horiz>
										<vert>0</vert>
									</value>
								</parameter>
								<parameter>
									<name>Rotation</name>
									<parameterid>rotation</parameterid>
									<value>0</value>
									<valuemin>-100000</valuemin>
									<valuemax>100000</valuemax>
								</parameter>
								<parameter>
									<name>Anchor Point</name>
									<parameterid>centerOffset</parameterid>
									<value>
										<horiz>0</horiz>
										<vert>0</vert>
									</value>
								</parameter>
							</effect>
						</filter>
						<filter>
							<enabled>TRUE</enabled>
							<start>0</start>
							<end>631.1680272108844</end>
							<effect>
								<name>Crop</name>
								<effectid>crop</effectid>
								<effecttype>motion</effecttype>
								<mediatype>video</mediatype>
								<effectcategory>motion</effectcategory>
								<parameter>
									<name>left</name>
									<parameterid>left</parameterid>
									<value>0</value>
									<valuemin>0</valuemin>
									<valuemax>100</valuemax>
								</parameter>
								<parameter>
									<name>right</name>
									<parameterid>right</parameterid>
									<value>0</value>
									<valuemin>0</valuemin>
									<valuemax>100</valuemax>
								</parameter>
								<parameter>
									<name>top</name>
									<parameterid>top</parameterid>
									<value>0</value>
									<valuemin>0</valuemin>
									<valuemax>100</valuemax>
								</parameter>
								<parameter>
									<name>bottom</name>
									<parameterid>bottom</parameterid>
									<value>0</value>
									<valuemin>0</valuemin>
									<valuemax>100</valuemax>
								</parameter>
							</effect>
						</filter>
						<filter>
							<enabled>TRUE</enabled>
							<start>0</start>
							<end>631.1680272108844</end>
							<effect>
								<name>Opacity</name>
								<effectid>opacity</effectid>
								<effecttype>motion</effecttype>
								<mediatype>video</mediatype>
								<effectcategory>motion</effectcategory>
								<parameter>
									<name>opacity</name>
									<parameterid>opacity</parameterid>
									<value>100</value>
									<valuemin>0</valuemin>
									<valuemax>100</valuemax>
								</parameter>
							</effect>
						</filter>
						<link>
							<linkclipref>ep6c1</linkclipref>
						</link>
						<link>
							<linkclipref>ep6c1-3a</linkclipref>
						</link>
					</clipitem>
					<clipitem id="ep6c1-4">
						<name>ep6c1cut</name>
						<file id="ep6c1">
							<duration>631.1680272108844</duration>
						</file>
						<rate>
							<timebase>60.0</timebase>
							<ntsc>FALSE</ntsc>
						</rate>
						<start>1151</start>
						<stop>1398</stop>
						<enabled>TRUE</enabled>
						<in>1511</in>
						<out>1758</out>
						<compositemode>normal</compositemode>
						<filter>
							<enabled>TRUE</enabled>
							<start>0</start>
							<end>631.1680272108844</end>
							<effect>
								<name>Basic Motion</name>
								<effectid>basic</effectid>
								<effecttype>motion</effecttype>
								<mediatype>video</mediatype>
								<effectcategory>motion</effectcategory>
								<parameter>
									<name>Scale</name>
									<parameterid>scale</parameterid>
									<value>100</value>
									<valuemin>0</valuemin>
									<valuemax>10000</valuemax>
								</parameter>
								<parameter>
									<name>Center</name>
									<parameterid>center</parameterid>
									<value>
										<horiz>0</horiz>
										<vert>0</vert>
									</value>
								</parameter>
								<parameter>
									<name>Rotation</name>
									<parameterid>rotation</parameterid>
									<value>0</value>
									<valuemin>-100000</valuemin>
									<valuemax>100000</valuemax>
								</parameter>
								<parameter>
									<name>Anchor Point</name>
									<parameterid>centerOffset</parameterid>
									<value>
										<horiz>0</horiz>
										<vert>0</vert>
									</value>
								</parameter>
							</effect>
						</filter>
						<filter>
							<enabled>TRUE</enabled>
							<start>0</start>
							<end>631.1680272108844</end>
							<effect>
								<name>Crop</name>
								<effectid>crop</effectid>
								<effecttype>motion</effecttype>
								<mediatype>video</mediatype>
								<effectcategory>motion</effectcategory>
								<parameter>
									<name>left</name>
									<parameterid>left</parameterid>
									<value>0</value>
									<valuemin>0</valuemin>
									<valuemax>100</valuemax>
								</parameter>
								<parameter>
									<name>right</name>
									<parameterid>right</parameterid>
									<value>0</value>
									<valuemin>0</valuemin>
									<valuemax>100</valuemax>
								</parameter>
								<parameter>
									<name>top</name>
									<parameterid>top</parameterid>
									<value>0</value>
									<valuemin>0</valuemin>
									<valuemax>100</valuemax>
								</parameter>
								<parameter>
									<name>bottom</name>
									<parameterid>bottom</parameterid>
									<value>0</value>
									<valuemin>0</valuemin>
									<valuemax>100</valuemax>
								</parameter>
							</effect>
						</filter>
						<filter>
							<enabled>TRUE</enabled>
							<start>0</start>
							<end>631.1680272108844</end>
							<effect>
								<name>Opacity</name>
								<effectid>opacity</effectid>
								<effecttype>motion</effecttype>
								<mediatype>video</mediatype>
								<effectcategory>motion</effectcategory>
								<parameter>
									<name>opacity</name>
									<parameterid>opacity</parameterid>
									<value>100</value>
									<valuemin>0</valuemin>
									<valuemax>100</valuemax>
								</parameter>
							</effect>
						</filter>
						<link>
							<linkclipref>ep6c1</linkclipref>
						</link>
						<link>
							<linkclipref>ep6c1-4a</linkclipref>
						</link>
					</clipitem>
					<clipitem id="ep6c1-5">
						<name>ep6c1cut</name>
						<file id="ep6c1">
							<duration>631.1680272108844</duration>
						</file>
						<rate>
							<timebase>60.0</timebase>
							<ntsc>FALSE</ntsc>
						</rate>
						<start>1398</start>
						<stop>1817</stop>
						<enabled>TRUE</enabled>
						<in>1821</in>
						<out>2240</out>
						<compositemode>normal</compositemode>
						<filter>
							<enabled>TRUE</enabled>
							<start>0</start>
							<end>631.1680272108844</end>
							<effect>
								<name>Basic Motion</name>
								<effectid>basic</effectid>
								<effecttype>motion</effecttype>
								<mediatype>video</mediatype>
								<effectcategory>motion</effectcategory>
								<parameter>
									<name>Scale</name>
									<parameterid>scale</parameterid>
									<value>100</value>
									<valuemin>0</valuemin>
									<valuemax>10000</valuemax>
								</parameter>
								<parameter>
									<name>Center</name>
									<parameterid>center</parameterid>
									<value>
										<horiz>0</horiz>
										<vert>0</vert>
									</value>
								</parameter>
								<parameter>
									<name>Rotation</name>
									<parameterid>rotation</parameterid>
									<value>0</value>
									<valuemin>-100000</valuemin>
									<valuemax>100000</valuemax>
								</parameter>
								<parameter>
									<name>Anchor Point</name>
									<parameterid>centerOffset</parameterid>
									<value>
										<horiz>0</horiz>
										<vert>0</vert>
									</value>
								</parameter>
							</effect>
						</filter>
						<filter>
							<enabled>TRUE</enabled>
							<start>0</start>
							<end>631.1680272108844</end>
							<effect>
								<name>Crop</name>
								<effectid>crop</effectid>
								<effecttype>motion</effecttype>
								<mediatype>video</mediatype>
								<effectcategory>motion</effectcategory>
								<parameter>
									<name>left</name>
									<parameterid>left</parameterid>
									<value>0</value>
									<valuemin>0</valuemin>
									<valuemax>100</valuemax>
								</parameter>
								<parameter>
									<name>right</name>
									<parameterid>right</parameterid>
									<value>0</value>
									<valuemin>0</valuemin>
									<valuemax>100</valuemax>
								</parameter>
								<parameter>
									<name>top</name>
									<parameterid>top</parameterid>
									<value>0</value>
									<valuemin>0</valuemin>
									<valuemax>100</valuemax>
								</parameter>
								<parameter>
									<name>bottom</name>
									<parameterid>bottom</parameterid>
									<value>0</value>
									<valuemin>0</valuemin>
									<valuemax>100</valuemax>
								</parameter>
							</effect>
						</filter>
						<filter>
							<enabled>TRUE</enabled>
							<start>0</start>
							<end>631.1680272108844</end>
							<effect>
								<name>Opacity</name>
								<effectid>opacity</effectid>
								<effecttype>motion</effecttype>
								<mediatype>video</mediatype>
								<effectcategory>motion</effectcategory>
								<parameter>
									<name>opacity</name>
									<parameterid>opacity</parameterid>
									<value>100</value>
									<valuemin>0</valuemin>
									<valuemax>100</valuemax>
								</parameter>
							</effect>
						</filter>
						<link>
							<linkclipref>ep6c1</linkclipref>
						</link>
						<link>
							<linkclipref>ep6c1-5a</linkclipref>
						</link>
					</clipitem>
					<clipitem id="ep6c1-6">
						<name>ep6c1cut</name>
						<file id="ep6c1">
							<duration>631.1680272108844</duration>
						</file>
						<rate>
							<timebase>60.0</timebase>
							<ntsc>FALSE</ntsc>
						</rate>
						<start>1817</start>
						<stop>2069</stop>
						<enabled>TRUE</enabled>
						<in>2312</in>
						<out>2564</out>
						<compositemode>normal</compositemode>
						<filter>
							<enabled>TRUE</enabled>
							<start>0</start>
							<end>631.1680272108844</end>
							<effect>
								<name>Basic Motion</name>
								<effectid>basic</effectid>
								<effecttype>motion</effecttype>
								<mediatype>video</mediatype>
								<effectcategory>motion</effectcategory>
								<parameter>
									<name>Scale</name>
									<parameterid>scale</parameterid>
									<value>100</value>
									<valuemin>0</valuemin>
									<valuemax>10000</valuemax>
								</parameter>
								<parameter>
									<name>Center</name>
									<parameterid>center</parameterid>
									<value>
										<horiz>0</horiz>
										<vert>0</vert>
									</value>
								</parameter>
								<parameter>
									<name>Rotation</name>
									<parameterid>rotation</parameterid>
									<value>0</value>
									<valuemin>-100000</valuemin>
									<valuemax>100000</valuemax>
								</parameter>
								<parameter>
									<name>Anchor Point</name>
									<parameterid>centerOffset</parameterid>
									<value>
										<horiz>0</horiz>
										<vert>0</vert>
									</value>
								</parameter>
							</effect>
						</filter>
						<filter>
							<enabled>TRUE</enabled>
							<start>0</start>
							<end>631.1680272108844</end>
							<effect>
								<name>Crop</name>
								<effectid>crop</effectid>
								<effecttype>motion</effecttype>
								<mediatype>video</mediatype>
								<effectcategory>motion</effectcategory>
								<parameter>
									<name>left</name>
									<parameterid>left</parameterid>
									<value>0</value>
									<valuemin>0</valuemin>
									<valuemax>100</valuemax>
								</parameter>
								<parameter>
									<name>right</name>
									<parameterid>right</parameterid>
									<value>0</value>
									<valuemin>0</valuemin>
									<valuemax>100</valuemax>
								</parameter>
								<parameter>
									<name>top</name>
									<parameterid>top</parameterid>
									<value>0</value>
									<valuemin>0</valuemin>
									<valuemax>100</valuemax>
								</parameter>
								<parameter>
									<name>bottom</name>
									<parameterid>bottom</parameterid>
									<value>0</value>
									<valuemin>0</valuemin>
									<valuemax>100</valuemax>
								</parameter>
							</effect>
						</filter>
						<filter>
							<enabled>TRUE</enabled>
							<start>0</start>
							<end>631.1680272108844</end>
							<effect>
								<name>Opacity</name>
								<effectid>opacity</effectid>
								<effecttype>motion</effecttype>
								<mediatype>video</mediatype>
								<effectcategory>motion</effectcategory>
								<parameter>
									<name>opacity</name>
									<parameterid>opacity</parameterid>
									<value>100</value>
									<valuemin>0</valuemin>
									<valuemax>100</valuemax>
								</parameter>
							</effect>
						</filter>
						<link>
							<linkclipref>ep6c1</linkclipref>
						</link>
						<link>
							<linkclipref>ep6c1-6a</linkclipref>
						</link>
					</clipitem>
					<clipitem id="ep6c1-7">
						<name>ep6c1cut</name>
						<file id="ep6c1">
							<duration>631.1680272108844</duration>
						</file>
						<rate>
							<timebase>60.0</timebase>
							<ntsc>FALSE</ntsc>
						</rate>
						<start>2069</start>
						<stop>2419</stop>
						<enabled>TRUE</enabled>
						<in>2573</in>
						<out>2923</out>
						<compositemode>normal</compositemode>
						<filter>
							<enabled>TRUE</enabled>
							<start>0</start>
							<end>631.1680272108844</end>
							<effect>
								<name>Basic Motion</name>
								<effectid>basic</effectid>
								<effecttype>motion</effecttype>
								<mediatype>video</mediatype>
								<effectcategory>motion</effectcategory>
								<parameter>
									<name>Scale</name>
									<parameterid>scale</parameterid>
									<value>100</value>
									<valuemin>0</valuemin>
									<valuemax>10000</valuemax>
								</parameter>
								<parameter>
									<name>Center</name>
									<parameterid>center</parameterid>
									<value>
										<horiz>0</horiz>
										<vert>0</vert>
									</value>
								</parameter>
								<parameter>
									<name>Rotation</name>
									<parameterid>rotation</parameterid>
									<value>0</value>
									<valuemin>-100000</valuemin>
									<valuemax>100000</valuemax>
								</parameter>
								<parameter>
									<name>Anchor Point</name>
									<parameterid>centerOffset</parameterid>
									<value>
										<horiz>0</horiz>
										<vert>0</vert>
									</value>
								</parameter>
							</effect>
						</filter>
						<filter>
							<enabled>TRUE</enabled>
							<start>0</start>
							<end>631.1680272108844</end>
							<effect>
								<name>Crop</name>
								<effectid>crop</effectid>
								<effecttype>motion</effecttype>
								<mediatype>video</mediatype>
								<effectcategory>motion</effectcategory>
								<parameter>
									<name>left</name>
									<parameterid>left</parameterid>
									<value>0</value>
									<valuemin>0</valuemin>
									<valuemax>100</valuemax>
								</parameter>
								<parameter>
									<name>right</name>
									<parameterid>right</parameterid>
									<value>0</value>
									<valuemin>0</valuemin>
									<valuemax>100</valuemax>
								</parameter>
								<parameter>
									<name>top</name>
									<parameterid>top</parameterid>
									<value>0</value>
									<valuemin>0</valuemin>
									<valuemax>100</valuemax>
								</parameter>
								<parameter>
									<name>bottom</name>
									<parameterid>bottom</parameterid>
									<value>0</value>
									<valuemin>0</valuemin>
									<valuemax>100</valuemax>
								</parameter>
							</effect>
						</filter>
						<filter>
							<enabled>TRUE</enabled>
							<start>0</start>
							<end>631.1680272108844</end>
							<effect>
								<name>Opacity</name>
								<effectid>opacity</effectid>
								<effecttype>motion</effecttype>
								<mediatype>video</mediatype>
								<effectcategory>motion</effectcategory>
								<parameter>
									<name>opacity</name>
									<parameterid>opacity</parameterid>
									<value>100</value>
									<valuemin>0</valuemin>
									<valuemax>100</valuemax>
								</parameter>
							</effect>
						</filter>
						<link>
							<linkclipref>ep6c1</linkclipref>
						</link>
						<link>
							<linkclipref>ep6c1-7a</linkclipref>
						</link>
					</clipitem>
					<clipitem id="ep6c1-8">
						<name>ep6c1cut</name>
						<file id="ep6c1">
							<duration>631.1680272108844</duration>
						</file>
						<rate>
							<timebase>60.0</timebase>
							<ntsc>FALSE</ntsc>
						</rate>
						<start>2419</start>
						<stop>2570</stop>
						<enabled>TRUE</enabled>
						<in>3739</in>
						<out>3890</out>
						<compositemode>normal</compositemode>
						<filter>
							<enabled>TRUE</enabled>
							<start>0</start>
							<end>631.1680272108844</end>
							<effect>
								<name>Basic Motion</name>
								<effectid>basic</effectid>
								<effecttype>motion</effecttype>
								<mediatype>video</mediatype>
								<effectcategory>motion</effectcategory>
								<parameter>
									<name>Scale</name>
									<parameterid>scale</parameterid>
									<value>100</value>
									<valuemin>0</valuemin>
									<valuemax>10000</valuemax>
								</parameter>
								<parameter>
									<name>Center</name>
									<parameterid>center</parameterid>
									<value>
										<horiz>0</horiz>
										<vert>0</vert>
									</value>
								</parameter>
								<parameter>
									<name>Rotation</name>
									<parameterid>rotation</parameterid>
									<value>0</value>
									<valuemin>-100000</valuemin>
									<valuemax>100000</valuemax>
								</parameter>
								<parameter>
									<name>Anchor Point</name>
									<parameterid>centerOffset</parameterid>
									<value>
										<horiz>0</horiz>
										<vert>0</vert>
									</value>
								</parameter>
							</effect>
						</filter>
						<filter>
							<enabled>TRUE</enabled>
							<start>0</start>
							<end>631.1680272108844</end>
							<effect>
								<name>Crop</name>
								<effectid>crop</effectid>
								<effecttype>motion</effecttype>
								<mediatype>video</mediatype>
								<effectcategory>motion</effectcategory>
								<parameter>
									<name>left</name>
									<parameterid>left</parameterid>
									<value>0</value>
									<valuemin>0</valuemin>
									<valuemax>100</valuemax>
								</parameter>
								<parameter>
									<name>right</name>
									<parameterid>right</parameterid>
									<value>0</value>
									<valuemin>0</valuemin>
									<valuemax>100</valuemax>
								</parameter>
								<parameter>
									<name>top</name>
									<parameterid>top</parameterid>
									<value>0</value>
									<valuemin>0</valuemin>
									<valuemax>100</valuemax>
								</parameter>
								<parameter>
									<name>bottom</name>
									<parameterid>bottom</parameterid>
									<value>0</value>
									<valuemin>0</valuemin>
									<valuemax>100</valuemax>
								</parameter>
							</effect>
						</filter>
						<filter>
							<enabled>TRUE</enabled>
							<start>0</start>
							<end>631.1680272108844</end>
							<effect>
								<name>Opacity</name>
								<effectid>opacity</effectid>
								<effecttype>motion</effecttype>
								<mediatype>video</mediatype>
								<effectcategory>motion</effectcategory>
								<parameter>
									<name>opacity</name>
									<parameterid>opacity</parameterid>
									<value>100</value>
									<valuemin>0</valuemin>
									<valuemax>100</valuemax>
								</parameter>
							</effect>
						</filter>
						<link>
							<linkclipref>ep6c1</linkclipref>
						</link>
						<link>
							<linkclipref>ep6c1-8a</linkclipref>
						</link>
					</clipitem>
					<clipitem id="ep6c1-9">
						<name>ep6c1cut</name>
						<file id="ep6c1">
							<duration>631.1680272108844</duration>
						</file>
						<rate>
							<timebase>60.0</timebase>
							<ntsc>FALSE</ntsc>
						</rate>
						<start>2570</start>
						<stop>2645</stop>
						<enabled>TRUE</enabled>
						<in>4022</in>
						<out>4097</out>
						<compositemode>normal</compositemode>
						<filter>
							<enabled>TRUE</enabled>
							<start>0</start>
							<end>631.1680272108844</end>
							<effect>
								<name>Basic Motion</name>
								<effectid>basic</effectid>
								<effecttype>motion</effecttype>
								<mediatype>video</mediatype>
								<effectcategory>motion</effectcategory>
								<parameter>
									<name>Scale</name>
									<parameterid>scale</parameterid>
									<value>100</value>
									<valuemin>0</valuemin>
									<valuemax>10000</valuemax>
								</parameter>
								<parameter>
									<name>Center</name>
									<parameterid>center</parameterid>
									<value>
										<horiz>0</horiz>
										<vert>0</vert>
									</value>
								</parameter>
								<parameter>
									<name>Rotation</name>
									<parameterid>rotation</parameterid>
									<value>0</value>
									<valuemin>-100000</valuemin>
									<valuemax>100000</valuemax>
								</parameter>
								<parameter>
									<name>Anchor Point</name>
									<parameterid>centerOffset</parameterid>
									<value>
										<horiz>0</horiz>
										<vert>0</vert>
									</value>
								</parameter>
							</effect>
						</filter>
						<filter>
							<enabled>TRUE</enabled>
							<start>0</start>
							<end>631.1680272108844</end>
							<effect>
								<name>Crop</name>
								<effectid>crop</effectid>
								<effecttype>motion</effecttype>
								<mediatype>video</mediatype>
								<effectcategory>motion</effectcategory>
								<parameter>
									<name>left</name>
									<parameterid>left</parameterid>
									<value>0</value>
									<valuemin>0</valuemin>
									<valuemax>100</valuemax>
								</parameter>
								<parameter>
									<name>right</name>
									<parameterid>right</parameterid>
									<value>0</value>
									<valuemin>0</valuemin>
									<valuemax>100</valuemax>
								</parameter>
								<parameter>
									<name>top</name>
									<parameterid>top</parameterid>
									<value>0</value>
									<valuemin>0</valuemin>
									<valuemax>100</valuemax>
								</parameter>
								<parameter>
									<name>bottom</name>
									<parameterid>bottom</parameterid>
									<value>0</value>
									<valuemin>0</valuemin>
									<valuemax>100</valuemax>
								</parameter>
							</effect>
						</filter>
						<filter>
							<enabled>TRUE</enabled>
							<start>0</start>
							<end>631.1680272108844</end>
							<effect>
								<name>Opacity</name>
								<effectid>opacity</effectid>
								<effecttype>motion</effecttype>
								<mediatype>video</mediatype>
								<effectcategory>motion</effectcategory>
								<parameter>
									<name>opacity</name>
									<parameterid>opacity</parameterid>
									<value>100</value>
									<valuemin>0</valuemin>
									<valuemax>100</valuemax>
								</parameter>
							</effect>
						</filter>
						<link>
							<linkclipref>ep6c1</linkclipref>
						</link>
						<link>
							<linkclipref>ep6c1-9a</linkclipref>
						</link>
					</clipitem>
					<clipitem id="ep6c1-10">
						<name>ep6c1cut</name>
						<file id="ep6c1">
							<duration>631.1680272108844</duration>
						</file>
						<rate>
							<timebase>60.0</timebase>
							<ntsc>FALSE</ntsc>
						</rate>
						<start>2645</start>
						<stop>2879</stop>
						<enabled>TRUE</enabled>
						<in>4121</in>
						<out>4355</out>
						<compositemode>normal</compositemode>
						<filter>
							<enabled>TRUE</enabled>
							<start>0</start>
							<end>631.1680272108844</end>
							<effect>
								<name>Basic Motion</name>
								<effectid>basic</effectid>
								<effecttype>motion</effecttype>
								<mediatype>video</mediatype>
								<effectcategory>motion</effectcategory>
								<parameter>
									<name>Scale</name>
									<parameterid>scale</parameterid>
									<value>100</value>
									<valuemin>0</valuemin>
									<valuemax>10000</valuemax>
								</parameter>
								<parameter>
									<name>Center</name>
									<parameterid>center</parameterid>
									<value>
										<horiz>0</horiz>
										<vert>0</vert>
									</value>
								</parameter>
								<parameter>
									<name>Rotation</name>
									<parameterid>rotation</parameterid>
									<value>0</value>
									<valuemin>-100000</valuemin>
									<valuemax>100000</valuemax>
								</parameter>
								<parameter>
									<name>Anchor Point</name>
									<parameterid>centerOffset</parameterid>
									<value>
										<horiz>0</horiz>
										<vert>0</vert>
									</value>
								</parameter>
							</effect>
						</filter>
						<filter>
							<enabled>TRUE</enabled>
							<start>0</start>
							<end>631.1680272108844</end>
							<effect>
								<name>Crop</name>
								<effectid>crop</effectid>
								<effecttype>motion</effecttype>
								<mediatype>video</mediatype>
								<effectcategory>motion</effectcategory>
								<parameter>
									<name>left</name>
									<parameterid>left</parameterid>
									<value>0</value>
									<valuemin>0</valuemin>
									<valuemax>100</valuemax>
								</parameter>
								<parameter>
									<name>right</name>
									<parameterid>right</parameterid>
									<value>0</value>
									<valuemin>0</valuemin>
									<valuemax>100</valuemax>
								</parameter>
								<parameter>
									<name>top</name>
									<parameterid>top</parameterid>
									<value>0</value>
									<valuemin>0</valuemin>
									<valuemax>100</valuemax>
								</parameter>
								<parameter>
									<name>bottom</name>
									<parameterid>bottom</parameterid>
									<value>0</value>
									<valuemin>0</valuemin>
									<valuemax>100</valuemax>
								</parameter>
							</effect>
						</filter>
						<filter>
							<enabled>TRUE</enabled>
							<start>0</start>
							<end>631.1680272108844</end>
							<effect>
								<name>Opacity</name>
								<effectid>opacity</effectid>
								<effecttype>motion</effecttype>
								<mediatype>video</mediatype>
								<effectcategory>motion</effectcategory>
								<parameter>
									<name>opacity</name>
									<parameterid>opacity</parameterid>
									<value>100</value>
									<valuemin>0</valuemin>
									<valuemax>100</valuemax>
								</parameter>
							</effect>
						</filter>
						<link>
							<linkclipref>ep6c1</linkclipref>
						</link>
						<link>
							<linkclipref>ep6c1-10a</linkclipref>
						</link>
					</clipitem>
					<clipitem id="ep6c1-11">
						<name>ep6c1cut</name>
						<file id="ep6c1">
							<duration>631.1680272108844</duration>
						</file>
						<rate>
							<timebase>60.0</timebase>
							<ntsc>FALSE</ntsc>
						</rate>
						<start>2879</start>
						<stop>2978</stop>
						<enabled>TRUE</enabled>
						<in>4421</in>
						<out>4520</out>
						<compositemode>normal</compositemode>
						<filter>
							<enabled>TRUE</enabled>
							<start>0</start>
							<end>631.1680272108844</end>
							<effect>
								<name>Basic Motion</name>
								<effectid>basic</effectid>
								<effecttype>motion</effecttype>
								<mediatype>video</mediatype>
								<effectcategory>motion</effectcategory>
								<parameter>
									<name>Scale</name>
									<parameterid>scale</parameterid>
									<value>100</value>
									<valuemin>0</valuemin>
									<valuemax>10000</valuemax>
								</parameter>
								<parameter>
									<name>Center</name>
									<parameterid>center</parameterid>
									<value>
										<horiz>0</horiz>
										<vert>0</vert>
									</value>
								</parameter>
								<parameter>
									<name>Rotation</name>
									<parameterid>rotation</parameterid>
									<value>0</value>
									<valuemin>-100000</valuemin>
									<valuemax>100000</valuemax>
								</parameter>
								<parameter>
									<name>Anchor Point</name>
									<parameterid>centerOffset</parameterid>
									<value>
										<horiz>0</horiz>
										<vert>0</vert>
									</value>
								</parameter>
							</effect>
						</filter>
						<filter>
							<enabled>TRUE</enabled>
							<start>0</start>
							<end>631.1680272108844</end>
							<effect>
								<name>Crop</name>
								<effectid>crop</effectid>
								<effecttype>motion</effecttype>
								<mediatype>video</mediatype>
								<effectcategory>motion</effectcategory>
								<parameter>
									<name>left</name>
									<parameterid>left</parameterid>
									<value>0</value>
									<valuemin>0</valuemin>
									<valuemax>100</valuemax>
								</parameter>
								<parameter>
									<name>right</name>
									<parameterid>right</parameterid>
									<value>0</value>
									<valuemin>0</valuemin>
									<valuemax>100</valuemax>
								</parameter>
								<parameter>
									<name>top</name>
									<parameterid>top</parameterid>
									<value>0</value>
									<valuemin>0</valuemin>
									<valuemax>100</valuemax>
								</parameter>
								<parameter>
									<name>bottom</name>
									<parameterid>bottom</parameterid>
									<value>0</value>
									<valuemin>0</valuemin>
									<valuemax>100</valuemax>
								</parameter>
							</effect>
						</filter>
						<filter>
							<enabled>TRUE</enabled>
							<start>0</start>
							<end>631.1680272108844</end>
							<effect>
								<name>Opacity</name>
								<effectid>opacity</effectid>
								<effecttype>motion</effecttype>
								<mediatype>video</mediatype>
								<effectcategory>motion</effectcategory>
								<parameter>
									<name>opacity</name>
									<parameterid>opacity</parameterid>
									<value>100</value>
									<valuemin>0</valuemin>
									<valuemax>100</valuemax>
								</parameter>
							</effect>
						</filter>
						<link>
							<linkclipref>ep6c1</linkclipref>
						</link>
						<link>
							<linkclipref>ep6c1-11a</linkclipref>
						</link>
					</clipitem>
					<clipitem id="ep6c1-12">
						<name>ep6c1cut</name>
						<file id="ep6c1">
							<duration>631.1680272108844</duration>
						</file>
						<rate>
							<timebase>60.0</timebase>
							<ntsc>FALSE</ntsc>
						</rate>
						<start>2978</start>
						<stop>3084</stop>
						<enabled>TRUE</enabled>
						<in>4643</in>
						<out>4750</out>
						<compositemode>normal</compositemode>
						<filter>
							<enabled>TRUE</enabled>
							<start>0</start>
							<end>631.1680272108844</end>
							<effect>
								<name>Basic Motion</name>
								<effectid>basic</effectid>
								<effecttype>motion</effecttype>
								<mediatype>video</mediatype>
								<effectcategory>motion</effectcategory>
								<parameter>
									<name>Scale</name>
									<parameterid>scale</parameterid>
									<value>100</value>
									<valuemin>0</valuemin>
									<valuemax>10000</valuemax>
								</parameter>
								<parameter>
									<name>Center</name>
									<parameterid>center</parameterid>
									<value>
										<horiz>0</horiz>
										<vert>0</vert>
									</value>
								</parameter>
								<parameter>
									<name>Rotation</name>
									<parameterid>rotation</parameterid>
									<value>0</value>
									<valuemin>-100000</valuemin>
									<valuemax>100000</valuemax>
								</parameter>
								<parameter>
									<name>Anchor Point</name>
									<parameterid>centerOffset</parameterid>
									<value>
										<horiz>0</horiz>
										<vert>0</vert>
									</value>
								</parameter>
							</effect>
						</filter>
						<filter>
							<enabled>TRUE</enabled>
							<start>0</start>
							<end>631.1680272108844</end>
							<effect>
								<name>Crop</name>
								<effectid>crop</effectid>
								<effecttype>motion</effecttype>
								<mediatype>video</mediatype>
								<effectcategory>motion</effectcategory>
								<parameter>
									<name>left</name>
									<parameterid>left</parameterid>
									<value>0</value>
									<valuemin>0</valuemin>
									<valuemax>100</valuemax>
								</parameter>
								<parameter>
									<name>right</name>
									<parameterid>right</parameterid>
									<value>0</value>
									<valuemin>0</valuemin>
									<valuemax>100</valuemax>
								</parameter>
								<parameter>
									<name>top</name>
									<parameterid>top</parameterid>
									<value>0</value>
									<valuemin>0</valuemin>
									<valuemax>100</valuemax>
								</parameter>
								<parameter>
									<name>bottom</name>
									<parameterid>bottom</parameterid>
									<value>0</value>
									<valuemin>0</valuemin>
									<valuemax>100</valuemax>
								</parameter>
							</effect>
						</filter>
						<filter>
							<enabled>TRUE</enabled>
							<start>0</start>
							<end>631.1680272108844</end>
							<effect>
								<name>Opacity</name>
								<effectid>opacity</effectid>
								<effecttype>motion</effecttype>
								<mediatype>video</mediatype>
								<effectcategory>motion</effectcategory>
								<parameter>
									<name>opacity</name>
									<parameterid>opacity</parameterid>
									<value>100</value>
									<valuemin>0</valuemin>
									<valuemax>100</valuemax>
								</parameter>
							</effect>
						</filter>
						<link>
							<linkclipref>ep6c1</linkclipref>
						</link>
						<link>
							<linkclipref>ep6c1-12a</linkclipref>
						</link>
					</clipitem>
					<clipitem id="ep6c1-13">
						<name>ep6c1cut</name>
						<file id="ep6c1">
							<duration>631.1680272108844</duration>
						</file>
						<rate>
							<timebase>60.0</timebase>
							<ntsc>FALSE</ntsc>
						</rate>
						<start>3084</start>
						<stop>3264</stop>
						<enabled>TRUE</enabled>
						<in>4834</in>
						<out>5015</out>
						<compositemode>normal</compositemode>
						<filter>
							<enabled>TRUE</enabled>
							<start>0</start>
							<end>631.1680272108844</end>
							<effect>
								<name>Basic Motion</name>
								<effectid>basic</effectid>
								<effecttype>motion</effecttype>
								<mediatype>video</mediatype>
								<effectcategory>motion</effectcategory>
								<parameter>
									<name>Scale</name>
									<parameterid>scale</parameterid>
									<value>100</value>
									<valuemin>0</valuemin>
									<valuemax>10000</valuemax>
								</parameter>
								<parameter>
									<name>Center</name>
									<parameterid>center</parameterid>
									<value>
										<horiz>0</horiz>
										<vert>0</vert>
									</value>
								</parameter>
								<parameter>
									<name>Rotation</name>
									<parameterid>rotation</parameterid>
									<value>0</value>
									<valuemin>-100000</valuemin>
									<valuemax>100000</valuemax>
								</parameter>
								<parameter>
									<name>Anchor Point</name>
									<parameterid>centerOffset</parameterid>
									<value>
										<horiz>0</horiz>
										<vert>0</vert>
									</value>
								</parameter>
							</effect>
						</filter>
						<filter>
							<enabled>TRUE</enabled>
							<start>0</start>
							<end>631.1680272108844</end>
							<effect>
								<name>Crop</name>
								<effectid>crop</effectid>
								<effecttype>motion</effecttype>
								<mediatype>video</mediatype>
								<effectcategory>motion</effectcategory>
								<parameter>
									<name>left</name>
									<parameterid>left</parameterid>
									<value>0</value>
									<valuemin>0</valuemin>
									<valuemax>100</valuemax>
								</parameter>
								<parameter>
									<name>right</name>
									<parameterid>right</parameterid>
									<value>0</value>
									<valuemin>0</valuemin>
									<valuemax>100</valuemax>
								</parameter>
								<parameter>
									<name>top</name>
									<parameterid>top</parameterid>
									<value>0</value>
									<valuemin>0</valuemin>
									<valuemax>100</valuemax>
								</parameter>
								<parameter>
									<name>bottom</name>
									<parameterid>bottom</parameterid>
									<value>0</value>
									<valuemin>0</valuemin>
									<valuemax>100</valuemax>
								</parameter>
							</effect>
						</filter>
						<filter>
							<enabled>TRUE</enabled>
							<start>0</start>
							<end>631.1680272108844</end>
							<effect>
								<name>Opacity</name>
								<effectid>opacity</effectid>
								<effecttype>motion</effecttype>
								<mediatype>video</mediatype>
								<effectcategory>motion</effectcategory>
								<parameter>
									<name>opacity</name>
									<parameterid>opacity</parameterid>
									<value>100</value>
									<valuemin>0</valuemin>
									<valuemax>100</valuemax>
								</parameter>
							</effect>
						</filter>
						<link>
							<linkclipref>ep6c1</linkclipref>
						</link>
						<link>
							<linkclipref>ep6c1-13a</linkclipref>
						</link>
					</clipitem>
					<clipitem id="ep6c1-14">
						<name>ep6c1cut</name>
						<file id="ep6c1">
							<duration>631.1680272108844</duration>
						</file>
						<rate>
							<timebase>60.0</timebase>
							<ntsc>FALSE</ntsc>
						</rate>
						<start>3264</start>
						<stop>3360</stop>
						<enabled>TRUE</enabled>
						<in>5593</in>
						<out>5689</out>
						<compositemode>normal</compositemode>
						<filter>
							<enabled>TRUE</enabled>
							<start>0</start>
							<end>631.1680272108844</end>
							<effect>
								<name>Basic Motion</name>
								<effectid>basic</effectid>
								<effecttype>motion</effecttype>
								<mediatype>video</mediatype>
								<effectcategory>motion</effectcategory>
								<parameter>
									<name>Scale</name>
									<parameterid>scale</parameterid>
									<value>100</value>
									<valuemin>0</valuemin>
									<valuemax>10000</valuemax>
								</parameter>
								<parameter>
									<name>Center</name>
									<parameterid>center</parameterid>
									<value>
										<horiz>0</horiz>
										<vert>0</vert>
									</value>
								</parameter>
								<parameter>
									<name>Rotation</name>
									<parameterid>rotation</parameterid>
									<value>0</value>
									<valuemin>-100000</valuemin>
									<valuemax>100000</valuemax>
								</parameter>
								<parameter>
									<name>Anchor Point</name>
									<parameterid>centerOffset</parameterid>
									<value>
										<horiz>0</horiz>
										<vert>0</vert>
									</value>
								</parameter>
							</effect>
						</filter>
						<filter>
							<enabled>TRUE</enabled>
							<start>0</start>
							<end>631.1680272108844</end>
							<effect>
								<name>Crop</name>
								<effectid>crop</effectid>
								<effecttype>motion</effecttype>
								<mediatype>video</mediatype>
								<effectcategory>motion</effectcategory>
								<parameter>
									<name>left</name>
									<parameterid>left</parameterid>
									<value>0</value>
									<valuemin>0</valuemin>
									<valuemax>100</valuemax>
								</parameter>
								<parameter>
									<name>right</name>
									<parameterid>right</parameterid>
									<value>0</value>
									<valuemin>0</valuemin>
									<valuemax>100</valuemax>
								</parameter>
								<parameter>
									<name>top</name>
									<parameterid>top</parameterid>
									<value>0</value>
									<valuemin>0</valuemin>
									<valuemax>100</valuemax>
								</parameter>
								<parameter>
									<name>bottom</name>
									<parameterid>bottom</parameterid>
									<value>0</value>
									<valuemin>0</valuemin>
									<valuemax>100</valuemax>
								</parameter>
							</effect>
						</filter>
						<filter>
							<enabled>TRUE</enabled>
							<start>0</start>
							<end>631.1680272108844</end>
							<effect>
								<name>Opacity</name>
								<effectid>opacity</effectid>
								<effecttype>motion</effecttype>
								<mediatype>video</mediatype>
								<effectcategory>motion</effectcategory>
								<parameter>
									<name>opacity</name>
									<parameterid>opacity</parameterid>
									<value>100</value>
									<valuemin>0</valuemin>
									<valuemax>100</valuemax>
								</parameter>
							</effect>
						</filter>
						<link>
							<linkclipref>ep6c1</linkclipref>
						</link>
						<link>
							<linkclipref>ep6c1-14a</linkclipref>
						</link>
					</clipitem>
					<clipitem id="ep6c1-15">
						<name>ep6c1cut</name>
						<file id="ep6c1">
							<duration>631.1680272108844</duration>
						</file>
						<rate>
							<timebase>60.0</timebase>
							<ntsc>FALSE</ntsc>
						</rate>
						<start>3360</start>
						<stop>3515</stop>
						<enabled>TRUE</enabled>
						<in>6091</in>
						<out>6247</out>
						<compositemode>normal</compositemode>
						<filter>
							<enabled>TRUE</enabled>
							<start>0</start>
							<end>631.1680272108844</end>
							<effect>
								<name>Basic Motion</name>
								<effectid>basic</effectid>
								<effecttype>motion</effecttype>
								<mediatype>video</mediatype>
								<effectcategory>motion</effectcategory>
								<parameter>
									<name>Scale</name>
									<parameterid>scale</parameterid>
									<value>100</value>
									<valuemin>0</valuemin>
									<valuemax>10000</valuemax>
								</parameter>
								<parameter>
									<name>Center</name>
									<parameterid>center</parameterid>
									<value>
										<horiz>0</horiz>
										<vert>0</vert>
									</value>
								</parameter>
								<parameter>
									<name>Rotation</name>
									<parameterid>rotation</parameterid>
									<value>0</value>
									<valuemin>-100000</valuemin>
									<valuemax>100000</valuemax>
								</parameter>
								<parameter>
									<name>Anchor Point</name>
									<parameterid>centerOffset</parameterid>
									<value>
										<horiz>0</horiz>
										<vert>0</vert>
									</value>
								</parameter>
							</effect>
						</filter>
						<filter>
							<enabled>TRUE</enabled>
							<start>0</start>
							<end>631.1680272108844</end>
							<effect>
								<name>Crop</name>
								<effectid>crop</effectid>
								<effecttype>motion</effecttype>
								<mediatype>video</mediatype>
								<effectcategory>motion</effectcategory>
								<parameter>
									<name>left</name>
									<parameterid>left</parameterid>
									<value>0</value>
									<valuemin>0</valuemin>
									<valuemax>100</valuemax>
								</parameter>
								<parameter>
									<name>right</name>
									<parameterid>right</parameterid>
									<value>0</value>
									<valuemin>0</valuemin>
									<valuemax>100</valuemax>
								</parameter>
								<parameter>
									<name>top</name>
									<parameterid>top</parameterid>
									<value>0</value>
									<valuemin>0</valuemin>
									<valuemax>100</valuemax>
								</parameter>
								<parameter>
									<name>bottom</name>
									<parameterid>bottom</parameterid>
									<value>0</value>
									<valuemin>0</valuemin>
									<valuemax>100</valuemax>
								</parameter>
							</effect>
						</filter>
						<filter>
							<enabled>TRUE</enabled>
							<start>0</start>
							<end>631.1680272108844</end>
							<effect>
								<name>Opacity</name>
								<effectid>opacity</effectid>
								<effecttype>motion</effecttype>
								<mediatype>video</mediatype>
								<effectcategory>motion</effectcategory>
								<parameter>
									<name>opacity</name>
									<parameterid>opacity</parameterid>
									<value>100</value>
									<valuemin>0</valuemin>
									<valuemax>100</valuemax>
								</parameter>
							</effect>
						</filter>
						<link>
							<linkclipref>ep6c1</linkclipref>
						</link>
						<link>
							<linkclipref>ep6c1-15a</linkclipref>
						</link>
					</clipitem>
					<clipitem id="ep6c1-16">
						<name>ep6c1cut</name>
						<file id="ep6c1">
							<duration>631.1680272108844</duration>
						</file>
						<rate>
							<timebase>60.0</timebase>
							<ntsc>FALSE</ntsc>
						</rate>
						<start>3515</start>
						<stop>3594</stop>
						<enabled>TRUE</enabled>
						<in>6307</in>
						<out>6386</out>
						<compositemode>normal</compositemode>
						<filter>
							<enabled>TRUE</enabled>
							<start>0</start>
							<end>631.1680272108844</end>
							<effect>
								<name>Basic Motion</name>
								<effectid>basic</effectid>
								<effecttype>motion</effecttype>
								<mediatype>video</mediatype>
								<effectcategory>motion</effectcategory>
								<parameter>
									<name>Scale</name>
									<parameterid>scale</parameterid>
									<value>100</value>
									<valuemin>0</valuemin>
									<valuemax>10000</valuemax>
								</parameter>
								<parameter>
									<name>Center</name>
									<parameterid>center</parameterid>
									<value>
										<horiz>0</horiz>
										<vert>0</vert>
									</value>
								</parameter>
								<parameter>
									<name>Rotation</name>
									<parameterid>rotation</parameterid>
									<value>0</value>
									<valuemin>-100000</valuemin>
									<valuemax>100000</valuemax>
								</parameter>
								<parameter>
									<name>Anchor Point</name>
									<parameterid>centerOffset</parameterid>
									<value>
										<horiz>0</horiz>
										<vert>0</vert>
									</value>
								</parameter>
							</effect>
						</filter>
						<filter>
							<enabled>TRUE</enabled>
							<start>0</start>
							<end>631.1680272108844</end>
							<effect>
								<name>Crop</name>
								<effectid>crop</effectid>
								<effecttype>motion</effecttype>
								<mediatype>video</mediatype>
								<effectcategory>motion</effectcategory>
								<parameter>
									<name>left</name>
									<parameterid>left</parameterid>
									<value>0</value>
									<valuemin>0</valuemin>
									<valuemax>100</valuemax>
								</parameter>
								<parameter>
									<name>right</name>
									<parameterid>right</parameterid>
									<value>0</value>
									<valuemin>0</valuemin>
									<valuemax>100</valuemax>
								</parameter>
								<parameter>
									<name>top</name>
									<parameterid>top</parameterid>
									<value>0</value>
									<valuemin>0</valuemin>
									<valuemax>100</valuemax>
								</parameter>
								<parameter>
									<name>bottom</name>
									<parameterid>bottom</parameterid>
									<value>0</value>
									<valuemin>0</valuemin>
									<valuemax>100</valuemax>
								</parameter>
							</effect>
						</filter>
						<filter>
							<enabled>TRUE</enabled>
							<start>0</start>
							<end>631.1680272108844</end>
							<effect>
								<name>Opacity</name>
								<effectid>opacity</effectid>
								<effecttype>motion</effecttype>
								<mediatype>video</mediatype>
								<effectcategory>motion</effectcategory>
								<parameter>
									<name>opacity</name>
									<parameterid>opacity</parameterid>
									<value>100</value>
									<valuemin>0</valuemin>
									<valuemax>100</valuemax>
								</parameter>
							</effect>
						</filter>
						<link>
							<linkclipref>ep6c1</linkclipref>
						</link>
						<link>
							<linkclipref>ep6c1-16a</linkclipref>
						</link>
					</clipitem>
					<clipitem id="ep6c1-17">
						<name>ep6c1cut</name>
						<file id="ep6c1">
							<duration>631.1680272108844</duration>
						</file>
						<rate>
							<timebase>60.0</timebase>
							<ntsc>FALSE</ntsc>
						</rate>
						<start>3594</start>
						<stop>3669</stop>
						<enabled>TRUE</enabled>
						<in>6513</in>
						<out>6589</out>
						<compositemode>normal</compositemode>
						<filter>
							<enabled>TRUE</enabled>
							<start>0</start>
							<end>631.1680272108844</end>
							<effect>
								<name>Basic Motion</name>
								<effectid>basic</effectid>
								<effecttype>motion</effecttype>
								<mediatype>video</mediatype>
								<effectcategory>motion</effectcategory>
								<parameter>
									<name>Scale</name>
									<parameterid>scale</parameterid>
									<value>100</value>
									<valuemin>0</valuemin>
									<valuemax>10000</valuemax>
								</parameter>
								<parameter>
									<name>Center</name>
									<parameterid>center</parameterid>
									<value>
										<horiz>0</horiz>
										<vert>0</vert>
									</value>
								</parameter>
								<parameter>
									<name>Rotation</name>
									<parameterid>rotation</parameterid>
									<value>0</value>
									<valuemin>-100000</valuemin>
									<valuemax>100000</valuemax>
								</parameter>
								<parameter>
									<name>Anchor Point</name>
									<parameterid>centerOffset</parameterid>
									<value>
										<horiz>0</horiz>
										<vert>0</vert>
									</value>
								</parameter>
							</effect>
						</filter>
						<filter>
							<enabled>TRUE</enabled>
							<start>0</start>
							<end>631.1680272108844</end>
							<effect>
								<name>Crop</name>
								<effectid>crop</effectid>
								<effecttype>motion</effecttype>
								<mediatype>video</mediatype>
								<effectcategory>motion</effectcategory>
								<parameter>
									<name>left</name>
									<parameterid>left</parameterid>
									<value>0</value>
									<valuemin>0</valuemin>
									<valuemax>100</valuemax>
								</parameter>
								<parameter>
									<name>right</name>
									<parameterid>right</parameterid>
									<value>0</value>
									<valuemin>0</valuemin>
									<valuemax>100</valuemax>
								</parameter>
								<parameter>
									<name>top</name>
									<parameterid>top</parameterid>
									<value>0</value>
									<valuemin>0</valuemin>
									<valuemax>100</valuemax>
								</parameter>
								<parameter>
									<name>bottom</name>
									<parameterid>bottom</parameterid>
									<value>0</value>
									<valuemin>0</valuemin>
									<valuemax>100</valuemax>
								</parameter>
							</effect>
						</filter>
						<filter>
							<enabled>TRUE</enabled>
							<start>0</start>
							<end>631.1680272108844</end>
							<effect>
								<name>Opacity</name>
								<effectid>opacity</effectid>
								<effecttype>motion</effecttype>
								<mediatype>video</mediatype>
								<effectcategory>motion</effectcategory>
								<parameter>
									<name>opacity</name>
									<parameterid>opacity</parameterid>
									<value>100</value>
									<valuemin>0</valuemin>
									<valuemax>100</valuemax>
								</parameter>
							</effect>
						</filter>
						<link>
							<linkclipref>ep6c1</linkclipref>
						</link>
						<link>
							<linkclipref>ep6c1-17a</linkclipref>
						</link>
					</clipitem>
					<clipitem id="ep6c1-18">
						<name>ep6c1cut</name>
						<file id="ep6c1">
							<duration>631.1680272108844</duration>
						</file>
						<rate>
							<timebase>60.0</timebase>
							<ntsc>FALSE</ntsc>
						</rate>
						<start>3669</start>
						<stop>3770</stop>
						<enabled>TRUE</enabled>
						<in>7409</in>
						<out>7510</out>
						<compositemode>normal</compositemode>
						<filter>
							<enabled>TRUE</enabled>
							<start>0</start>
							<end>631.1680272108844</end>
							<effect>
								<name>Basic Motion</name>
								<effectid>basic</effectid>
								<effecttype>motion</effecttype>
								<mediatype>video</mediatype>
								<effectcategory>motion</effectcategory>
								<parameter>
									<name>Scale</name>
									<parameterid>scale</parameterid>
									<value>100</value>
									<valuemin>0</valuemin>
									<valuemax>10000</valuemax>
								</parameter>
								<parameter>
									<name>Center</name>
									<parameterid>center</parameterid>
									<value>
										<horiz>0</horiz>
										<vert>0</vert>
									</value>
								</parameter>
								<parameter>
									<name>Rotation</name>
									<parameterid>rotation</parameterid>
									<value>0</value>
									<valuemin>-100000</valuemin>
									<valuemax>100000</valuemax>
								</parameter>
								<parameter>
									<name>Anchor Point</name>
									<parameterid>centerOffset</parameterid>
									<value>
										<horiz>0</horiz>
										<vert>0</vert>
									</value>
								</parameter>
							</effect>
						</filter>
						<filter>
							<enabled>TRUE</enabled>
							<start>0</start>
							<end>631.1680272108844</end>
							<effect>
								<name>Crop</name>
								<effectid>crop</effectid>
								<effecttype>motion</effecttype>
								<mediatype>video</mediatype>
								<effectcategory>motion</effectcategory>
								<parameter>
									<name>left</name>
									<parameterid>left</parameterid>
									<value>0</value>
									<valuemin>0</valuemin>
									<valuemax>100</valuemax>
								</parameter>
								<parameter>
									<name>right</name>
									<parameterid>right</parameterid>
									<value>0</value>
									<valuemin>0</valuemin>
									<valuemax>100</valuemax>
								</parameter>
								<parameter>
									<name>top</name>
									<parameterid>top</parameterid>
									<value>0</value>
									<valuemin>0</valuemin>
									<valuemax>100</valuemax>
								</parameter>
								<parameter>
									<name>bottom</name>
									<parameterid>bottom</parameterid>
									<value>0</value>
									<valuemin>0</valuemin>
									<valuemax>100</valuemax>
								</parameter>
							</effect>
						</filter>
						<filter>
							<enabled>TRUE</enabled>
							<start>0</start>
							<end>631.1680272108844</end>
							<effect>
								<name>Opacity</name>
								<effectid>opacity</effectid>
								<effecttype>motion</effecttype>
								<mediatype>video</mediatype>
								<effectcategory>motion</effectcategory>
								<parameter>
									<name>opacity</name>
									<parameterid>opacity</parameterid>
									<value>100</value>
									<valuemin>0</valuemin>
									<valuemax>100</valuemax>
								</parameter>
							</effect>
						</filter>
						<link>
							<linkclipref>ep6c1</linkclipref>
						</link>
						<link>
							<linkclipref>ep6c1-18a</linkclipref>
						</link>
					</clipitem>
					<clipitem id="ep6c1-19">
						<name>ep6c1cut</name>
						<file id="ep6c1">
							<duration>631.1680272108844</duration>
						</file>
						<rate>
							<timebase>60.0</timebase>
							<ntsc>FALSE</ntsc>
						</rate>
						<start>3770</start>
						<stop>3959</stop>
						<enabled>TRUE</enabled>
						<in>10637</in>
						<out>10826</out>
						<compositemode>normal</compositemode>
						<filter>
							<enabled>TRUE</enabled>
							<start>0</start>
							<end>631.1680272108844</end>
							<effect>
								<name>Basic Motion</name>
								<effectid>basic</effectid>
								<effecttype>motion</effecttype>
								<mediatype>video</mediatype>
								<effectcategory>motion</effectcategory>
								<parameter>
									<name>Scale</name>
									<parameterid>scale</parameterid>
									<value>100</value>
									<valuemin>0</valuemin>
									<valuemax>10000</valuemax>
								</parameter>
								<parameter>
									<name>Center</name>
									<parameterid>center</parameterid>
									<value>
										<horiz>0</horiz>
										<vert>0</vert>
									</value>
								</parameter>
								<parameter>
									<name>Rotation</name>
									<parameterid>rotation</parameterid>
									<value>0</value>
									<valuemin>-100000</valuemin>
									<valuemax>100000</valuemax>
								</parameter>
								<parameter>
									<name>Anchor Point</name>
									<parameterid>centerOffset</parameterid>
									<value>
										<horiz>0</horiz>
										<vert>0</vert>
									</value>
								</parameter>
							</effect>
						</filter>
						<filter>
							<enabled>TRUE</enabled>
							<start>0</start>
							<end>631.1680272108844</end>
							<effect>
								<name>Crop</name>
								<effectid>crop</effectid>
								<effecttype>motion</effecttype>
								<mediatype>video</mediatype>
								<effectcategory>motion</effectcategory>
								<parameter>
									<name>left</name>
									<parameterid>left</parameterid>
									<value>0</value>
									<valuemin>0</valuemin>
									<valuemax>100</valuemax>
								</parameter>
								<parameter>
									<name>right</name>
									<parameterid>right</parameterid>
									<value>0</value>
									<valuemin>0</valuemin>
									<valuemax>100</valuemax>
								</parameter>
								<parameter>
									<name>top</name>
									<parameterid>top</parameterid>
									<value>0</value>
									<valuemin>0</valuemin>
									<valuemax>100</valuemax>
								</parameter>
								<parameter>
									<name>bottom</name>
									<parameterid>bottom</parameterid>
									<value>0</value>
									<valuemin>0</valuemin>
									<valuemax>100</valuemax>
								</parameter>
							</effect>
						</filter>
						<filter>
							<enabled>TRUE</enabled>
							<start>0</start>
							<end>631.1680272108844</end>
							<effect>
								<name>Opacity</name>
								<effectid>opacity</effectid>
								<effecttype>motion</effecttype>
								<mediatype>video</mediatype>
								<effectcategory>motion</effectcategory>
								<parameter>
									<name>opacity</name>
									<parameterid>opacity</parameterid>
									<value>100</value>
									<valuemin>0</valuemin>
									<valuemax>100</valuemax>
								</parameter>
							</effect>
						</filter>
						<link>
							<linkclipref>ep6c1</linkclipref>
						</link>
						<link>
							<linkclipref>ep6c1-19a</linkclipref>
						</link>
					</clipitem>
					<clipitem id="ep6c1-20">
						<name>ep6c1cut</name>
						<file id="ep6c1">
							<duration>631.1680272108844</duration>
						</file>
						<rate>
							<timebase>60.0</timebase>
							<ntsc>FALSE</ntsc>
						</rate>
						<start>3959</start>
						<stop>4021</stop>
						<enabled>TRUE</enabled>
						<in>10911</in>
						<out>10973</out>
						<compositemode>normal</compositemode>
						<filter>
							<enabled>TRUE</enabled>
							<start>0</start>
							<end>631.1680272108844</end>
							<effect>
								<name>Basic Motion</name>
								<effectid>basic</effectid>
								<effecttype>motion</effecttype>
								<mediatype>video</mediatype>
								<effectcategory>motion</effectcategory>
								<parameter>
									<name>Scale</name>
									<parameterid>scale</parameterid>
									<value>100</value>
									<valuemin>0</valuemin>
									<valuemax>10000</valuemax>
								</parameter>
								<parameter>
									<name>Center</name>
									<parameterid>center</parameterid>
									<value>
										<horiz>0</horiz>
										<vert>0</vert>
									</value>
								</parameter>
								<parameter>
									<name>Rotation</name>
									<parameterid>rotation</parameterid>
									<value>0</value>
									<valuemin>-100000</valuemin>
									<valuemax>100000</valuemax>
								</parameter>
								<parameter>
									<name>Anchor Point</name>
									<parameterid>centerOffset</parameterid>
									<value>
										<horiz>0</horiz>
										<vert>0</vert>
									</value>
								</parameter>
							</effect>
						</filter>
						<filter>
							<enabled>TRUE</enabled>
							<start>0</start>
							<end>631.1680272108844</end>
							<effect>
								<name>Crop</name>
								<effectid>crop</effectid>
								<effecttype>motion</effecttype>
								<mediatype>video</mediatype>
								<effectcategory>motion</effectcategory>
								<parameter>
									<name>left</name>
									<parameterid>left</parameterid>
									<value>0</value>
									<valuemin>0</valuemin>
									<valuemax>100</valuemax>
								</parameter>
								<parameter>
									<name>right</name>
									<parameterid>right</parameterid>
									<value>0</value>
									<valuemin>0</valuemin>
									<valuemax>100</valuemax>
								</parameter>
								<parameter>
									<name>top</name>
									<parameterid>top</parameterid>
									<value>0</value>
									<valuemin>0</valuemin>
									<valuemax>100</valuemax>
								</parameter>
								<parameter>
									<name>bottom</name>
									<parameterid>bottom</parameterid>
									<value>0</value>
									<valuemin>0</valuemin>
									<valuemax>100</valuemax>
								</parameter>
							</effect>
						</filter>
						<filter>
							<enabled>TRUE</enabled>
							<start>0</start>
							<end>631.1680272108844</end>
							<effect>
								<name>Opacity</name>
								<effectid>opacity</effectid>
								<effecttype>motion</effecttype>
								<mediatype>video</mediatype>
								<effectcategory>motion</effectcategory>
								<parameter>
									<name>opacity</name>
									<parameterid>opacity</parameterid>
									<value>100</value>
									<valuemin>0</valuemin>
									<valuemax>100</valuemax>
								</parameter>
							</effect>
						</filter>
						<link>
							<linkclipref>ep6c1</linkclipref>
						</link>
						<link>
							<linkclipref>ep6c1-20a</linkclipref>
						</link>
					</clipitem>
					<clipitem id="ep6c1-21">
						<name>ep6c1cut</name>
						<file id="ep6c1">
							<duration>631.1680272108844</duration>
						</file>
						<rate>
							<timebase>60.0</timebase>
							<ntsc>FALSE</ntsc>
						</rate>
						<start>4021</start>
						<stop>4135</stop>
						<enabled>TRUE</enabled>
						<in>12093</in>
						<out>12208</out>
						<compositemode>normal</compositemode>
						<filter>
							<enabled>TRUE</enabled>
							<start>0</start>
							<end>631.1680272108844</end>
							<effect>
								<name>Basic Motion</name>
								<effectid>basic</effectid>
								<effecttype>motion</effecttype>
								<mediatype>video</mediatype>
								<effectcategory>motion</effectcategory>
								<parameter>
									<name>Scale</name>
									<parameterid>scale</parameterid>
									<value>100</value>
									<valuemin>0</valuemin>
									<valuemax>10000</valuemax>
								</parameter>
								<parameter>
									<name>Center</name>
									<parameterid>center</parameterid>
									<value>
										<horiz>0</horiz>
										<vert>0</vert>
									</value>
								</parameter>
								<parameter>
									<name>Rotation</name>
									<parameterid>rotation</parameterid>
									<value>0</value>
									<valuemin>-100000</valuemin>
									<valuemax>100000</valuemax>
								</parameter>
								<parameter>
									<name>Anchor Point</name>
									<parameterid>centerOffset</parameterid>
									<value>
										<horiz>0</horiz>
										<vert>0</vert>
									</value>
								</parameter>
							</effect>
						</filter>
						<filter>
							<enabled>TRUE</enabled>
							<start>0</start>
							<end>631.1680272108844</end>
							<effect>
								<name>Crop</name>
								<effectid>crop</effectid>
								<effecttype>motion</effecttype>
								<mediatype>video</mediatype>
								<effectcategory>motion</effectcategory>
								<parameter>
									<name>left</name>
									<parameterid>left</parameterid>
									<value>0</value>
									<valuemin>0</valuemin>
									<valuemax>100</valuemax>
								</parameter>
								<parameter>
									<name>right</name>
									<parameterid>right</parameterid>
									<value>0</value>
									<valuemin>0</valuemin>
									<valuemax>100</valuemax>
								</parameter>
								<parameter>
									<name>top</name>
									<parameterid>top</parameterid>
									<value>0</value>
									<valuemin>0</valuemin>
									<valuemax>100</valuemax>
								</parameter>
								<parameter>
									<name>bottom</name>
									<parameterid>bottom</parameterid>
									<value>0</value>
									<valuemin>0</valuemin>
									<valuemax>100</valuemax>
								</parameter>
							</effect>
						</filter>
						<filter>
							<enabled>TRUE</enabled>
							<start>0</start>
							<end>631.1680272108844</end>
							<effect>
								<name>Opacity</name>
								<effectid>opacity</effectid>
								<effecttype>motion</effecttype>
								<mediatype>video</mediatype>
								<effectcategory>motion</effectcategory>
								<parameter>
									<name>opacity</name>
									<parameterid>opacity</parameterid>
									<value>100</value>
									<valuemin>0</valuemin>
									<valuemax>100</valuemax>
								</parameter>
							</effect>
						</filter>
						<link>
							<linkclipref>ep6c1</linkclipref>
						</link>
						<link>
							<linkclipref>ep6c1-21a</linkclipref>
						</link>
					</clipitem>
					<clipitem id="ep6c1-22">
						<name>ep6c1cut</name>
						<file id="ep6c1">
							<duration>631.1680272108844</duration>
						</file>
						<rate>
							<timebase>60.0</timebase>
							<ntsc>FALSE</ntsc>
						</rate>
						<start>4135</start>
						<stop>4242</stop>
						<enabled>TRUE</enabled>
						<in>12641</in>
						<out>12749</out>
						<compositemode>normal</compositemode>
						<filter>
							<enabled>TRUE</enabled>
							<start>0</start>
							<end>631.1680272108844</end>
							<effect>
								<name>Basic Motion</name>
								<effectid>basic</effectid>
								<effecttype>motion</effecttype>
								<mediatype>video</mediatype>
								<effectcategory>motion</effectcategory>
								<parameter>
									<name>Scale</name>
									<parameterid>scale</parameterid>
									<value>100</value>
									<valuemin>0</valuemin>
									<valuemax>10000</valuemax>
								</parameter>
								<parameter>
									<name>Center</name>
									<parameterid>center</parameterid>
									<value>
										<horiz>0</horiz>
										<vert>0</vert>
									</value>
								</parameter>
								<parameter>
									<name>Rotation</name>
									<parameterid>rotation</parameterid>
									<value>0</value>
									<valuemin>-100000</valuemin>
									<valuemax>100000</valuemax>
								</parameter>
								<parameter>
									<name>Anchor Point</name>
									<parameterid>centerOffset</parameterid>
									<value>
										<horiz>0</horiz>
										<vert>0</vert>
									</value>
								</parameter>
							</effect>
						</filter>
						<filter>
							<enabled>TRUE</enabled>
							<start>0</start>
							<end>631.1680272108844</end>
							<effect>
								<name>Crop</name>
								<effectid>crop</effectid>
								<effecttype>motion</effecttype>
								<mediatype>video</mediatype>
								<effectcategory>motion</effectcategory>
								<parameter>
									<name>left</name>
									<parameterid>left</parameterid>
									<value>0</value>
									<valuemin>0</valuemin>
									<valuemax>100</valuemax>
								</parameter>
								<parameter>
									<name>right</name>
									<parameterid>right</parameterid>
									<value>0</value>
									<valuemin>0</valuemin>
									<valuemax>100</valuemax>
								</parameter>
								<parameter>
									<name>top</name>
									<parameterid>top</parameterid>
									<value>0</value>
									<valuemin>0</valuemin>
									<valuemax>100</valuemax>
								</parameter>
								<parameter>
									<name>bottom</name>
									<parameterid>bottom</parameterid>
									<value>0</value>
									<valuemin>0</valuemin>
									<valuemax>100</valuemax>
								</parameter>
							</effect>
						</filter>
						<filter>
							<enabled>TRUE</enabled>
							<start>0</start>
							<end>631.1680272108844</end>
							<effect>
								<name>Opacity</name>
								<effectid>opacity</effectid>
								<effecttype>motion</effecttype>
								<mediatype>video</mediatype>
								<effectcategory>motion</effectcategory>
								<parameter>
									<name>opacity</name>
									<parameterid>opacity</parameterid>
									<value>100</value>
									<valuemin>0</valuemin>
									<valuemax>100</valuemax>
								</parameter>
							</effect>
						</filter>
						<link>
							<linkclipref>ep6c1</linkclipref>
						</link>
						<link>
							<linkclipref>ep6c1-22a</linkclipref>
						</link>
					</clipitem>
					<clipitem id="ep6c1-23">
						<name>ep6c1cut</name>
						<file id="ep6c1">
							<duration>631.1680272108844</duration>
						</file>
						<rate>
							<timebase>60.0</timebase>
							<ntsc>FALSE</ntsc>
						</rate>
						<start>4242</start>
						<stop>4345</stop>
						<enabled>TRUE</enabled>
						<in>12771</in>
						<out>12875</out>
						<compositemode>normal</compositemode>
						<filter>
							<enabled>TRUE</enabled>
							<start>0</start>
							<end>631.1680272108844</end>
							<effect>
								<name>Basic Motion</name>
								<effectid>basic</effectid>
								<effecttype>motion</effecttype>
								<mediatype>video</mediatype>
								<effectcategory>motion</effectcategory>
								<parameter>
									<name>Scale</name>
									<parameterid>scale</parameterid>
									<value>100</value>
									<valuemin>0</valuemin>
									<valuemax>10000</valuemax>
								</parameter>
								<parameter>
									<name>Center</name>
									<parameterid>center</parameterid>
									<value>
										<horiz>0</horiz>
										<vert>0</vert>
									</value>
								</parameter>
								<parameter>
									<name>Rotation</name>
									<parameterid>rotation</parameterid>
									<value>0</value>
									<valuemin>-100000</valuemin>
									<valuemax>100000</valuemax>
								</parameter>
								<parameter>
									<name>Anchor Point</name>
									<parameterid>centerOffset</parameterid>
									<value>
										<horiz>0</horiz>
										<vert>0</vert>
									</value>
								</parameter>
							</effect>
						</filter>
						<filter>
							<enabled>TRUE</enabled>
							<start>0</start>
							<end>631.1680272108844</end>
							<effect>
								<name>Crop</name>
								<effectid>crop</effectid>
								<effecttype>motion</effecttype>
								<mediatype>video</mediatype>
								<effectcategory>motion</effectcategory>
								<parameter>
									<name>left</name>
									<parameterid>left</parameterid>
									<value>0</value>
									<valuemin>0</valuemin>
									<valuemax>100</valuemax>
								</parameter>
								<parameter>
									<name>right</name>
									<parameterid>right</parameterid>
									<value>0</value>
									<valuemin>0</valuemin>
									<valuemax>100</valuemax>
								</parameter>
								<parameter>
									<name>top</name>
									<parameterid>top</parameterid>
									<value>0</value>
									<valuemin>0</valuemin>
									<valuemax>100</valuemax>
								</parameter>
								<parameter>
									<name>bottom</name>
									<parameterid>bottom</parameterid>
									<value>0</value>
									<valuemin>0</valuemin>
									<valuemax>100</valuemax>
								</parameter>
							</effect>
						</filter>
						<filter>
							<enabled>TRUE</enabled>
							<start>0</start>
							<end>631.1680272108844</end>
							<effect>
								<name>Opacity</name>
								<effectid>opacity</effectid>
								<effecttype>motion</effecttype>
								<mediatype>video</mediatype>
								<effectcategory>motion</effectcategory>
								<parameter>
									<name>opacity</name>
									<parameterid>opacity</parameterid>
									<value>100</value>
									<valuemin>0</valuemin>
									<valuemax>100</valuemax>
								</parameter>
							</effect>
						</filter>
						<link>
							<linkclipref>ep6c1</linkclipref>
						</link>
						<link>
							<linkclipref>ep6c1-23a</linkclipref>
						</link>
					</clipitem>
					<clipitem id="ep6c1-24">
						<name>ep6c1cut</name>
						<file id="ep6c1">
							<duration>631.1680272108844</duration>
						</file>
						<rate>
							<timebase>60.0</timebase>
							<ntsc>FALSE</ntsc>
						</rate>
						<start>4345</start>
						<stop>4533</stop>
						<enabled>TRUE</enabled>
						<in>13304</in>
						<out>13492</out>
						<compositemode>normal</compositemode>
						<filter>
							<enabled>TRUE</enabled>
							<start>0</start>
							<end>631.1680272108844</end>
							<effect>
								<name>Basic Motion</name>
								<effectid>basic</effectid>
								<effecttype>motion</effecttype>
								<mediatype>video</mediatype>
								<effectcategory>motion</effectcategory>
								<parameter>
									<name>Scale</name>
									<parameterid>scale</parameterid>
									<value>100</value>
									<valuemin>0</valuemin>
									<valuemax>10000</valuemax>
								</parameter>
								<parameter>
									<name>Center</name>
									<parameterid>center</parameterid>
									<value>
										<horiz>0</horiz>
										<vert>0</vert>
									</value>
								</parameter>
								<parameter>
									<name>Rotation</name>
									<parameterid>rotation</parameterid>
									<value>0</value>
									<valuemin>-100000</valuemin>
									<valuemax>100000</valuemax>
								</parameter>
								<parameter>
									<name>Anchor Point</name>
									<parameterid>centerOffset</parameterid>
									<value>
										<horiz>0</horiz>
										<vert>0</vert>
									</value>
								</parameter>
							</effect>
						</filter>
						<filter>
							<enabled>TRUE</enabled>
							<start>0</start>
							<end>631.1680272108844</end>
							<effect>
								<name>Crop</name>
								<effectid>crop</effectid>
								<effecttype>motion</effecttype>
								<mediatype>video</mediatype>
								<effectcategory>motion</effectcategory>
								<parameter>
									<name>left</name>
									<parameterid>left</parameterid>
									<value>0</value>
									<valuemin>0</valuemin>
									<valuemax>100</valuemax>
								</parameter>
								<parameter>
									<name>right</name>
									<parameterid>right</parameterid>
									<value>0</value>
									<valuemin>0</valuemin>
									<valuemax>100</valuemax>
								</parameter>
								<parameter>
									<name>top</name>
									<parameterid>top</parameterid>
									<value>0</value>
									<valuemin>0</valuemin>
									<valuemax>100</valuemax>
								</parameter>
								<parameter>
									<name>bottom</name>
									<parameterid>bottom</parameterid>
									<value>0</value>
									<valuemin>0</valuemin>
									<valuemax>100</valuemax>
								</parameter>
							</effect>
						</filter>
						<filter>
							<enabled>TRUE</enabled>
							<start>0</start>
							<end>631.1680272108844</end>
							<effect>
								<name>Opacity</name>
								<effectid>opacity</effectid>
								<effecttype>motion</effecttype>
								<mediatype>video</mediatype>
								<effectcategory>motion</effectcategory>
								<parameter>
									<name>opacity</name>
									<parameterid>opacity</parameterid>
									<value>100</value>
									<valuemin>0</valuemin>
									<valuemax>100</valuemax>
								</parameter>
							</effect>
						</filter>
						<link>
							<linkclipref>ep6c1</linkclipref>
						</link>
						<link>
							<linkclipref>ep6c1-24a</linkclipref>
						</link>
					</clipitem>
					<clipitem id="ep6c1-25">
						<name>ep6c1cut</name>
						<file id="ep6c1">
							<duration>631.1680272108844</duration>
						</file>
						<rate>
							<timebase>60.0</timebase>
							<ntsc>FALSE</ntsc>
						</rate>
						<start>4533</start>
						<stop>4616</stop>
						<enabled>TRUE</enabled>
						<in>13524</in>
						<out>13607</out>
						<compositemode>normal</compositemode>
						<filter>
							<enabled>TRUE</enabled>
							<start>0</start>
							<end>631.1680272108844</end>
							<effect>
								<name>Basic Motion</name>
								<effectid>basic</effectid>
								<effecttype>motion</effecttype>
								<mediatype>video</mediatype>
								<effectcategory>motion</effectcategory>
								<parameter>
									<name>Scale</name>
									<parameterid>scale</parameterid>
									<value>100</value>
									<valuemin>0</valuemin>
									<valuemax>10000</valuemax>
								</parameter>
								<parameter>
									<name>Center</name>
									<parameterid>center</parameterid>
									<value>
										<horiz>0</horiz>
										<vert>0</vert>
									</value>
								</parameter>
								<parameter>
									<name>Rotation</name>
									<parameterid>rotation</parameterid>
									<value>0</value>
									<valuemin>-100000</valuemin>
									<valuemax>100000</valuemax>
								</parameter>
								<parameter>
									<name>Anchor Point</name>
									<parameterid>centerOffset</parameterid>
									<value>
										<horiz>0</horiz>
										<vert>0</vert>
									</value>
								</parameter>
							</effect>
						</filter>
						<filter>
							<enabled>TRUE</enabled>
							<start>0</start>
							<end>631.1680272108844</end>
							<effect>
								<name>Crop</name>
								<effectid>crop</effectid>
								<effecttype>motion</effecttype>
								<mediatype>video</mediatype>
								<effectcategory>motion</effectcategory>
								<parameter>
									<name>left</name>
									<parameterid>left</parameterid>
									<value>0</value>
									<valuemin>0</valuemin>
									<valuemax>100</valuemax>
								</parameter>
								<parameter>
									<name>right</name>
									<parameterid>right</parameterid>
									<value>0</value>
									<valuemin>0</valuemin>
									<valuemax>100</valuemax>
								</parameter>
								<parameter>
									<name>top</name>
									<parameterid>top</parameterid>
									<value>0</value>
									<valuemin>0</valuemin>
									<valuemax>100</valuemax>
								</parameter>
								<parameter>
									<name>bottom</name>
									<parameterid>bottom</parameterid>
									<value>0</value>
									<valuemin>0</valuemin>
									<valuemax>100</valuemax>
								</parameter>
							</effect>
						</filter>
						<filter>
							<enabled>TRUE</enabled>
							<start>0</start>
							<end>631.1680272108844</end>
							<effect>
								<name>Opacity</name>
								<effectid>opacity</effectid>
								<effecttype>motion</effecttype>
								<mediatype>video</mediatype>
								<effectcategory>motion</effectcategory>
								<parameter>
									<name>opacity</name>
									<parameterid>opacity</parameterid>
									<value>100</value>
									<valuemin>0</valuemin>
									<valuemax>100</valuemax>
								</parameter>
							</effect>
						</filter>
						<link>
							<linkclipref>ep6c1</linkclipref>
						</link>
						<link>
							<linkclipref>ep6c1-25a</linkclipref>
						</link>
					</clipitem>
					<clipitem id="ep6c1-26">
						<name>ep6c1cut</name>
						<file id="ep6c1">
							<duration>631.1680272108844</duration>
						</file>
						<rate>
							<timebase>60.0</timebase>
							<ntsc>FALSE</ntsc>
						</rate>
						<start>4616</start>
						<stop>4718</stop>
						<enabled>TRUE</enabled>
						<in>13788</in>
						<out>13890</out>
						<compositemode>normal</compositemode>
						<filter>
							<enabled>TRUE</enabled>
							<start>0</start>
							<end>631.1680272108844</end>
							<effect>
								<name>Basic Motion</name>
								<effectid>basic</effectid>
								<effecttype>motion</effecttype>
								<mediatype>video</mediatype>
								<effectcategory>motion</effectcategory>
								<parameter>
									<name>Scale</name>
									<parameterid>scale</parameterid>
									<value>100</value>
									<valuemin>0</valuemin>
									<valuemax>10000</valuemax>
								</parameter>
								<parameter>
									<name>Center</name>
									<parameterid>center</parameterid>
									<value>
										<horiz>0</horiz>
										<vert>0</vert>
									</value>
								</parameter>
								<parameter>
									<name>Rotation</name>
									<parameterid>rotation</parameterid>
									<value>0</value>
									<valuemin>-100000</valuemin>
									<valuemax>100000</valuemax>
								</parameter>
								<parameter>
									<name>Anchor Point</name>
									<parameterid>centerOffset</parameterid>
									<value>
										<horiz>0</horiz>
										<vert>0</vert>
									</value>
								</parameter>
							</effect>
						</filter>
						<filter>
							<enabled>TRUE</enabled>
							<start>0</start>
							<end>631.1680272108844</end>
							<effect>
								<name>Crop</name>
								<effectid>crop</effectid>
								<effecttype>motion</effecttype>
								<mediatype>video</mediatype>
								<effectcategory>motion</effectcategory>
								<parameter>
									<name>left</name>
									<parameterid>left</parameterid>
									<value>0</value>
									<valuemin>0</valuemin>
									<valuemax>100</valuemax>
								</parameter>
								<parameter>
									<name>right</name>
									<parameterid>right</parameterid>
									<value>0</value>
									<valuemin>0</valuemin>
									<valuemax>100</valuemax>
								</parameter>
								<parameter>
									<name>top</name>
									<parameterid>top</parameterid>
									<value>0</value>
									<valuemin>0</valuemin>
									<valuemax>100</valuemax>
								</parameter>
								<parameter>
									<name>bottom</name>
									<parameterid>bottom</parameterid>
									<value>0</value>
									<valuemin>0</valuemin>
									<valuemax>100</valuemax>
								</parameter>
							</effect>
						</filter>
						<filter>
							<enabled>TRUE</enabled>
							<start>0</start>
							<end>631.1680272108844</end>
							<effect>
								<name>Opacity</name>
								<effectid>opacity</effectid>
								<effecttype>motion</effecttype>
								<mediatype>video</mediatype>
								<effectcategory>motion</effectcategory>
								<parameter>
									<name>opacity</name>
									<parameterid>opacity</parameterid>
									<value>100</value>
									<valuemin>0</valuemin>
									<valuemax>100</valuemax>
								</parameter>
							</effect>
						</filter>
						<link>
							<linkclipref>ep6c1</linkclipref>
						</link>
						<link>
							<linkclipref>ep6c1-26a</linkclipref>
						</link>
					</clipitem>
					<clipitem id="ep6c1-27">
						<name>ep6c1cut</name>
						<file id="ep6c1">
							<duration>631.1680272108844</duration>
						</file>
						<rate>
							<timebase>60.0</timebase>
							<ntsc>FALSE</ntsc>
						</rate>
						<start>4718</start>
						<stop>4793</stop>
						<enabled>TRUE</enabled>
						<in>13929</in>
						<out>14004</out>
						<compositemode>normal</compositemode>
						<filter>
							<enabled>TRUE</enabled>
							<start>0</start>
							<end>631.1680272108844</end>
							<effect>
								<name>Basic Motion</name>
								<effectid>basic</effectid>
								<effecttype>motion</effecttype>
								<mediatype>video</mediatype>
								<effectcategory>motion</effectcategory>
								<parameter>
									<name>Scale</name>
									<parameterid>scale</parameterid>
									<value>100</value>
									<valuemin>0</valuemin>
									<valuemax>10000</valuemax>
								</parameter>
								<parameter>
									<name>Center</name>
									<parameterid>center</parameterid>
									<value>
										<horiz>0</horiz>
										<vert>0</vert>
									</value>
								</parameter>
								<parameter>
									<name>Rotation</name>
									<parameterid>rotation</parameterid>
									<value>0</value>
									<valuemin>-100000</valuemin>
									<valuemax>100000</valuemax>
								</parameter>
								<parameter>
									<name>Anchor Point</name>
									<parameterid>centerOffset</parameterid>
									<value>
										<horiz>0</horiz>
										<vert>0</vert>
									</value>
								</parameter>
							</effect>
						</filter>
						<filter>
							<enabled>TRUE</enabled>
							<start>0</start>
							<end>631.1680272108844</end>
							<effect>
								<name>Crop</name>
								<effectid>crop</effectid>
								<effecttype>motion</effecttype>
								<mediatype>video</mediatype>
								<effectcategory>motion</effectcategory>
								<parameter>
									<name>left</name>
									<parameterid>left</parameterid>
									<value>0</value>
									<valuemin>0</valuemin>
									<valuemax>100</valuemax>
								</parameter>
								<parameter>
									<name>right</name>
									<parameterid>right</parameterid>
									<value>0</value>
									<valuemin>0</valuemin>
									<valuemax>100</valuemax>
								</parameter>
								<parameter>
									<name>top</name>
									<parameterid>top</parameterid>
									<value>0</value>
									<valuemin>0</valuemin>
									<valuemax>100</valuemax>
								</parameter>
								<parameter>
									<name>bottom</name>
									<parameterid>bottom</parameterid>
									<value>0</value>
									<valuemin>0</valuemin>
									<valuemax>100</valuemax>
								</parameter>
							</effect>
						</filter>
						<filter>
							<enabled>TRUE</enabled>
							<start>0</start>
							<end>631.1680272108844</end>
							<effect>
								<name>Opacity</name>
								<effectid>opacity</effectid>
								<effecttype>motion</effecttype>
								<mediatype>video</mediatype>
								<effectcategory>motion</effectcategory>
								<parameter>
									<name>opacity</name>
									<parameterid>opacity</parameterid>
									<value>100</value>
									<valuemin>0</valuemin>
									<valuemax>100</valuemax>
								</parameter>
							</effect>
						</filter>
						<link>
							<linkclipref>ep6c1</linkclipref>
						</link>
						<link>
							<linkclipref>ep6c1-27a</linkclipref>
						</link>
					</clipitem>
					<clipitem id="ep6c1-28">
						<name>ep6c1cut</name>
						<file id="ep6c1">
							<duration>631.1680272108844</duration>
						</file>
						<rate>
							<timebase>60.0</timebase>
							<ntsc>FALSE</ntsc>
						</rate>
						<start>4793</start>
						<stop>4910</stop>
						<enabled>TRUE</enabled>
						<in>14029</in>
						<out>14146</out>
						<compositemode>normal</compositemode>
						<filter>
							<enabled>TRUE</enabled>
							<start>0</start>
							<end>631.1680272108844</end>
							<effect>
								<name>Basic Motion</name>
								<effectid>basic</effectid>
								<effecttype>motion</effecttype>
								<mediatype>video</mediatype>
								<effectcategory>motion</effectcategory>
								<parameter>
									<name>Scale</name>
									<parameterid>scale</parameterid>
									<value>100</value>
									<valuemin>0</valuemin>
									<valuemax>10000</valuemax>
								</parameter>
								<parameter>
									<name>Center</name>
									<parameterid>center</parameterid>
									<value>
										<horiz>0</horiz>
										<vert>0</vert>
									</value>
								</parameter>
								<parameter>
									<name>Rotation</name>
									<parameterid>rotation</parameterid>
									<value>0</value>
									<valuemin>-100000</valuemin>
									<valuemax>100000</valuemax>
								</parameter>
								<parameter>
									<name>Anchor Point</name>
									<parameterid>centerOffset</parameterid>
									<value>
										<horiz>0</horiz>
										<vert>0</vert>
									</value>
								</parameter>
							</effect>
						</filter>
						<filter>
							<enabled>TRUE</enabled>
							<start>0</start>
							<end>631.1680272108844</end>
							<effect>
								<name>Crop</name>
								<effectid>crop</effectid>
								<effecttype>motion</effecttype>
								<mediatype>video</mediatype>
								<effectcategory>motion</effectcategory>
								<parameter>
									<name>left</name>
									<parameterid>left</parameterid>
									<value>0</value>
									<valuemin>0</valuemin>
									<valuemax>100</valuemax>
								</parameter>
								<parameter>
									<name>right</name>
									<parameterid>right</parameterid>
									<value>0</value>
									<valuemin>0</valuemin>
									<valuemax>100</valuemax>
								</parameter>
								<parameter>
									<name>top</name>
									<parameterid>top</parameterid>
									<value>0</value>
									<valuemin>0</valuemin>
									<valuemax>100</valuemax>
								</parameter>
								<parameter>
									<name>bottom</name>
									<parameterid>bottom</parameterid>
									<value>0</value>
									<valuemin>0</valuemin>
									<valuemax>100</valuemax>
								</parameter>
							</effect>
						</filter>
						<filter>
							<enabled>TRUE</enabled>
							<start>0</start>
							<end>631.1680272108844</end>
							<effect>
								<name>Opacity</name>
								<effectid>opacity</effectid>
								<effecttype>motion</effecttype>
								<mediatype>video</mediatype>
								<effectcategory>motion</effectcategory>
								<parameter>
									<name>opacity</name>
									<parameterid>opacity</parameterid>
									<value>100</value>
									<valuemin>0</valuemin>
									<valuemax>100</valuemax>
								</parameter>
							</effect>
						</filter>
						<link>
							<linkclipref>ep6c1</linkclipref>
						</link>
						<link>
							<linkclipref>ep6c1-28a</linkclipref>
						</link>
					</clipitem>
					<clipitem id="ep6c1-29">
						<name>ep6c1cut</name>
						<file id="ep6c1">
							<duration>631.1680272108844</duration>
						</file>
						<rate>
							<timebase>60.0</timebase>
							<ntsc>FALSE</ntsc>
						</rate>
						<start>4910</start>
						<stop>4984</stop>
						<enabled>TRUE</enabled>
						<in>14259</in>
						<out>14334</out>
						<compositemode>normal</compositemode>
						<filter>
							<enabled>TRUE</enabled>
							<start>0</start>
							<end>631.1680272108844</end>
							<effect>
								<name>Basic Motion</name>
								<effectid>basic</effectid>
								<effecttype>motion</effecttype>
								<mediatype>video</mediatype>
								<effectcategory>motion</effectcategory>
								<parameter>
									<name>Scale</name>
									<parameterid>scale</parameterid>
									<value>100</value>
									<valuemin>0</valuemin>
									<valuemax>10000</valuemax>
								</parameter>
								<parameter>
									<name>Center</name>
									<parameterid>center</parameterid>
									<value>
										<horiz>0</horiz>
										<vert>0</vert>
									</value>
								</parameter>
								<parameter>
									<name>Rotation</name>
									<parameterid>rotation</parameterid>
									<value>0</value>
									<valuemin>-100000</valuemin>
									<valuemax>100000</valuemax>
								</parameter>
								<parameter>
									<name>Anchor Point</name>
									<parameterid>centerOffset</parameterid>
									<value>
										<horiz>0</horiz>
										<vert>0</vert>
									</value>
								</parameter>
							</effect>
						</filter>
						<filter>
							<enabled>TRUE</enabled>
							<start>0</start>
							<end>631.1680272108844</end>
							<effect>
								<name>Crop</name>
								<effectid>crop</effectid>
								<effecttype>motion</effecttype>
								<mediatype>video</mediatype>
								<effectcategory>motion</effectcategory>
								<parameter>
									<name>left</name>
									<parameterid>left</parameterid>
									<value>0</value>
									<valuemin>0</valuemin>
									<valuemax>100</valuemax>
								</parameter>
								<parameter>
									<name>right</name>
									<parameterid>right</parameterid>
									<value>0</value>
									<valuemin>0</valuemin>
									<valuemax>100</valuemax>
								</parameter>
								<parameter>
									<name>top</name>
									<parameterid>top</parameterid>
									<value>0</value>
									<valuemin>0</valuemin>
									<valuemax>100</valuemax>
								</parameter>
								<parameter>
									<name>bottom</name>
									<parameterid>bottom</parameterid>
									<value>0</value>
									<valuemin>0</valuemin>
									<valuemax>100</valuemax>
								</parameter>
							</effect>
						</filter>
						<filter>
							<enabled>TRUE</enabled>
							<start>0</start>
							<end>631.1680272108844</end>
							<effect>
								<name>Opacity</name>
								<effectid>opacity</effectid>
								<effecttype>motion</effecttype>
								<mediatype>video</mediatype>
								<effectcategory>motion</effectcategory>
								<parameter>
									<name>opacity</name>
									<parameterid>opacity</parameterid>
									<value>100</value>
									<valuemin>0</valuemin>
									<valuemax>100</valuemax>
								</parameter>
							</effect>
						</filter>
						<link>
							<linkclipref>ep6c1</linkclipref>
						</link>
						<link>
							<linkclipref>ep6c1-29a</linkclipref>
						</link>
					</clipitem>
					<clipitem id="ep6c1-30">
						<name>ep6c1cut</name>
						<file id="ep6c1">
							<duration>631.1680272108844</duration>
						</file>
						<rate>
							<timebase>60.0</timebase>
							<ntsc>FALSE</ntsc>
						</rate>
						<start>4984</start>
						<stop>5098</stop>
						<enabled>TRUE</enabled>
						<in>14991</in>
						<out>15105</out>
						<compositemode>normal</compositemode>
						<filter>
							<enabled>TRUE</enabled>
							<start>0</start>
							<end>631.1680272108844</end>
							<effect>
								<name>Basic Motion</name>
								<effectid>basic</effectid>
								<effecttype>motion</effecttype>
								<mediatype>video</mediatype>
								<effectcategory>motion</effectcategory>
								<parameter>
									<name>Scale</name>
									<parameterid>scale</parameterid>
									<value>100</value>
									<valuemin>0</valuemin>
									<valuemax>10000</valuemax>
								</parameter>
								<parameter>
									<name>Center</name>
									<parameterid>center</parameterid>
									<value>
										<horiz>0</horiz>
										<vert>0</vert>
									</value>
								</parameter>
								<parameter>
									<name>Rotation</name>
									<parameterid>rotation</parameterid>
									<value>0</value>
									<valuemin>-100000</valuemin>
									<valuemax>100000</valuemax>
								</parameter>
								<parameter>
									<name>Anchor Point</name>
									<parameterid>centerOffset</parameterid>
									<value>
										<horiz>0</horiz>
										<vert>0</vert>
									</value>
								</parameter>
							</effect>
						</filter>
						<filter>
							<enabled>TRUE</enabled>
							<start>0</start>
							<end>631.1680272108844</end>
							<effect>
								<name>Crop</name>
								<effectid>crop</effectid>
								<effecttype>motion</effecttype>
								<mediatype>video</mediatype>
								<effectcategory>motion</effectcategory>
								<parameter>
									<name>left</name>
									<parameterid>left</parameterid>
									<value>0</value>
									<valuemin>0</valuemin>
									<valuemax>100</valuemax>
								</parameter>
								<parameter>
									<name>right</name>
									<parameterid>right</parameterid>
									<value>0</value>
									<valuemin>0</valuemin>
									<valuemax>100</valuemax>
								</parameter>
								<parameter>
									<name>top</name>
									<parameterid>top</parameterid>
									<value>0</value>
									<valuemin>0</valuemin>
									<valuemax>100</valuemax>
								</parameter>
								<parameter>
									<name>bottom</name>
									<parameterid>bottom</parameterid>
									<value>0</value>
									<valuemin>0</valuemin>
									<valuemax>100</valuemax>
								</parameter>
							</effect>
						</filter>
						<filter>
							<enabled>TRUE</enabled>
							<start>0</start>
							<end>631.1680272108844</end>
							<effect>
								<name>Opacity</name>
								<effectid>opacity</effectid>
								<effecttype>motion</effecttype>
								<mediatype>video</mediatype>
								<effectcategory>motion</effectcategory>
								<parameter>
									<name>opacity</name>
									<parameterid>opacity</parameterid>
									<value>100</value>
									<valuemin>0</valuemin>
									<valuemax>100</valuemax>
								</parameter>
							</effect>
						</filter>
						<link>
							<linkclipref>ep6c1</linkclipref>
						</link>
						<link>
							<linkclipref>ep6c1-30a</linkclipref>
						</link>
					</clipitem>
					<clipitem id="ep6c1-31">
						<name>ep6c1cut</name>
						<file id="ep6c1">
							<duration>631.1680272108844</duration>
						</file>
						<rate>
							<timebase>60.0</timebase>
							<ntsc>FALSE</ntsc>
						</rate>
						<start>5098</start>
						<stop>6146</stop>
						<enabled>TRUE</enabled>
						<in>15149</in>
						<out>16198</out>
						<compositemode>normal</compositemode>
						<filter>
							<enabled>TRUE</enabled>
							<start>0</start>
							<end>631.1680272108844</end>
							<effect>
								<name>Basic Motion</name>
								<effectid>basic</effectid>
								<effecttype>motion</effecttype>
								<mediatype>video</mediatype>
								<effectcategory>motion</effectcategory>
								<parameter>
									<name>Scale</name>
									<parameterid>scale</parameterid>
									<value>100</value>
									<valuemin>0</valuemin>
									<valuemax>10000</valuemax>
								</parameter>
								<parameter>
									<name>Center</name>
									<parameterid>center</parameterid>
									<value>
										<horiz>0</horiz>
										<vert>0</vert>
									</value>
								</parameter>
								<parameter>
									<name>Rotation</name>
									<parameterid>rotation</parameterid>
									<value>0</value>
									<valuemin>-100000</valuemin>
									<valuemax>100000</valuemax>
								</parameter>
								<parameter>
									<name>Anchor Point</name>
									<parameterid>centerOffset</parameterid>
									<value>
										<horiz>0</horiz>
										<vert>0</vert>
									</value>
								</parameter>
							</effect>
						</filter>
						<filter>
							<enabled>TRUE</enabled>
							<start>0</start>
							<end>631.1680272108844</end>
							<effect>
								<name>Crop</name>
								<effectid>crop</effectid>
								<effecttype>motion</effecttype>
								<mediatype>video</mediatype>
								<effectcategory>motion</effectcategory>
								<parameter>
									<name>left</name>
									<parameterid>left</parameterid>
									<value>0</value>
									<valuemin>0</valuemin>
									<valuemax>100</valuemax>
								</parameter>
								<parameter>
									<name>right</name>
									<parameterid>right</parameterid>
									<value>0</value>
									<valuemin>0</valuemin>
									<valuemax>100</valuemax>
								</parameter>
								<parameter>
									<name>top</name>
									<parameterid>top</parameterid>
									<value>0</value>
									<valuemin>0</valuemin>
									<valuemax>100</valuemax>
								</parameter>
								<parameter>
									<name>bottom</name>
									<parameterid>bottom</parameterid>
									<value>0</value>
									<valuemin>0</valuemin>
									<valuemax>100</valuemax>
								</parameter>
							</effect>
						</filter>
						<filter>
							<enabled>TRUE</enabled>
							<start>0</start>
							<end>631.1680272108844</end>
							<effect>
								<name>Opacity</name>
								<effectid>opacity</effectid>
								<effecttype>motion</effecttype>
								<mediatype>video</mediatype>
								<effectcategory>motion</effectcategory>
								<parameter>
									<name>opacity</name>
									<parameterid>opacity</parameterid>
									<value>100</value>
									<valuemin>0</valuemin>
									<valuemax>100</valuemax>
								</parameter>
							</effect>
						</filter>
						<link>
							<linkclipref>ep6c1</linkclipref>
						</link>
						<link>
							<linkclipref>ep6c1-31a</linkclipref>
						</link>
					</clipitem>
					<clipitem id="ep6c1-32">
						<name>ep6c1cut</name>
						<file id="ep6c1">
							<duration>631.1680272108844</duration>
						</file>
						<rate>
							<timebase>60.0</timebase>
							<ntsc>FALSE</ntsc>
						</rate>
						<start>6146</start>
						<stop>6267</stop>
						<enabled>TRUE</enabled>
						<in>16269</in>
						<out>16391</out>
						<compositemode>normal</compositemode>
						<filter>
							<enabled>TRUE</enabled>
							<start>0</start>
							<end>631.1680272108844</end>
							<effect>
								<name>Basic Motion</name>
								<effectid>basic</effectid>
								<effecttype>motion</effecttype>
								<mediatype>video</mediatype>
								<effectcategory>motion</effectcategory>
								<parameter>
									<name>Scale</name>
									<parameterid>scale</parameterid>
									<value>100</value>
									<valuemin>0</valuemin>
									<valuemax>10000</valuemax>
								</parameter>
								<parameter>
									<name>Center</name>
									<parameterid>center</parameterid>
									<value>
										<horiz>0</horiz>
										<vert>0</vert>
									</value>
								</parameter>
								<parameter>
									<name>Rotation</name>
									<parameterid>rotation</parameterid>
									<value>0</value>
									<valuemin>-100000</valuemin>
									<valuemax>100000</valuemax>
								</parameter>
								<parameter>
									<name>Anchor Point</name>
									<parameterid>centerOffset</parameterid>
									<value>
										<horiz>0</horiz>
										<vert>0</vert>
									</value>
								</parameter>
							</effect>
						</filter>
						<filter>
							<enabled>TRUE</enabled>
							<start>0</start>
							<end>631.1680272108844</end>
							<effect>
								<name>Crop</name>
								<effectid>crop</effectid>
								<effecttype>motion</effecttype>
								<mediatype>video</mediatype>
								<effectcategory>motion</effectcategory>
								<parameter>
									<name>left</name>
									<parameterid>left</parameterid>
									<value>0</value>
									<valuemin>0</valuemin>
									<valuemax>100</valuemax>
								</parameter>
								<parameter>
									<name>right</name>
									<parameterid>right</parameterid>
									<value>0</value>
									<valuemin>0</valuemin>
									<valuemax>100</valuemax>
								</parameter>
								<parameter>
									<name>top</name>
									<parameterid>top</parameterid>
									<value>0</value>
									<valuemin>0</valuemin>
									<valuemax>100</valuemax>
								</parameter>
								<parameter>
									<name>bottom</name>
									<parameterid>bottom</parameterid>
									<value>0</value>
									<valuemin>0</valuemin>
									<valuemax>100</valuemax>
								</parameter>
							</effect>
						</filter>
						<filter>
							<enabled>TRUE</enabled>
							<start>0</start>
							<end>631.1680272108844</end>
							<effect>
								<name>Opacity</name>
								<effectid>opacity</effectid>
								<effecttype>motion</effecttype>
								<mediatype>video</mediatype>
								<effectcategory>motion</effectcategory>
								<parameter>
									<name>opacity</name>
									<parameterid>opacity</parameterid>
									<value>100</value>
									<valuemin>0</valuemin>
									<valuemax>100</valuemax>
								</parameter>
							</effect>
						</filter>
						<link>
							<linkclipref>ep6c1</linkclipref>
						</link>
						<link>
							<linkclipref>ep6c1-32a</linkclipref>
						</link>
					</clipitem>
					<clipitem id="ep6c1-33">
						<name>ep6c1cut</name>
						<file id="ep6c1">
							<duration>631.1680272108844</duration>
						</file>
						<rate>
							<timebase>60.0</timebase>
							<ntsc>FALSE</ntsc>
						</rate>
						<start>6267</start>
						<stop>6344</stop>
						<enabled>TRUE</enabled>
						<in>16467</in>
						<out>16545</out>
						<compositemode>normal</compositemode>
						<filter>
							<enabled>TRUE</enabled>
							<start>0</start>
							<end>631.1680272108844</end>
							<effect>
								<name>Basic Motion</name>
								<effectid>basic</effectid>
								<effecttype>motion</effecttype>
								<mediatype>video</mediatype>
								<effectcategory>motion</effectcategory>
								<parameter>
									<name>Scale</name>
									<parameterid>scale</parameterid>
									<value>100</value>
									<valuemin>0</valuemin>
									<valuemax>10000</valuemax>
								</parameter>
								<parameter>
									<name>Center</name>
									<parameterid>center</parameterid>
									<value>
										<horiz>0</horiz>
										<vert>0</vert>
									</value>
								</parameter>
								<parameter>
									<name>Rotation</name>
									<parameterid>rotation</parameterid>
									<value>0</value>
									<valuemin>-100000</valuemin>
									<valuemax>100000</valuemax>
								</parameter>
								<parameter>
									<name>Anchor Point</name>
									<parameterid>centerOffset</parameterid>
									<value>
										<horiz>0</horiz>
										<vert>0</vert>
									</value>
								</parameter>
							</effect>
						</filter>
						<filter>
							<enabled>TRUE</enabled>
							<start>0</start>
							<end>631.1680272108844</end>
							<effect>
								<name>Crop</name>
								<effectid>crop</effectid>
								<effecttype>motion</effecttype>
								<mediatype>video</mediatype>
								<effectcategory>motion</effectcategory>
								<parameter>
									<name>left</name>
									<parameterid>left</parameterid>
									<value>0</value>
									<valuemin>0</valuemin>
									<valuemax>100</valuemax>
								</parameter>
								<parameter>
									<name>right</name>
									<parameterid>right</parameterid>
									<value>0</value>
									<valuemin>0</valuemin>
									<valuemax>100</valuemax>
								</parameter>
								<parameter>
									<name>top</name>
									<parameterid>top</parameterid>
									<value>0</value>
									<valuemin>0</valuemin>
									<valuemax>100</valuemax>
								</parameter>
								<parameter>
									<name>bottom</name>
									<parameterid>bottom</parameterid>
									<value>0</value>
									<valuemin>0</valuemin>
									<valuemax>100</valuemax>
								</parameter>
							</effect>
						</filter>
						<filter>
							<enabled>TRUE</enabled>
							<start>0</start>
							<end>631.1680272108844</end>
							<effect>
								<name>Opacity</name>
								<effectid>opacity</effectid>
								<effecttype>motion</effecttype>
								<mediatype>video</mediatype>
								<effectcategory>motion</effectcategory>
								<parameter>
									<name>opacity</name>
									<parameterid>opacity</parameterid>
									<value>100</value>
									<valuemin>0</valuemin>
									<valuemax>100</valuemax>
								</parameter>
							</effect>
						</filter>
						<link>
							<linkclipref>ep6c1</linkclipref>
						</link>
						<link>
							<linkclipref>ep6c1-33a</linkclipref>
						</link>
					</clipitem>
					<clipitem id="ep6c1-34">
						<name>ep6c1cut</name>
						<file id="ep6c1">
							<duration>631.1680272108844</duration>
						</file>
						<rate>
							<timebase>60.0</timebase>
							<ntsc>FALSE</ntsc>
						</rate>
						<start>6344</start>
						<stop>6492</stop>
						<enabled>TRUE</enabled>
						<in>16586</in>
						<out>16735</out>
						<compositemode>normal</compositemode>
						<filter>
							<enabled>TRUE</enabled>
							<start>0</start>
							<end>631.1680272108844</end>
							<effect>
								<name>Basic Motion</name>
								<effectid>basic</effectid>
								<effecttype>motion</effecttype>
								<mediatype>video</mediatype>
								<effectcategory>motion</effectcategory>
								<parameter>
									<name>Scale</name>
									<parameterid>scale</parameterid>
									<value>100</value>
									<valuemin>0</valuemin>
									<valuemax>10000</valuemax>
								</parameter>
								<parameter>
									<name>Center</name>
									<parameterid>center</parameterid>
									<value>
										<horiz>0</horiz>
										<vert>0</vert>
									</value>
								</parameter>
								<parameter>
									<name>Rotation</name>
									<parameterid>rotation</parameterid>
									<value>0</value>
									<valuemin>-100000</valuemin>
									<valuemax>100000</valuemax>
								</parameter>
								<parameter>
									<name>Anchor Point</name>
									<parameterid>centerOffset</parameterid>
									<value>
										<horiz>0</horiz>
										<vert>0</vert>
									</value>
								</parameter>
							</effect>
						</filter>
						<filter>
							<enabled>TRUE</enabled>
							<start>0</start>
							<end>631.1680272108844</end>
							<effect>
								<name>Crop</name>
								<effectid>crop</effectid>
								<effecttype>motion</effecttype>
								<mediatype>video</mediatype>
								<effectcategory>motion</effectcategory>
								<parameter>
									<name>left</name>
									<parameterid>left</parameterid>
									<value>0</value>
									<valuemin>0</valuemin>
									<valuemax>100</valuemax>
								</parameter>
								<parameter>
									<name>right</name>
									<parameterid>right</parameterid>
									<value>0</value>
									<valuemin>0</valuemin>
									<valuemax>100</valuemax>
								</parameter>
								<parameter>
									<name>top</name>
									<parameterid>top</parameterid>
									<value>0</value>
									<valuemin>0</valuemin>
									<valuemax>100</valuemax>
								</parameter>
								<parameter>
									<name>bottom</name>
									<parameterid>bottom</parameterid>
									<value>0</value>
									<valuemin>0</valuemin>
									<valuemax>100</valuemax>
								</parameter>
							</effect>
						</filter>
						<filter>
							<enabled>TRUE</enabled>
							<start>0</start>
							<end>631.1680272108844</end>
							<effect>
								<name>Opacity</name>
								<effectid>opacity</effectid>
								<effecttype>motion</effecttype>
								<mediatype>video</mediatype>
								<effectcategory>motion</effectcategory>
								<parameter>
									<name>opacity</name>
									<parameterid>opacity</parameterid>
									<value>100</value>
									<valuemin>0</valuemin>
									<valuemax>100</valuemax>
								</parameter>
							</effect>
						</filter>
						<link>
							<linkclipref>ep6c1</linkclipref>
						</link>
						<link>
							<linkclipref>ep6c1-34a</linkclipref>
						</link>
					</clipitem>
					<clipitem id="ep6c1-35">
						<name>ep6c1cut</name>
						<file id="ep6c1">
							<duration>631.1680272108844</duration>
						</file>
						<rate>
							<timebase>60.0</timebase>
							<ntsc>FALSE</ntsc>
						</rate>
						<start>6492</start>
						<stop>6672</stop>
						<enabled>TRUE</enabled>
						<in>16871</in>
						<out>17051</out>
						<compositemode>normal</compositemode>
						<filter>
							<enabled>TRUE</enabled>
							<start>0</start>
							<end>631.1680272108844</end>
							<effect>
								<name>Basic Motion</name>
								<effectid>basic</effectid>
								<effecttype>motion</effecttype>
								<mediatype>video</mediatype>
								<effectcategory>motion</effectcategory>
								<parameter>
									<name>Scale</name>
									<parameterid>scale</parameterid>
									<value>100</value>
									<valuemin>0</valuemin>
									<valuemax>10000</valuemax>
								</parameter>
								<parameter>
									<name>Center</name>
									<parameterid>center</parameterid>
									<value>
										<horiz>0</horiz>
										<vert>0</vert>
									</value>
								</parameter>
								<parameter>
									<name>Rotation</name>
									<parameterid>rotation</parameterid>
									<value>0</value>
									<valuemin>-100000</valuemin>
									<valuemax>100000</valuemax>
								</parameter>
								<parameter>
									<name>Anchor Point</name>
									<parameterid>centerOffset</parameterid>
									<value>
										<horiz>0</horiz>
										<vert>0</vert>
									</value>
								</parameter>
							</effect>
						</filter>
						<filter>
							<enabled>TRUE</enabled>
							<start>0</start>
							<end>631.1680272108844</end>
							<effect>
								<name>Crop</name>
								<effectid>crop</effectid>
								<effecttype>motion</effecttype>
								<mediatype>video</mediatype>
								<effectcategory>motion</effectcategory>
								<parameter>
									<name>left</name>
									<parameterid>left</parameterid>
									<value>0</value>
									<valuemin>0</valuemin>
									<valuemax>100</valuemax>
								</parameter>
								<parameter>
									<name>right</name>
									<parameterid>right</parameterid>
									<value>0</value>
									<valuemin>0</valuemin>
									<valuemax>100</valuemax>
								</parameter>
								<parameter>
									<name>top</name>
									<parameterid>top</parameterid>
									<value>0</value>
									<valuemin>0</valuemin>
									<valuemax>100</valuemax>
								</parameter>
								<parameter>
									<name>bottom</name>
									<parameterid>bottom</parameterid>
									<value>0</value>
									<valuemin>0</valuemin>
									<valuemax>100</valuemax>
								</parameter>
							</effect>
						</filter>
						<filter>
							<enabled>TRUE</enabled>
							<start>0</start>
							<end>631.1680272108844</end>
							<effect>
								<name>Opacity</name>
								<effectid>opacity</effectid>
								<effecttype>motion</effecttype>
								<mediatype>video</mediatype>
								<effectcategory>motion</effectcategory>
								<parameter>
									<name>opacity</name>
									<parameterid>opacity</parameterid>
									<value>100</value>
									<valuemin>0</valuemin>
									<valuemax>100</valuemax>
								</parameter>
							</effect>
						</filter>
						<link>
							<linkclipref>ep6c1</linkclipref>
						</link>
						<link>
							<linkclipref>ep6c1-35a</linkclipref>
						</link>
					</clipitem>
					<clipitem id="ep6c1-36">
						<name>ep6c1cut</name>
						<file id="ep6c1">
							<duration>631.1680272108844</duration>
						</file>
						<rate>
							<timebase>60.0</timebase>
							<ntsc>FALSE</ntsc>
						</rate>
						<start>6672</start>
						<stop>6869</stop>
						<enabled>TRUE</enabled>
						<in>17079</in>
						<out>17276</out>
						<compositemode>normal</compositemode>
						<filter>
							<enabled>TRUE</enabled>
							<start>0</start>
							<end>631.1680272108844</end>
							<effect>
								<name>Basic Motion</name>
								<effectid>basic</effectid>
								<effecttype>motion</effecttype>
								<mediatype>video</mediatype>
								<effectcategory>motion</effectcategory>
								<parameter>
									<name>Scale</name>
									<parameterid>scale</parameterid>
									<value>100</value>
									<valuemin>0</valuemin>
									<valuemax>10000</valuemax>
								</parameter>
								<parameter>
									<name>Center</name>
									<parameterid>center</parameterid>
									<value>
										<horiz>0</horiz>
										<vert>0</vert>
									</value>
								</parameter>
								<parameter>
									<name>Rotation</name>
									<parameterid>rotation</parameterid>
									<value>0</value>
									<valuemin>-100000</valuemin>
									<valuemax>100000</valuemax>
								</parameter>
								<parameter>
									<name>Anchor Point</name>
									<parameterid>centerOffset</parameterid>
									<value>
										<horiz>0</horiz>
										<vert>0</vert>
									</value>
								</parameter>
							</effect>
						</filter>
						<filter>
							<enabled>TRUE</enabled>
							<start>0</start>
							<end>631.1680272108844</end>
							<effect>
								<name>Crop</name>
								<effectid>crop</effectid>
								<effecttype>motion</effecttype>
								<mediatype>video</mediatype>
								<effectcategory>motion</effectcategory>
								<parameter>
									<name>left</name>
									<parameterid>left</parameterid>
									<value>0</value>
									<valuemin>0</valuemin>
									<valuemax>100</valuemax>
								</parameter>
								<parameter>
									<name>right</name>
									<parameterid>right</parameterid>
									<value>0</value>
									<valuemin>0</valuemin>
									<valuemax>100</valuemax>
								</parameter>
								<parameter>
									<name>top</name>
									<parameterid>top</parameterid>
									<value>0</value>
									<valuemin>0</valuemin>
									<valuemax>100</valuemax>
								</parameter>
								<parameter>
									<name>bottom</name>
									<parameterid>bottom</parameterid>
									<value>0</value>
									<valuemin>0</valuemin>
									<valuemax>100</valuemax>
								</parameter>
							</effect>
						</filter>
						<filter>
							<enabled>TRUE</enabled>
							<start>0</start>
							<end>631.1680272108844</end>
							<effect>
								<name>Opacity</name>
								<effectid>opacity</effectid>
								<effecttype>motion</effecttype>
								<mediatype>video</mediatype>
								<effectcategory>motion</effectcategory>
								<parameter>
									<name>opacity</name>
									<parameterid>opacity</parameterid>
									<value>100</value>
									<valuemin>0</valuemin>
									<valuemax>100</valuemax>
								</parameter>
							</effect>
						</filter>
						<link>
							<linkclipref>ep6c1</linkclipref>
						</link>
						<link>
							<linkclipref>ep6c1-36a</linkclipref>
						</link>
					</clipitem>
					<clipitem id="ep6c1-37">
						<name>ep6c1cut</name>
						<file id="ep6c1">
							<duration>631.1680272108844</duration>
						</file>
						<rate>
							<timebase>60.0</timebase>
							<ntsc>FALSE</ntsc>
						</rate>
						<start>6869</start>
						<stop>6957</stop>
						<enabled>TRUE</enabled>
						<in>17305</in>
						<out>17394</out>
						<compositemode>normal</compositemode>
						<filter>
							<enabled>TRUE</enabled>
							<start>0</start>
							<end>631.1680272108844</end>
							<effect>
								<name>Basic Motion</name>
								<effectid>basic</effectid>
								<effecttype>motion</effecttype>
								<mediatype>video</mediatype>
								<effectcategory>motion</effectcategory>
								<parameter>
									<name>Scale</name>
									<parameterid>scale</parameterid>
									<value>100</value>
									<valuemin>0</valuemin>
									<valuemax>10000</valuemax>
								</parameter>
								<parameter>
									<name>Center</name>
									<parameterid>center</parameterid>
									<value>
										<horiz>0</horiz>
										<vert>0</vert>
									</value>
								</parameter>
								<parameter>
									<name>Rotation</name>
									<parameterid>rotation</parameterid>
									<value>0</value>
									<valuemin>-100000</valuemin>
									<valuemax>100000</valuemax>
								</parameter>
								<parameter>
									<name>Anchor Point</name>
									<parameterid>centerOffset</parameterid>
									<value>
										<horiz>0</horiz>
										<vert>0</vert>
									</value>
								</parameter>
							</effect>
						</filter>
						<filter>
							<enabled>TRUE</enabled>
							<start>0</start>
							<end>631.1680272108844</end>
							<effect>
								<name>Crop</name>
								<effectid>crop</effectid>
								<effecttype>motion</effecttype>
								<mediatype>video</mediatype>
								<effectcategory>motion</effectcategory>
								<parameter>
									<name>left</name>
									<parameterid>left</parameterid>
									<value>0</value>
									<valuemin>0</valuemin>
									<valuemax>100</valuemax>
								</parameter>
								<parameter>
									<name>right</name>
									<parameterid>right</parameterid>
									<value>0</value>
									<valuemin>0</valuemin>
									<valuemax>100</valuemax>
								</parameter>
								<parameter>
									<name>top</name>
									<parameterid>top</parameterid>
									<value>0</value>
									<valuemin>0</valuemin>
									<valuemax>100</valuemax>
								</parameter>
								<parameter>
									<name>bottom</name>
									<parameterid>bottom</parameterid>
									<value>0</value>
									<valuemin>0</valuemin>
									<valuemax>100</valuemax>
								</parameter>
							</effect>
						</filter>
						<filter>
							<enabled>TRUE</enabled>
							<start>0</start>
							<end>631.1680272108844</end>
							<effect>
								<name>Opacity</name>
								<effectid>opacity</effectid>
								<effecttype>motion</effecttype>
								<mediatype>video</mediatype>
								<effectcategory>motion</effectcategory>
								<parameter>
									<name>opacity</name>
									<parameterid>opacity</parameterid>
									<value>100</value>
									<valuemin>0</valuemin>
									<valuemax>100</valuemax>
								</parameter>
							</effect>
						</filter>
						<link>
							<linkclipref>ep6c1</linkclipref>
						</link>
						<link>
							<linkclipref>ep6c1-37a</linkclipref>
						</link>
					</clipitem>
					<clipitem id="ep6c1-38">
						<name>ep6c1cut</name>
						<file id="ep6c1">
							<duration>631.1680272108844</duration>
						</file>
						<rate>
							<timebase>60.0</timebase>
							<ntsc>FALSE</ntsc>
						</rate>
						<start>6957</start>
						<stop>7028</stop>
						<enabled>TRUE</enabled>
						<in>17493</in>
						<out>17564</out>
						<compositemode>normal</compositemode>
						<filter>
							<enabled>TRUE</enabled>
							<start>0</start>
							<end>631.1680272108844</end>
							<effect>
								<name>Basic Motion</name>
								<effectid>basic</effectid>
								<effecttype>motion</effecttype>
								<mediatype>video</mediatype>
								<effectcategory>motion</effectcategory>
								<parameter>
									<name>Scale</name>
									<parameterid>scale</parameterid>
									<value>100</value>
									<valuemin>0</valuemin>
									<valuemax>10000</valuemax>
								</parameter>
								<parameter>
									<name>Center</name>
									<parameterid>center</parameterid>
									<value>
										<horiz>0</horiz>
										<vert>0</vert>
									</value>
								</parameter>
								<parameter>
									<name>Rotation</name>
									<parameterid>rotation</parameterid>
									<value>0</value>
									<valuemin>-100000</valuemin>
									<valuemax>100000</valuemax>
								</parameter>
								<parameter>
									<name>Anchor Point</name>
									<parameterid>centerOffset</parameterid>
									<value>
										<horiz>0</horiz>
										<vert>0</vert>
									</value>
								</parameter>
							</effect>
						</filter>
						<filter>
							<enabled>TRUE</enabled>
							<start>0</start>
							<end>631.1680272108844</end>
							<effect>
								<name>Crop</name>
								<effectid>crop</effectid>
								<effecttype>motion</effecttype>
								<mediatype>video</mediatype>
								<effectcategory>motion</effectcategory>
								<parameter>
									<name>left</name>
									<parameterid>left</parameterid>
									<value>0</value>
									<valuemin>0</valuemin>
									<valuemax>100</valuemax>
								</parameter>
								<parameter>
									<name>right</name>
									<parameterid>right</parameterid>
									<value>0</value>
									<valuemin>0</valuemin>
									<valuemax>100</valuemax>
								</parameter>
								<parameter>
									<name>top</name>
									<parameterid>top</parameterid>
									<value>0</value>
									<valuemin>0</valuemin>
									<valuemax>100</valuemax>
								</parameter>
								<parameter>
									<name>bottom</name>
									<parameterid>bottom</parameterid>
									<value>0</value>
									<valuemin>0</valuemin>
									<valuemax>100</valuemax>
								</parameter>
							</effect>
						</filter>
						<filter>
							<enabled>TRUE</enabled>
							<start>0</start>
							<end>631.1680272108844</end>
							<effect>
								<name>Opacity</name>
								<effectid>opacity</effectid>
								<effecttype>motion</effecttype>
								<mediatype>video</mediatype>
								<effectcategory>motion</effectcategory>
								<parameter>
									<name>opacity</name>
									<parameterid>opacity</parameterid>
									<value>100</value>
									<valuemin>0</valuemin>
									<valuemax>100</valuemax>
								</parameter>
							</effect>
						</filter>
						<link>
							<linkclipref>ep6c1</linkclipref>
						</link>
						<link>
							<linkclipref>ep6c1-38a</linkclipref>
						</link>
					</clipitem>
					<clipitem id="ep6c1-39">
						<name>ep6c1cut</name>
						<file id="ep6c1">
							<duration>631.1680272108844</duration>
						</file>
						<rate>
							<timebase>60.0</timebase>
							<ntsc>FALSE</ntsc>
						</rate>
						<start>7028</start>
						<stop>7098</stop>
						<enabled>TRUE</enabled>
						<in>17650</in>
						<out>17720</out>
						<compositemode>normal</compositemode>
						<filter>
							<enabled>TRUE</enabled>
							<start>0</start>
							<end>631.1680272108844</end>
							<effect>
								<name>Basic Motion</name>
								<effectid>basic</effectid>
								<effecttype>motion</effecttype>
								<mediatype>video</mediatype>
								<effectcategory>motion</effectcategory>
								<parameter>
									<name>Scale</name>
									<parameterid>scale</parameterid>
									<value>100</value>
									<valuemin>0</valuemin>
									<valuemax>10000</valuemax>
								</parameter>
								<parameter>
									<name>Center</name>
									<parameterid>center</parameterid>
									<value>
										<horiz>0</horiz>
										<vert>0</vert>
									</value>
								</parameter>
								<parameter>
									<name>Rotation</name>
									<parameterid>rotation</parameterid>
									<value>0</value>
									<valuemin>-100000</valuemin>
									<valuemax>100000</valuemax>
								</parameter>
								<parameter>
									<name>Anchor Point</name>
									<parameterid>centerOffset</parameterid>
									<value>
										<horiz>0</horiz>
										<vert>0</vert>
									</value>
								</parameter>
							</effect>
						</filter>
						<filter>
							<enabled>TRUE</enabled>
							<start>0</start>
							<end>631.1680272108844</end>
							<effect>
								<name>Crop</name>
								<effectid>crop</effectid>
								<effecttype>motion</effecttype>
								<mediatype>video</mediatype>
								<effectcategory>motion</effectcategory>
								<parameter>
									<name>left</name>
									<parameterid>left</parameterid>
									<value>0</value>
									<valuemin>0</valuemin>
									<valuemax>100</valuemax>
								</parameter>
								<parameter>
									<name>right</name>
									<parameterid>right</parameterid>
									<value>0</value>
									<valuemin>0</valuemin>
									<valuemax>100</valuemax>
								</parameter>
								<parameter>
									<name>top</name>
									<parameterid>top</parameterid>
									<value>0</value>
									<valuemin>0</valuemin>
									<valuemax>100</valuemax>
								</parameter>
								<parameter>
									<name>bottom</name>
									<parameterid>bottom</parameterid>
									<value>0</value>
									<valuemin>0</valuemin>
									<valuemax>100</valuemax>
								</parameter>
							</effect>
						</filter>
						<filter>
							<enabled>TRUE</enabled>
							<start>0</start>
							<end>631.1680272108844</end>
							<effect>
								<name>Opacity</name>
								<effectid>opacity</effectid>
								<effecttype>motion</effecttype>
								<mediatype>video</mediatype>
								<effectcategory>motion</effectcategory>
								<parameter>
									<name>opacity</name>
									<parameterid>opacity</parameterid>
									<value>100</value>
									<valuemin>0</valuemin>
									<valuemax>100</valuemax>
								</parameter>
							</effect>
						</filter>
						<link>
							<linkclipref>ep6c1</linkclipref>
						</link>
						<link>
							<linkclipref>ep6c1-39a</linkclipref>
						</link>
					</clipitem>
					<clipitem id="ep6c1-40">
						<name>ep6c1cut</name>
						<file id="ep6c1">
							<duration>631.1680272108844</duration>
						</file>
						<rate>
							<timebase>60.0</timebase>
							<ntsc>FALSE</ntsc>
						</rate>
						<start>7098</start>
						<stop>7203</stop>
						<enabled>TRUE</enabled>
						<in>17823</in>
						<out>17928</out>
						<compositemode>normal</compositemode>
						<filter>
							<enabled>TRUE</enabled>
							<start>0</start>
							<end>631.1680272108844</end>
							<effect>
								<name>Basic Motion</name>
								<effectid>basic</effectid>
								<effecttype>motion</effecttype>
								<mediatype>video</mediatype>
								<effectcategory>motion</effectcategory>
								<parameter>
									<name>Scale</name>
									<parameterid>scale</parameterid>
									<value>100</value>
									<valuemin>0</valuemin>
									<valuemax>10000</valuemax>
								</parameter>
								<parameter>
									<name>Center</name>
									<parameterid>center</parameterid>
									<value>
										<horiz>0</horiz>
										<vert>0</vert>
									</value>
								</parameter>
								<parameter>
									<name>Rotation</name>
									<parameterid>rotation</parameterid>
									<value>0</value>
									<valuemin>-100000</valuemin>
									<valuemax>100000</valuemax>
								</parameter>
								<parameter>
									<name>Anchor Point</name>
									<parameterid>centerOffset</parameterid>
									<value>
										<horiz>0</horiz>
										<vert>0</vert>
									</value>
								</parameter>
							</effect>
						</filter>
						<filter>
							<enabled>TRUE</enabled>
							<start>0</start>
							<end>631.1680272108844</end>
							<effect>
								<name>Crop</name>
								<effectid>crop</effectid>
								<effecttype>motion</effecttype>
								<mediatype>video</mediatype>
								<effectcategory>motion</effectcategory>
								<parameter>
									<name>left</name>
									<parameterid>left</parameterid>
									<value>0</value>
									<valuemin>0</valuemin>
									<valuemax>100</valuemax>
								</parameter>
								<parameter>
									<name>right</name>
									<parameterid>right</parameterid>
									<value>0</value>
									<valuemin>0</valuemin>
									<valuemax>100</valuemax>
								</parameter>
								<parameter>
									<name>top</name>
									<parameterid>top</parameterid>
									<value>0</value>
									<valuemin>0</valuemin>
									<valuemax>100</valuemax>
								</parameter>
								<parameter>
									<name>bottom</name>
									<parameterid>bottom</parameterid>
									<value>0</value>
									<valuemin>0</valuemin>
									<valuemax>100</valuemax>
								</parameter>
							</effect>
						</filter>
						<filter>
							<enabled>TRUE</enabled>
							<start>0</start>
							<end>631.1680272108844</end>
							<effect>
								<name>Opacity</name>
								<effectid>opacity</effectid>
								<effecttype>motion</effecttype>
								<mediatype>video</mediatype>
								<effectcategory>motion</effectcategory>
								<parameter>
									<name>opacity</name>
									<parameterid>opacity</parameterid>
									<value>100</value>
									<valuemin>0</valuemin>
									<valuemax>100</valuemax>
								</parameter>
							</effect>
						</filter>
						<link>
							<linkclipref>ep6c1</linkclipref>
						</link>
						<link>
							<linkclipref>ep6c1-40a</linkclipref>
						</link>
					</clipitem>
					<clipitem id="ep6c1-41">
						<name>ep6c1cut</name>
						<file id="ep6c1">
							<duration>631.1680272108844</duration>
						</file>
						<rate>
							<timebase>60.0</timebase>
							<ntsc>FALSE</ntsc>
						</rate>
						<start>7203</start>
						<stop>7330</stop>
						<enabled>TRUE</enabled>
						<in>17948</in>
						<out>18075</out>
						<compositemode>normal</compositemode>
						<filter>
							<enabled>TRUE</enabled>
							<start>0</start>
							<end>631.1680272108844</end>
							<effect>
								<name>Basic Motion</name>
								<effectid>basic</effectid>
								<effecttype>motion</effecttype>
								<mediatype>video</mediatype>
								<effectcategory>motion</effectcategory>
								<parameter>
									<name>Scale</name>
									<parameterid>scale</parameterid>
									<value>100</value>
									<valuemin>0</valuemin>
									<valuemax>10000</valuemax>
								</parameter>
								<parameter>
									<name>Center</name>
									<parameterid>center</parameterid>
									<value>
										<horiz>0</horiz>
										<vert>0</vert>
									</value>
								</parameter>
								<parameter>
									<name>Rotation</name>
									<parameterid>rotation</parameterid>
									<value>0</value>
									<valuemin>-100000</valuemin>
									<valuemax>100000</valuemax>
								</parameter>
								<parameter>
									<name>Anchor Point</name>
									<parameterid>centerOffset</parameterid>
									<value>
										<horiz>0</horiz>
										<vert>0</vert>
									</value>
								</parameter>
							</effect>
						</filter>
						<filter>
							<enabled>TRUE</enabled>
							<start>0</start>
							<end>631.1680272108844</end>
							<effect>
								<name>Crop</name>
								<effectid>crop</effectid>
								<effecttype>motion</effecttype>
								<mediatype>video</mediatype>
								<effectcategory>motion</effectcategory>
								<parameter>
									<name>left</name>
									<parameterid>left</parameterid>
									<value>0</value>
									<valuemin>0</valuemin>
									<valuemax>100</valuemax>
								</parameter>
								<parameter>
									<name>right</name>
									<parameterid>right</parameterid>
									<value>0</value>
									<valuemin>0</valuemin>
									<valuemax>100</valuemax>
								</parameter>
								<parameter>
									<name>top</name>
									<parameterid>top</parameterid>
									<value>0</value>
									<valuemin>0</valuemin>
									<valuemax>100</valuemax>
								</parameter>
								<parameter>
									<name>bottom</name>
									<parameterid>bottom</parameterid>
									<value>0</value>
									<valuemin>0</valuemin>
									<valuemax>100</valuemax>
								</parameter>
							</effect>
						</filter>
						<filter>
							<enabled>TRUE</enabled>
							<start>0</start>
							<end>631.1680272108844</end>
							<effect>
								<name>Opacity</name>
								<effectid>opacity</effectid>
								<effecttype>motion</effecttype>
								<mediatype>video</mediatype>
								<effectcategory>motion</effectcategory>
								<parameter>
									<name>opacity</name>
									<parameterid>opacity</parameterid>
									<value>100</value>
									<valuemin>0</valuemin>
									<valuemax>100</valuemax>
								</parameter>
							</effect>
						</filter>
						<link>
							<linkclipref>ep6c1</linkclipref>
						</link>
						<link>
							<linkclipref>ep6c1-41a</linkclipref>
						</link>
					</clipitem>
					<clipitem id="ep6c1-42">
						<name>ep6c1cut</name>
						<file id="ep6c1">
							<duration>631.1680272108844</duration>
						</file>
						<rate>
							<timebase>60.0</timebase>
							<ntsc>FALSE</ntsc>
						</rate>
						<start>7330</start>
						<stop>7397</stop>
						<enabled>TRUE</enabled>
						<in>18510</in>
						<out>18578</out>
						<compositemode>normal</compositemode>
						<filter>
							<enabled>TRUE</enabled>
							<start>0</start>
							<end>631.1680272108844</end>
							<effect>
								<name>Basic Motion</name>
								<effectid>basic</effectid>
								<effecttype>motion</effecttype>
								<mediatype>video</mediatype>
								<effectcategory>motion</effectcategory>
								<parameter>
									<name>Scale</name>
									<parameterid>scale</parameterid>
									<value>100</value>
									<valuemin>0</valuemin>
									<valuemax>10000</valuemax>
								</parameter>
								<parameter>
									<name>Center</name>
									<parameterid>center</parameterid>
									<value>
										<horiz>0</horiz>
										<vert>0</vert>
									</value>
								</parameter>
								<parameter>
									<name>Rotation</name>
									<parameterid>rotation</parameterid>
									<value>0</value>
									<valuemin>-100000</valuemin>
									<valuemax>100000</valuemax>
								</parameter>
								<parameter>
									<name>Anchor Point</name>
									<parameterid>centerOffset</parameterid>
									<value>
										<horiz>0</horiz>
										<vert>0</vert>
									</value>
								</parameter>
							</effect>
						</filter>
						<filter>
							<enabled>TRUE</enabled>
							<start>0</start>
							<end>631.1680272108844</end>
							<effect>
								<name>Crop</name>
								<effectid>crop</effectid>
								<effecttype>motion</effecttype>
								<mediatype>video</mediatype>
								<effectcategory>motion</effectcategory>
								<parameter>
									<name>left</name>
									<parameterid>left</parameterid>
									<value>0</value>
									<valuemin>0</valuemin>
									<valuemax>100</valuemax>
								</parameter>
								<parameter>
									<name>right</name>
									<parameterid>right</parameterid>
									<value>0</value>
									<valuemin>0</valuemin>
									<valuemax>100</valuemax>
								</parameter>
								<parameter>
									<name>top</name>
									<parameterid>top</parameterid>
									<value>0</value>
									<valuemin>0</valuemin>
									<valuemax>100</valuemax>
								</parameter>
								<parameter>
									<name>bottom</name>
									<parameterid>bottom</parameterid>
									<value>0</value>
									<valuemin>0</valuemin>
									<valuemax>100</valuemax>
								</parameter>
							</effect>
						</filter>
						<filter>
							<enabled>TRUE</enabled>
							<start>0</start>
							<end>631.1680272108844</end>
							<effect>
								<name>Opacity</name>
								<effectid>opacity</effectid>
								<effecttype>motion</effecttype>
								<mediatype>video</mediatype>
								<effectcategory>motion</effectcategory>
								<parameter>
									<name>opacity</name>
									<parameterid>opacity</parameterid>
									<value>100</value>
									<valuemin>0</valuemin>
									<valuemax>100</valuemax>
								</parameter>
							</effect>
						</filter>
						<link>
							<linkclipref>ep6c1</linkclipref>
						</link>
						<link>
							<linkclipref>ep6c1-42a</linkclipref>
						</link>
					</clipitem>
					<clipitem id="ep6c1-43">
						<name>ep6c1cut</name>
						<file id="ep6c1">
							<duration>631.1680272108844</duration>
						</file>
						<rate>
							<timebase>60.0</timebase>
							<ntsc>FALSE</ntsc>
						</rate>
						<start>7397</start>
						<stop>7465</stop>
						<enabled>TRUE</enabled>
						<in>18680</in>
						<out>18748</out>
						<compositemode>normal</compositemode>
						<filter>
							<enabled>TRUE</enabled>
							<start>0</start>
							<end>631.1680272108844</end>
							<effect>
								<name>Basic Motion</name>
								<effectid>basic</effectid>
								<effecttype>motion</effecttype>
								<mediatype>video</mediatype>
								<effectcategory>motion</effectcategory>
								<parameter>
									<name>Scale</name>
									<parameterid>scale</parameterid>
									<value>100</value>
									<valuemin>0</valuemin>
									<valuemax>10000</valuemax>
								</parameter>
								<parameter>
									<name>Center</name>
									<parameterid>center</parameterid>
									<value>
										<horiz>0</horiz>
										<vert>0</vert>
									</value>
								</parameter>
								<parameter>
									<name>Rotation</name>
									<parameterid>rotation</parameterid>
									<value>0</value>
									<valuemin>-100000</valuemin>
									<valuemax>100000</valuemax>
								</parameter>
								<parameter>
									<name>Anchor Point</name>
									<parameterid>centerOffset</parameterid>
									<value>
										<horiz>0</horiz>
										<vert>0</vert>
									</value>
								</parameter>
							</effect>
						</filter>
						<filter>
							<enabled>TRUE</enabled>
							<start>0</start>
							<end>631.1680272108844</end>
							<effect>
								<name>Crop</name>
								<effectid>crop</effectid>
								<effecttype>motion</effecttype>
								<mediatype>video</mediatype>
								<effectcategory>motion</effectcategory>
								<parameter>
									<name>left</name>
									<parameterid>left</parameterid>
									<value>0</value>
									<valuemin>0</valuemin>
									<valuemax>100</valuemax>
								</parameter>
								<parameter>
									<name>right</name>
									<parameterid>right</parameterid>
									<value>0</value>
									<valuemin>0</valuemin>
									<valuemax>100</valuemax>
								</parameter>
								<parameter>
									<name>top</name>
									<parameterid>top</parameterid>
									<value>0</value>
									<valuemin>0</valuemin>
									<valuemax>100</valuemax>
								</parameter>
								<parameter>
									<name>bottom</name>
									<parameterid>bottom</parameterid>
									<value>0</value>
									<valuemin>0</valuemin>
									<valuemax>100</valuemax>
								</parameter>
							</effect>
						</filter>
						<filter>
							<enabled>TRUE</enabled>
							<start>0</start>
							<end>631.1680272108844</end>
							<effect>
								<name>Opacity</name>
								<effectid>opacity</effectid>
								<effecttype>motion</effecttype>
								<mediatype>video</mediatype>
								<effectcategory>motion</effectcategory>
								<parameter>
									<name>opacity</name>
									<parameterid>opacity</parameterid>
									<value>100</value>
									<valuemin>0</valuemin>
									<valuemax>100</valuemax>
								</parameter>
							</effect>
						</filter>
						<link>
							<linkclipref>ep6c1</linkclipref>
						</link>
						<link>
							<linkclipref>ep6c1-43a</linkclipref>
						</link>
					</clipitem>
					<clipitem id="ep6c1-44">
						<name>ep6c1cut</name>
						<file id="ep6c1">
							<duration>631.1680272108844</duration>
						</file>
						<rate>
							<timebase>60.0</timebase>
							<ntsc>FALSE</ntsc>
						</rate>
						<start>7465</start>
						<stop>7527</stop>
						<enabled>TRUE</enabled>
						<in>18764</in>
						<out>18826</out>
						<compositemode>normal</compositemode>
						<filter>
							<enabled>TRUE</enabled>
							<start>0</start>
							<end>631.1680272108844</end>
							<effect>
								<name>Basic Motion</name>
								<effectid>basic</effectid>
								<effecttype>motion</effecttype>
								<mediatype>video</mediatype>
								<effectcategory>motion</effectcategory>
								<parameter>
									<name>Scale</name>
									<parameterid>scale</parameterid>
									<value>100</value>
									<valuemin>0</valuemin>
									<valuemax>10000</valuemax>
								</parameter>
								<parameter>
									<name>Center</name>
									<parameterid>center</parameterid>
									<value>
										<horiz>0</horiz>
										<vert>0</vert>
									</value>
								</parameter>
								<parameter>
									<name>Rotation</name>
									<parameterid>rotation</parameterid>
									<value>0</value>
									<valuemin>-100000</valuemin>
									<valuemax>100000</valuemax>
								</parameter>
								<parameter>
									<name>Anchor Point</name>
									<parameterid>centerOffset</parameterid>
									<value>
										<horiz>0</horiz>
										<vert>0</vert>
									</value>
								</parameter>
							</effect>
						</filter>
						<filter>
							<enabled>TRUE</enabled>
							<start>0</start>
							<end>631.1680272108844</end>
							<effect>
								<name>Crop</name>
								<effectid>crop</effectid>
								<effecttype>motion</effecttype>
								<mediatype>video</mediatype>
								<effectcategory>motion</effectcategory>
								<parameter>
									<name>left</name>
									<parameterid>left</parameterid>
									<value>0</value>
									<valuemin>0</valuemin>
									<valuemax>100</valuemax>
								</parameter>
								<parameter>
									<name>right</name>
									<parameterid>right</parameterid>
									<value>0</value>
									<valuemin>0</valuemin>
									<valuemax>100</valuemax>
								</parameter>
								<parameter>
									<name>top</name>
									<parameterid>top</parameterid>
									<value>0</value>
									<valuemin>0</valuemin>
									<valuemax>100</valuemax>
								</parameter>
								<parameter>
									<name>bottom</name>
									<parameterid>bottom</parameterid>
									<value>0</value>
									<valuemin>0</valuemin>
									<valuemax>100</valuemax>
								</parameter>
							</effect>
						</filter>
						<filter>
							<enabled>TRUE</enabled>
							<start>0</start>
							<end>631.1680272108844</end>
							<effect>
								<name>Opacity</name>
								<effectid>opacity</effectid>
								<effecttype>motion</effecttype>
								<mediatype>video</mediatype>
								<effectcategory>motion</effectcategory>
								<parameter>
									<name>opacity</name>
									<parameterid>opacity</parameterid>
									<value>100</value>
									<valuemin>0</valuemin>
									<valuemax>100</valuemax>
								</parameter>
							</effect>
						</filter>
						<link>
							<linkclipref>ep6c1</linkclipref>
						</link>
						<link>
							<linkclipref>ep6c1-44a</linkclipref>
						</link>
					</clipitem>
					<clipitem id="ep6c1-45">
						<name>ep6c1cut</name>
						<file id="ep6c1">
							<duration>631.1680272108844</duration>
						</file>
						<rate>
							<timebase>60.0</timebase>
							<ntsc>FALSE</ntsc>
						</rate>
						<start>7527</start>
						<stop>7647</stop>
						<enabled>TRUE</enabled>
						<in>18852</in>
						<out>18972</out>
						<compositemode>normal</compositemode>
						<filter>
							<enabled>TRUE</enabled>
							<start>0</start>
							<end>631.1680272108844</end>
							<effect>
								<name>Basic Motion</name>
								<effectid>basic</effectid>
								<effecttype>motion</effecttype>
								<mediatype>video</mediatype>
								<effectcategory>motion</effectcategory>
								<parameter>
									<name>Scale</name>
									<parameterid>scale</parameterid>
									<value>100</value>
									<valuemin>0</valuemin>
									<valuemax>10000</valuemax>
								</parameter>
								<parameter>
									<name>Center</name>
									<parameterid>center</parameterid>
									<value>
										<horiz>0</horiz>
										<vert>0</vert>
									</value>
								</parameter>
								<parameter>
									<name>Rotation</name>
									<parameterid>rotation</parameterid>
									<value>0</value>
									<valuemin>-100000</valuemin>
									<valuemax>100000</valuemax>
								</parameter>
								<parameter>
									<name>Anchor Point</name>
									<parameterid>centerOffset</parameterid>
									<value>
										<horiz>0</horiz>
										<vert>0</vert>
									</value>
								</parameter>
							</effect>
						</filter>
						<filter>
							<enabled>TRUE</enabled>
							<start>0</start>
							<end>631.1680272108844</end>
							<effect>
								<name>Crop</name>
								<effectid>crop</effectid>
								<effecttype>motion</effecttype>
								<mediatype>video</mediatype>
								<effectcategory>motion</effectcategory>
								<parameter>
									<name>left</name>
									<parameterid>left</parameterid>
									<value>0</value>
									<valuemin>0</valuemin>
									<valuemax>100</valuemax>
								</parameter>
								<parameter>
									<name>right</name>
									<parameterid>right</parameterid>
									<value>0</value>
									<valuemin>0</valuemin>
									<valuemax>100</valuemax>
								</parameter>
								<parameter>
									<name>top</name>
									<parameterid>top</parameterid>
									<value>0</value>
									<valuemin>0</valuemin>
									<valuemax>100</valuemax>
								</parameter>
								<parameter>
									<name>bottom</name>
									<parameterid>bottom</parameterid>
									<value>0</value>
									<valuemin>0</valuemin>
									<valuemax>100</valuemax>
								</parameter>
							</effect>
						</filter>
						<filter>
							<enabled>TRUE</enabled>
							<start>0</start>
							<end>631.1680272108844</end>
							<effect>
								<name>Opacity</name>
								<effectid>opacity</effectid>
								<effecttype>motion</effecttype>
								<mediatype>video</mediatype>
								<effectcategory>motion</effectcategory>
								<parameter>
									<name>opacity</name>
									<parameterid>opacity</parameterid>
									<value>100</value>
									<valuemin>0</valuemin>
									<valuemax>100</valuemax>
								</parameter>
							</effect>
						</filter>
						<link>
							<linkclipref>ep6c1</linkclipref>
						</link>
						<link>
							<linkclipref>ep6c1-45a</linkclipref>
						</link>
					</clipitem>
					<clipitem id="ep6c1-46">
						<name>ep6c1cut</name>
						<file id="ep6c1">
							<duration>631.1680272108844</duration>
						</file>
						<rate>
							<timebase>60.0</timebase>
							<ntsc>FALSE</ntsc>
						</rate>
						<start>7647</start>
						<stop>7753</stop>
						<enabled>TRUE</enabled>
						<in>19196</in>
						<out>19303</out>
						<compositemode>normal</compositemode>
						<filter>
							<enabled>TRUE</enabled>
							<start>0</start>
							<end>631.1680272108844</end>
							<effect>
								<name>Basic Motion</name>
								<effectid>basic</effectid>
								<effecttype>motion</effecttype>
								<mediatype>video</mediatype>
								<effectcategory>motion</effectcategory>
								<parameter>
									<name>Scale</name>
									<parameterid>scale</parameterid>
									<value>100</value>
									<valuemin>0</valuemin>
									<valuemax>10000</valuemax>
								</parameter>
								<parameter>
									<name>Center</name>
									<parameterid>center</parameterid>
									<value>
										<horiz>0</horiz>
										<vert>0</vert>
									</value>
								</parameter>
								<parameter>
									<name>Rotation</name>
									<parameterid>rotation</parameterid>
									<value>0</value>
									<valuemin>-100000</valuemin>
									<valuemax>100000</valuemax>
								</parameter>
								<parameter>
									<name>Anchor Point</name>
									<parameterid>centerOffset</parameterid>
									<value>
										<horiz>0</horiz>
										<vert>0</vert>
									</value>
								</parameter>
							</effect>
						</filter>
						<filter>
							<enabled>TRUE</enabled>
							<start>0</start>
							<end>631.1680272108844</end>
							<effect>
								<name>Crop</name>
								<effectid>crop</effectid>
								<effecttype>motion</effecttype>
								<mediatype>video</mediatype>
								<effectcategory>motion</effectcategory>
								<parameter>
									<name>left</name>
									<parameterid>left</parameterid>
									<value>0</value>
									<valuemin>0</valuemin>
									<valuemax>100</valuemax>
								</parameter>
								<parameter>
									<name>right</name>
									<parameterid>right</parameterid>
									<value>0</value>
									<valuemin>0</valuemin>
									<valuemax>100</valuemax>
								</parameter>
								<parameter>
									<name>top</name>
									<parameterid>top</parameterid>
									<value>0</value>
									<valuemin>0</valuemin>
									<valuemax>100</valuemax>
								</parameter>
								<parameter>
									<name>bottom</name>
									<parameterid>bottom</parameterid>
									<value>0</value>
									<valuemin>0</valuemin>
									<valuemax>100</valuemax>
								</parameter>
							</effect>
						</filter>
						<filter>
							<enabled>TRUE</enabled>
							<start>0</start>
							<end>631.1680272108844</end>
							<effect>
								<name>Opacity</name>
								<effectid>opacity</effectid>
								<effecttype>motion</effecttype>
								<mediatype>video</mediatype>
								<effectcategory>motion</effectcategory>
								<parameter>
									<name>opacity</name>
									<parameterid>opacity</parameterid>
									<value>100</value>
									<valuemin>0</valuemin>
									<valuemax>100</valuemax>
								</parameter>
							</effect>
						</filter>
						<link>
							<linkclipref>ep6c1</linkclipref>
						</link>
						<link>
							<linkclipref>ep6c1-46a</linkclipref>
						</link>
					</clipitem>
					<clipitem id="ep6c1-47">
						<name>ep6c1cut</name>
						<file id="ep6c1">
							<duration>631.1680272108844</duration>
						</file>
						<rate>
							<timebase>60.0</timebase>
							<ntsc>FALSE</ntsc>
						</rate>
						<start>7753</start>
						<stop>7835</stop>
						<enabled>TRUE</enabled>
						<in>19358</in>
						<out>19441</out>
						<compositemode>normal</compositemode>
						<filter>
							<enabled>TRUE</enabled>
							<start>0</start>
							<end>631.1680272108844</end>
							<effect>
								<name>Basic Motion</name>
								<effectid>basic</effectid>
								<effecttype>motion</effecttype>
								<mediatype>video</mediatype>
								<effectcategory>motion</effectcategory>
								<parameter>
									<name>Scale</name>
									<parameterid>scale</parameterid>
									<value>100</value>
									<valuemin>0</valuemin>
									<valuemax>10000</valuemax>
								</parameter>
								<parameter>
									<name>Center</name>
									<parameterid>center</parameterid>
									<value>
										<horiz>0</horiz>
										<vert>0</vert>
									</value>
								</parameter>
								<parameter>
									<name>Rotation</name>
									<parameterid>rotation</parameterid>
									<value>0</value>
									<valuemin>-100000</valuemin>
									<valuemax>100000</valuemax>
								</parameter>
								<parameter>
									<name>Anchor Point</name>
									<parameterid>centerOffset</parameterid>
									<value>
										<horiz>0</horiz>
										<vert>0</vert>
									</value>
								</parameter>
							</effect>
						</filter>
						<filter>
							<enabled>TRUE</enabled>
							<start>0</start>
							<end>631.1680272108844</end>
							<effect>
								<name>Crop</name>
								<effectid>crop</effectid>
								<effecttype>motion</effecttype>
								<mediatype>video</mediatype>
								<effectcategory>motion</effectcategory>
								<parameter>
									<name>left</name>
									<parameterid>left</parameterid>
									<value>0</value>
									<valuemin>0</valuemin>
									<valuemax>100</valuemax>
								</parameter>
								<parameter>
									<name>right</name>
									<parameterid>right</parameterid>
									<value>0</value>
									<valuemin>0</valuemin>
									<valuemax>100</valuemax>
								</parameter>
								<parameter>
									<name>top</name>
									<parameterid>top</parameterid>
									<value>0</value>
									<valuemin>0</valuemin>
									<valuemax>100</valuemax>
								</parameter>
								<parameter>
									<name>bottom</name>
									<parameterid>bottom</parameterid>
									<value>0</value>
									<valuemin>0</valuemin>
									<valuemax>100</valuemax>
								</parameter>
							</effect>
						</filter>
						<filter>
							<enabled>TRUE</enabled>
							<start>0</start>
							<end>631.1680272108844</end>
							<effect>
								<name>Opacity</name>
								<effectid>opacity</effectid>
								<effecttype>motion</effecttype>
								<mediatype>video</mediatype>
								<effectcategory>motion</effectcategory>
								<parameter>
									<name>opacity</name>
									<parameterid>opacity</parameterid>
									<value>100</value>
									<valuemin>0</valuemin>
									<valuemax>100</valuemax>
								</parameter>
							</effect>
						</filter>
						<link>
							<linkclipref>ep6c1</linkclipref>
						</link>
						<link>
							<linkclipref>ep6c1-47a</linkclipref>
						</link>
					</clipitem>
					<clipitem id="ep6c1-48">
						<name>ep6c1cut</name>
						<file id="ep6c1">
							<duration>631.1680272108844</duration>
						</file>
						<rate>
							<timebase>60.0</timebase>
							<ntsc>FALSE</ntsc>
						</rate>
						<start>7835</start>
						<stop>8074</stop>
						<enabled>TRUE</enabled>
						<in>19463</in>
						<out>19702</out>
						<compositemode>normal</compositemode>
						<filter>
							<enabled>TRUE</enabled>
							<start>0</start>
							<end>631.1680272108844</end>
							<effect>
								<name>Basic Motion</name>
								<effectid>basic</effectid>
								<effecttype>motion</effecttype>
								<mediatype>video</mediatype>
								<effectcategory>motion</effectcategory>
								<parameter>
									<name>Scale</name>
									<parameterid>scale</parameterid>
									<value>100</value>
									<valuemin>0</valuemin>
									<valuemax>10000</valuemax>
								</parameter>
								<parameter>
									<name>Center</name>
									<parameterid>center</parameterid>
									<value>
										<horiz>0</horiz>
										<vert>0</vert>
									</value>
								</parameter>
								<parameter>
									<name>Rotation</name>
									<parameterid>rotation</parameterid>
									<value>0</value>
									<valuemin>-100000</valuemin>
									<valuemax>100000</valuemax>
								</parameter>
								<parameter>
									<name>Anchor Point</name>
									<parameterid>centerOffset</parameterid>
									<value>
										<horiz>0</horiz>
										<vert>0</vert>
									</value>
								</parameter>
							</effect>
						</filter>
						<filter>
							<enabled>TRUE</enabled>
							<start>0</start>
							<end>631.1680272108844</end>
							<effect>
								<name>Crop</name>
								<effectid>crop</effectid>
								<effecttype>motion</effecttype>
								<mediatype>video</mediatype>
								<effectcategory>motion</effectcategory>
								<parameter>
									<name>left</name>
									<parameterid>left</parameterid>
									<value>0</value>
									<valuemin>0</valuemin>
									<valuemax>100</valuemax>
								</parameter>
								<parameter>
									<name>right</name>
									<parameterid>right</parameterid>
									<value>0</value>
									<valuemin>0</valuemin>
									<valuemax>100</valuemax>
								</parameter>
								<parameter>
									<name>top</name>
									<parameterid>top</parameterid>
									<value>0</value>
									<valuemin>0</valuemin>
									<valuemax>100</valuemax>
								</parameter>
								<parameter>
									<name>bottom</name>
									<parameterid>bottom</parameterid>
									<value>0</value>
									<valuemin>0</valuemin>
									<valuemax>100</valuemax>
								</parameter>
							</effect>
						</filter>
						<filter>
							<enabled>TRUE</enabled>
							<start>0</start>
							<end>631.1680272108844</end>
							<effect>
								<name>Opacity</name>
								<effectid>opacity</effectid>
								<effecttype>motion</effecttype>
								<mediatype>video</mediatype>
								<effectcategory>motion</effectcategory>
								<parameter>
									<name>opacity</name>
									<parameterid>opacity</parameterid>
									<value>100</value>
									<valuemin>0</valuemin>
									<valuemax>100</valuemax>
								</parameter>
							</effect>
						</filter>
						<link>
							<linkclipref>ep6c1</linkclipref>
						</link>
						<link>
							<linkclipref>ep6c1-48a</linkclipref>
						</link>
					</clipitem>
					<clipitem id="ep6c1-49">
						<name>ep6c1cut</name>
						<file id="ep6c1">
							<duration>631.1680272108844</duration>
						</file>
						<rate>
							<timebase>60.0</timebase>
							<ntsc>FALSE</ntsc>
						</rate>
						<start>8074</start>
						<stop>8149</stop>
						<enabled>TRUE</enabled>
						<in>19763</in>
						<out>19839</out>
						<compositemode>normal</compositemode>
						<filter>
							<enabled>TRUE</enabled>
							<start>0</start>
							<end>631.1680272108844</end>
							<effect>
								<name>Basic Motion</name>
								<effectid>basic</effectid>
								<effecttype>motion</effecttype>
								<mediatype>video</mediatype>
								<effectcategory>motion</effectcategory>
								<parameter>
									<name>Scale</name>
									<parameterid>scale</parameterid>
									<value>100</value>
									<valuemin>0</valuemin>
									<valuemax>10000</valuemax>
								</parameter>
								<parameter>
									<name>Center</name>
									<parameterid>center</parameterid>
									<value>
										<horiz>0</horiz>
										<vert>0</vert>
									</value>
								</parameter>
								<parameter>
									<name>Rotation</name>
									<parameterid>rotation</parameterid>
									<value>0</value>
									<valuemin>-100000</valuemin>
									<valuemax>100000</valuemax>
								</parameter>
								<parameter>
									<name>Anchor Point</name>
									<parameterid>centerOffset</parameterid>
									<value>
										<horiz>0</horiz>
										<vert>0</vert>
									</value>
								</parameter>
							</effect>
						</filter>
						<filter>
							<enabled>TRUE</enabled>
							<start>0</start>
							<end>631.1680272108844</end>
							<effect>
								<name>Crop</name>
								<effectid>crop</effectid>
								<effecttype>motion</effecttype>
								<mediatype>video</mediatype>
								<effectcategory>motion</effectcategory>
								<parameter>
									<name>left</name>
									<parameterid>left</parameterid>
									<value>0</value>
									<valuemin>0</valuemin>
									<valuemax>100</valuemax>
								</parameter>
								<parameter>
									<name>right</name>
									<parameterid>right</parameterid>
									<value>0</value>
									<valuemin>0</valuemin>
									<valuemax>100</valuemax>
								</parameter>
								<parameter>
									<name>top</name>
									<parameterid>top</parameterid>
									<value>0</value>
									<valuemin>0</valuemin>
									<valuemax>100</valuemax>
								</parameter>
								<parameter>
									<name>bottom</name>
									<parameterid>bottom</parameterid>
									<value>0</value>
									<valuemin>0</valuemin>
									<valuemax>100</valuemax>
								</parameter>
							</effect>
						</filter>
						<filter>
							<enabled>TRUE</enabled>
							<start>0</start>
							<end>631.1680272108844</end>
							<effect>
								<name>Opacity</name>
								<effectid>opacity</effectid>
								<effecttype>motion</effecttype>
								<mediatype>video</mediatype>
								<effectcategory>motion</effectcategory>
								<parameter>
									<name>opacity</name>
									<parameterid>opacity</parameterid>
									<value>100</value>
									<valuemin>0</valuemin>
									<valuemax>100</valuemax>
								</parameter>
							</effect>
						</filter>
						<link>
							<linkclipref>ep6c1</linkclipref>
						</link>
						<link>
							<linkclipref>ep6c1-49a</linkclipref>
						</link>
					</clipitem>
					<clipitem id="ep6c1-50">
						<name>ep6c1cut</name>
						<file id="ep6c1">
							<duration>631.1680272108844</duration>
						</file>
						<rate>
							<timebase>60.0</timebase>
							<ntsc>FALSE</ntsc>
						</rate>
						<start>8149</start>
						<stop>8256</stop>
						<enabled>TRUE</enabled>
						<in>19845</in>
						<out>19953</out>
						<compositemode>normal</compositemode>
						<filter>
							<enabled>TRUE</enabled>
							<start>0</start>
							<end>631.1680272108844</end>
							<effect>
								<name>Basic Motion</name>
								<effectid>basic</effectid>
								<effecttype>motion</effecttype>
								<mediatype>video</mediatype>
								<effectcategory>motion</effectcategory>
								<parameter>
									<name>Scale</name>
									<parameterid>scale</parameterid>
									<value>100</value>
									<valuemin>0</valuemin>
									<valuemax>10000</valuemax>
								</parameter>
								<parameter>
									<name>Center</name>
									<parameterid>center</parameterid>
									<value>
										<horiz>0</horiz>
										<vert>0</vert>
									</value>
								</parameter>
								<parameter>
									<name>Rotation</name>
									<parameterid>rotation</parameterid>
									<value>0</value>
									<valuemin>-100000</valuemin>
									<valuemax>100000</valuemax>
								</parameter>
								<parameter>
									<name>Anchor Point</name>
									<parameterid>centerOffset</parameterid>
									<value>
										<horiz>0</horiz>
										<vert>0</vert>
									</value>
								</parameter>
							</effect>
						</filter>
						<filter>
							<enabled>TRUE</enabled>
							<start>0</start>
							<end>631.1680272108844</end>
							<effect>
								<name>Crop</name>
								<effectid>crop</effectid>
								<effecttype>motion</effecttype>
								<mediatype>video</mediatype>
								<effectcategory>motion</effectcategory>
								<parameter>
									<name>left</name>
									<parameterid>left</parameterid>
									<value>0</value>
									<valuemin>0</valuemin>
									<valuemax>100</valuemax>
								</parameter>
								<parameter>
									<name>right</name>
									<parameterid>right</parameterid>
									<value>0</value>
									<valuemin>0</valuemin>
									<valuemax>100</valuemax>
								</parameter>
								<parameter>
									<name>top</name>
									<parameterid>top</parameterid>
									<value>0</value>
									<valuemin>0</valuemin>
									<valuemax>100</valuemax>
								</parameter>
								<parameter>
									<name>bottom</name>
									<parameterid>bottom</parameterid>
									<value>0</value>
									<valuemin>0</valuemin>
									<valuemax>100</valuemax>
								</parameter>
							</effect>
						</filter>
						<filter>
							<enabled>TRUE</enabled>
							<start>0</start>
							<end>631.1680272108844</end>
							<effect>
								<name>Opacity</name>
								<effectid>opacity</effectid>
								<effecttype>motion</effecttype>
								<mediatype>video</mediatype>
								<effectcategory>motion</effectcategory>
								<parameter>
									<name>opacity</name>
									<parameterid>opacity</parameterid>
									<value>100</value>
									<valuemin>0</valuemin>
									<valuemax>100</valuemax>
								</parameter>
							</effect>
						</filter>
						<link>
							<linkclipref>ep6c1</linkclipref>
						</link>
						<link>
							<linkclipref>ep6c1-50a</linkclipref>
						</link>
					</clipitem>
					<clipitem id="ep6c1-51">
						<name>ep6c1cut</name>
						<file id="ep6c1">
							<duration>631.1680272108844</duration>
						</file>
						<rate>
							<timebase>60.0</timebase>
							<ntsc>FALSE</ntsc>
						</rate>
						<start>8256</start>
						<stop>8375</stop>
						<enabled>TRUE</enabled>
						<in>20550</in>
						<out>20669</out>
						<compositemode>normal</compositemode>
						<filter>
							<enabled>TRUE</enabled>
							<start>0</start>
							<end>631.1680272108844</end>
							<effect>
								<name>Basic Motion</name>
								<effectid>basic</effectid>
								<effecttype>motion</effecttype>
								<mediatype>video</mediatype>
								<effectcategory>motion</effectcategory>
								<parameter>
									<name>Scale</name>
									<parameterid>scale</parameterid>
									<value>100</value>
									<valuemin>0</valuemin>
									<valuemax>10000</valuemax>
								</parameter>
								<parameter>
									<name>Center</name>
									<parameterid>center</parameterid>
									<value>
										<horiz>0</horiz>
										<vert>0</vert>
									</value>
								</parameter>
								<parameter>
									<name>Rotation</name>
									<parameterid>rotation</parameterid>
									<value>0</value>
									<valuemin>-100000</valuemin>
									<valuemax>100000</valuemax>
								</parameter>
								<parameter>
									<name>Anchor Point</name>
									<parameterid>centerOffset</parameterid>
									<value>
										<horiz>0</horiz>
										<vert>0</vert>
									</value>
								</parameter>
							</effect>
						</filter>
						<filter>
							<enabled>TRUE</enabled>
							<start>0</start>
							<end>631.1680272108844</end>
							<effect>
								<name>Crop</name>
								<effectid>crop</effectid>
								<effecttype>motion</effecttype>
								<mediatype>video</mediatype>
								<effectcategory>motion</effectcategory>
								<parameter>
									<name>left</name>
									<parameterid>left</parameterid>
									<value>0</value>
									<valuemin>0</valuemin>
									<valuemax>100</valuemax>
								</parameter>
								<parameter>
									<name>right</name>
									<parameterid>right</parameterid>
									<value>0</value>
									<valuemin>0</valuemin>
									<valuemax>100</valuemax>
								</parameter>
								<parameter>
									<name>top</name>
									<parameterid>top</parameterid>
									<value>0</value>
									<valuemin>0</valuemin>
									<valuemax>100</valuemax>
								</parameter>
								<parameter>
									<name>bottom</name>
									<parameterid>bottom</parameterid>
									<value>0</value>
									<valuemin>0</valuemin>
									<valuemax>100</valuemax>
								</parameter>
							</effect>
						</filter>
						<filter>
							<enabled>TRUE</enabled>
							<start>0</start>
							<end>631.1680272108844</end>
							<effect>
								<name>Opacity</name>
								<effectid>opacity</effectid>
								<effecttype>motion</effecttype>
								<mediatype>video</mediatype>
								<effectcategory>motion</effectcategory>
								<parameter>
									<name>opacity</name>
									<parameterid>opacity</parameterid>
									<value>100</value>
									<valuemin>0</valuemin>
									<valuemax>100</valuemax>
								</parameter>
							</effect>
						</filter>
						<link>
							<linkclipref>ep6c1</linkclipref>
						</link>
						<link>
							<linkclipref>ep6c1-51a</linkclipref>
						</link>
					</clipitem>
					<clipitem id="ep6c1-52">
						<name>ep6c1cut</name>
						<file id="ep6c1">
							<duration>631.1680272108844</duration>
						</file>
						<rate>
							<timebase>60.0</timebase>
							<ntsc>FALSE</ntsc>
						</rate>
						<start>8375</start>
						<stop>8485</stop>
						<enabled>TRUE</enabled>
						<in>20731</in>
						<out>20842</out>
						<compositemode>normal</compositemode>
						<filter>
							<enabled>TRUE</enabled>
							<start>0</start>
							<end>631.1680272108844</end>
							<effect>
								<name>Basic Motion</name>
								<effectid>basic</effectid>
								<effecttype>motion</effecttype>
								<mediatype>video</mediatype>
								<effectcategory>motion</effectcategory>
								<parameter>
									<name>Scale</name>
									<parameterid>scale</parameterid>
									<value>100</value>
									<valuemin>0</valuemin>
									<valuemax>10000</valuemax>
								</parameter>
								<parameter>
									<name>Center</name>
									<parameterid>center</parameterid>
									<value>
										<horiz>0</horiz>
										<vert>0</vert>
									</value>
								</parameter>
								<parameter>
									<name>Rotation</name>
									<parameterid>rotation</parameterid>
									<value>0</value>
									<valuemin>-100000</valuemin>
									<valuemax>100000</valuemax>
								</parameter>
								<parameter>
									<name>Anchor Point</name>
									<parameterid>centerOffset</parameterid>
									<value>
										<horiz>0</horiz>
										<vert>0</vert>
									</value>
								</parameter>
							</effect>
						</filter>
						<filter>
							<enabled>TRUE</enabled>
							<start>0</start>
							<end>631.1680272108844</end>
							<effect>
								<name>Crop</name>
								<effectid>crop</effectid>
								<effecttype>motion</effecttype>
								<mediatype>video</mediatype>
								<effectcategory>motion</effectcategory>
								<parameter>
									<name>left</name>
									<parameterid>left</parameterid>
									<value>0</value>
									<valuemin>0</valuemin>
									<valuemax>100</valuemax>
								</parameter>
								<parameter>
									<name>right</name>
									<parameterid>right</parameterid>
									<value>0</value>
									<valuemin>0</valuemin>
									<valuemax>100</valuemax>
								</parameter>
								<parameter>
									<name>top</name>
									<parameterid>top</parameterid>
									<value>0</value>
									<valuemin>0</valuemin>
									<valuemax>100</valuemax>
								</parameter>
								<parameter>
									<name>bottom</name>
									<parameterid>bottom</parameterid>
									<value>0</value>
									<valuemin>0</valuemin>
									<valuemax>100</valuemax>
								</parameter>
							</effect>
						</filter>
						<filter>
							<enabled>TRUE</enabled>
							<start>0</start>
							<end>631.1680272108844</end>
							<effect>
								<name>Opacity</name>
								<effectid>opacity</effectid>
								<effecttype>motion</effecttype>
								<mediatype>video</mediatype>
								<effectcategory>motion</effectcategory>
								<parameter>
									<name>opacity</name>
									<parameterid>opacity</parameterid>
									<value>100</value>
									<valuemin>0</valuemin>
									<valuemax>100</valuemax>
								</parameter>
							</effect>
						</filter>
						<link>
							<linkclipref>ep6c1</linkclipref>
						</link>
						<link>
							<linkclipref>ep6c1-52a</linkclipref>
						</link>
					</clipitem>
					<clipitem id="ep6c1-53">
						<name>ep6c1cut</name>
						<file id="ep6c1">
							<duration>631.1680272108844</duration>
						</file>
						<rate>
							<timebase>60.0</timebase>
							<ntsc>FALSE</ntsc>
						</rate>
						<start>8485</start>
						<stop>8688</stop>
						<enabled>TRUE</enabled>
						<in>21198</in>
						<out>21402</out>
						<compositemode>normal</compositemode>
						<filter>
							<enabled>TRUE</enabled>
							<start>0</start>
							<end>631.1680272108844</end>
							<effect>
								<name>Basic Motion</name>
								<effectid>basic</effectid>
								<effecttype>motion</effecttype>
								<mediatype>video</mediatype>
								<effectcategory>motion</effectcategory>
								<parameter>
									<name>Scale</name>
									<parameterid>scale</parameterid>
									<value>100</value>
									<valuemin>0</valuemin>
									<valuemax>10000</valuemax>
								</parameter>
								<parameter>
									<name>Center</name>
									<parameterid>center</parameterid>
									<value>
										<horiz>0</horiz>
										<vert>0</vert>
									</value>
								</parameter>
								<parameter>
									<name>Rotation</name>
									<parameterid>rotation</parameterid>
									<value>0</value>
									<valuemin>-100000</valuemin>
									<valuemax>100000</valuemax>
								</parameter>
								<parameter>
									<name>Anchor Point</name>
									<parameterid>centerOffset</parameterid>
									<value>
										<horiz>0</horiz>
										<vert>0</vert>
									</value>
								</parameter>
							</effect>
						</filter>
						<filter>
							<enabled>TRUE</enabled>
							<start>0</start>
							<end>631.1680272108844</end>
							<effect>
								<name>Crop</name>
								<effectid>crop</effectid>
								<effecttype>motion</effecttype>
								<mediatype>video</mediatype>
								<effectcategory>motion</effectcategory>
								<parameter>
									<name>left</name>
									<parameterid>left</parameterid>
									<value>0</value>
									<valuemin>0</valuemin>
									<valuemax>100</valuemax>
								</parameter>
								<parameter>
									<name>right</name>
									<parameterid>right</parameterid>
									<value>0</value>
									<valuemin>0</valuemin>
									<valuemax>100</valuemax>
								</parameter>
								<parameter>
									<name>top</name>
									<parameterid>top</parameterid>
									<value>0</value>
									<valuemin>0</valuemin>
									<valuemax>100</valuemax>
								</parameter>
								<parameter>
									<name>bottom</name>
									<parameterid>bottom</parameterid>
									<value>0</value>
									<valuemin>0</valuemin>
									<valuemax>100</valuemax>
								</parameter>
							</effect>
						</filter>
						<filter>
							<enabled>TRUE</enabled>
							<start>0</start>
							<end>631.1680272108844</end>
							<effect>
								<name>Opacity</name>
								<effectid>opacity</effectid>
								<effecttype>motion</effecttype>
								<mediatype>video</mediatype>
								<effectcategory>motion</effectcategory>
								<parameter>
									<name>opacity</name>
									<parameterid>opacity</parameterid>
									<value>100</value>
									<valuemin>0</valuemin>
									<valuemax>100</valuemax>
								</parameter>
							</effect>
						</filter>
						<link>
							<linkclipref>ep6c1</linkclipref>
						</link>
						<link>
							<linkclipref>ep6c1-53a</linkclipref>
						</link>
					</clipitem>
					<clipitem id="ep6c1-54">
						<name>ep6c1cut</name>
						<file id="ep6c1">
							<duration>631.1680272108844</duration>
						</file>
						<rate>
							<timebase>60.0</timebase>
							<ntsc>FALSE</ntsc>
						</rate>
						<start>8688</start>
						<stop>8787</stop>
						<enabled>TRUE</enabled>
						<in>21854</in>
						<out>21953</out>
						<compositemode>normal</compositemode>
						<filter>
							<enabled>TRUE</enabled>
							<start>0</start>
							<end>631.1680272108844</end>
							<effect>
								<name>Basic Motion</name>
								<effectid>basic</effectid>
								<effecttype>motion</effecttype>
								<mediatype>video</mediatype>
								<effectcategory>motion</effectcategory>
								<parameter>
									<name>Scale</name>
									<parameterid>scale</parameterid>
									<value>100</value>
									<valuemin>0</valuemin>
									<valuemax>10000</valuemax>
								</parameter>
								<parameter>
									<name>Center</name>
									<parameterid>center</parameterid>
									<value>
										<horiz>0</horiz>
										<vert>0</vert>
									</value>
								</parameter>
								<parameter>
									<name>Rotation</name>
									<parameterid>rotation</parameterid>
									<value>0</value>
									<valuemin>-100000</valuemin>
									<valuemax>100000</valuemax>
								</parameter>
								<parameter>
									<name>Anchor Point</name>
									<parameterid>centerOffset</parameterid>
									<value>
										<horiz>0</horiz>
										<vert>0</vert>
									</value>
								</parameter>
							</effect>
						</filter>
						<filter>
							<enabled>TRUE</enabled>
							<start>0</start>
							<end>631.1680272108844</end>
							<effect>
								<name>Crop</name>
								<effectid>crop</effectid>
								<effecttype>motion</effecttype>
								<mediatype>video</mediatype>
								<effectcategory>motion</effectcategory>
								<parameter>
									<name>left</name>
									<parameterid>left</parameterid>
									<value>0</value>
									<valuemin>0</valuemin>
									<valuemax>100</valuemax>
								</parameter>
								<parameter>
									<name>right</name>
									<parameterid>right</parameterid>
									<value>0</value>
									<valuemin>0</valuemin>
									<valuemax>100</valuemax>
								</parameter>
								<parameter>
									<name>top</name>
									<parameterid>top</parameterid>
									<value>0</value>
									<valuemin>0</valuemin>
									<valuemax>100</valuemax>
								</parameter>
								<parameter>
									<name>bottom</name>
									<parameterid>bottom</parameterid>
									<value>0</value>
									<valuemin>0</valuemin>
									<valuemax>100</valuemax>
								</parameter>
							</effect>
						</filter>
						<filter>
							<enabled>TRUE</enabled>
							<start>0</start>
							<end>631.1680272108844</end>
							<effect>
								<name>Opacity</name>
								<effectid>opacity</effectid>
								<effecttype>motion</effecttype>
								<mediatype>video</mediatype>
								<effectcategory>motion</effectcategory>
								<parameter>
									<name>opacity</name>
									<parameterid>opacity</parameterid>
									<value>100</value>
									<valuemin>0</valuemin>
									<valuemax>100</valuemax>
								</parameter>
							</effect>
						</filter>
						<link>
							<linkclipref>ep6c1</linkclipref>
						</link>
						<link>
							<linkclipref>ep6c1-54a</linkclipref>
						</link>
					</clipitem>
					<clipitem id="ep6c1-55">
						<name>ep6c1cut</name>
						<file id="ep6c1">
							<duration>631.1680272108844</duration>
						</file>
						<rate>
							<timebase>60.0</timebase>
							<ntsc>FALSE</ntsc>
						</rate>
						<start>8787</start>
						<stop>8993</stop>
						<enabled>TRUE</enabled>
						<in>22404</in>
						<out>22611</out>
						<compositemode>normal</compositemode>
						<filter>
							<enabled>TRUE</enabled>
							<start>0</start>
							<end>631.1680272108844</end>
							<effect>
								<name>Basic Motion</name>
								<effectid>basic</effectid>
								<effecttype>motion</effecttype>
								<mediatype>video</mediatype>
								<effectcategory>motion</effectcategory>
								<parameter>
									<name>Scale</name>
									<parameterid>scale</parameterid>
									<value>100</value>
									<valuemin>0</valuemin>
									<valuemax>10000</valuemax>
								</parameter>
								<parameter>
									<name>Center</name>
									<parameterid>center</parameterid>
									<value>
										<horiz>0</horiz>
										<vert>0</vert>
									</value>
								</parameter>
								<parameter>
									<name>Rotation</name>
									<parameterid>rotation</parameterid>
									<value>0</value>
									<valuemin>-100000</valuemin>
									<valuemax>100000</valuemax>
								</parameter>
								<parameter>
									<name>Anchor Point</name>
									<parameterid>centerOffset</parameterid>
									<value>
										<horiz>0</horiz>
										<vert>0</vert>
									</value>
								</parameter>
							</effect>
						</filter>
						<filter>
							<enabled>TRUE</enabled>
							<start>0</start>
							<end>631.1680272108844</end>
							<effect>
								<name>Crop</name>
								<effectid>crop</effectid>
								<effecttype>motion</effecttype>
								<mediatype>video</mediatype>
								<effectcategory>motion</effectcategory>
								<parameter>
									<name>left</name>
									<parameterid>left</parameterid>
									<value>0</value>
									<valuemin>0</valuemin>
									<valuemax>100</valuemax>
								</parameter>
								<parameter>
									<name>right</name>
									<parameterid>right</parameterid>
									<value>0</value>
									<valuemin>0</valuemin>
									<valuemax>100</valuemax>
								</parameter>
								<parameter>
									<name>top</name>
									<parameterid>top</parameterid>
									<value>0</value>
									<valuemin>0</valuemin>
									<valuemax>100</valuemax>
								</parameter>
								<parameter>
									<name>bottom</name>
									<parameterid>bottom</parameterid>
									<value>0</value>
									<valuemin>0</valuemin>
									<valuemax>100</valuemax>
								</parameter>
							</effect>
						</filter>
						<filter>
							<enabled>TRUE</enabled>
							<start>0</start>
							<end>631.1680272108844</end>
							<effect>
								<name>Opacity</name>
								<effectid>opacity</effectid>
								<effecttype>motion</effecttype>
								<mediatype>video</mediatype>
								<effectcategory>motion</effectcategory>
								<parameter>
									<name>opacity</name>
									<parameterid>opacity</parameterid>
									<value>100</value>
									<valuemin>0</valuemin>
									<valuemax>100</valuemax>
								</parameter>
							</effect>
						</filter>
						<link>
							<linkclipref>ep6c1</linkclipref>
						</link>
						<link>
							<linkclipref>ep6c1-55a</linkclipref>
						</link>
					</clipitem>
					<clipitem id="ep6c1-56">
						<name>ep6c1cut</name>
						<file id="ep6c1">
							<duration>631.1680272108844</duration>
						</file>
						<rate>
							<timebase>60.0</timebase>
							<ntsc>FALSE</ntsc>
						</rate>
						<start>8993</start>
						<stop>9525</stop>
						<enabled>TRUE</enabled>
						<in>24598</in>
						<out>25130</out>
						<compositemode>normal</compositemode>
						<filter>
							<enabled>TRUE</enabled>
							<start>0</start>
							<end>631.1680272108844</end>
							<effect>
								<name>Basic Motion</name>
								<effectid>basic</effectid>
								<effecttype>motion</effecttype>
								<mediatype>video</mediatype>
								<effectcategory>motion</effectcategory>
								<parameter>
									<name>Scale</name>
									<parameterid>scale</parameterid>
									<value>100</value>
									<valuemin>0</valuemin>
									<valuemax>10000</valuemax>
								</parameter>
								<parameter>
									<name>Center</name>
									<parameterid>center</parameterid>
									<value>
										<horiz>0</horiz>
										<vert>0</vert>
									</value>
								</parameter>
								<parameter>
									<name>Rotation</name>
									<parameterid>rotation</parameterid>
									<value>0</value>
									<valuemin>-100000</valuemin>
									<valuemax>100000</valuemax>
								</parameter>
								<parameter>
									<name>Anchor Point</name>
									<parameterid>centerOffset</parameterid>
									<value>
										<horiz>0</horiz>
										<vert>0</vert>
									</value>
								</parameter>
							</effect>
						</filter>
						<filter>
							<enabled>TRUE</enabled>
							<start>0</start>
							<end>631.1680272108844</end>
							<effect>
								<name>Crop</name>
								<effectid>crop</effectid>
								<effecttype>motion</effecttype>
								<mediatype>video</mediatype>
								<effectcategory>motion</effectcategory>
								<parameter>
									<name>left</name>
									<parameterid>left</parameterid>
									<value>0</value>
									<valuemin>0</valuemin>
									<valuemax>100</valuemax>
								</parameter>
								<parameter>
									<name>right</name>
									<parameterid>right</parameterid>
									<value>0</value>
									<valuemin>0</valuemin>
									<valuemax>100</valuemax>
								</parameter>
								<parameter>
									<name>top</name>
									<parameterid>top</parameterid>
									<value>0</value>
									<valuemin>0</valuemin>
									<valuemax>100</valuemax>
								</parameter>
								<parameter>
									<name>bottom</name>
									<parameterid>bottom</parameterid>
									<value>0</value>
									<valuemin>0</valuemin>
									<valuemax>100</valuemax>
								</parameter>
							</effect>
						</filter>
						<filter>
							<enabled>TRUE</enabled>
							<start>0</start>
							<end>631.1680272108844</end>
							<effect>
								<name>Opacity</name>
								<effectid>opacity</effectid>
								<effecttype>motion</effecttype>
								<mediatype>video</mediatype>
								<effectcategory>motion</effectcategory>
								<parameter>
									<name>opacity</name>
									<parameterid>opacity</parameterid>
									<value>100</value>
									<valuemin>0</valuemin>
									<valuemax>100</valuemax>
								</parameter>
							</effect>
						</filter>
						<link>
							<linkclipref>ep6c1</linkclipref>
						</link>
						<link>
							<linkclipref>ep6c1-56a</linkclipref>
						</link>
					</clipitem>
					<clipitem id="ep6c1-57">
						<name>ep6c1cut</name>
						<file id="ep6c1">
							<duration>631.1680272108844</duration>
						</file>
						<rate>
							<timebase>60.0</timebase>
							<ntsc>FALSE</ntsc>
						</rate>
						<start>9525</start>
						<stop>9603</stop>
						<enabled>TRUE</enabled>
						<in>25139</in>
						<out>25218</out>
						<compositemode>normal</compositemode>
						<filter>
							<enabled>TRUE</enabled>
							<start>0</start>
							<end>631.1680272108844</end>
							<effect>
								<name>Basic Motion</name>
								<effectid>basic</effectid>
								<effecttype>motion</effecttype>
								<mediatype>video</mediatype>
								<effectcategory>motion</effectcategory>
								<parameter>
									<name>Scale</name>
									<parameterid>scale</parameterid>
									<value>100</value>
									<valuemin>0</valuemin>
									<valuemax>10000</valuemax>
								</parameter>
								<parameter>
									<name>Center</name>
									<parameterid>center</parameterid>
									<value>
										<horiz>0</horiz>
										<vert>0</vert>
									</value>
								</parameter>
								<parameter>
									<name>Rotation</name>
									<parameterid>rotation</parameterid>
									<value>0</value>
									<valuemin>-100000</valuemin>
									<valuemax>100000</valuemax>
								</parameter>
								<parameter>
									<name>Anchor Point</name>
									<parameterid>centerOffset</parameterid>
									<value>
										<horiz>0</horiz>
										<vert>0</vert>
									</value>
								</parameter>
							</effect>
						</filter>
						<filter>
							<enabled>TRUE</enabled>
							<start>0</start>
							<end>631.1680272108844</end>
							<effect>
								<name>Crop</name>
								<effectid>crop</effectid>
								<effecttype>motion</effecttype>
								<mediatype>video</mediatype>
								<effectcategory>motion</effectcategory>
								<parameter>
									<name>left</name>
									<parameterid>left</parameterid>
									<value>0</value>
									<valuemin>0</valuemin>
									<valuemax>100</valuemax>
								</parameter>
								<parameter>
									<name>right</name>
									<parameterid>right</parameterid>
									<value>0</value>
									<valuemin>0</valuemin>
									<valuemax>100</valuemax>
								</parameter>
								<parameter>
									<name>top</name>
									<parameterid>top</parameterid>
									<value>0</value>
									<valuemin>0</valuemin>
									<valuemax>100</valuemax>
								</parameter>
								<parameter>
									<name>bottom</name>
									<parameterid>bottom</parameterid>
									<value>0</value>
									<valuemin>0</valuemin>
									<valuemax>100</valuemax>
								</parameter>
							</effect>
						</filter>
						<filter>
							<enabled>TRUE</enabled>
							<start>0</start>
							<end>631.1680272108844</end>
							<effect>
								<name>Opacity</name>
								<effectid>opacity</effectid>
								<effecttype>motion</effecttype>
								<mediatype>video</mediatype>
								<effectcategory>motion</effectcategory>
								<parameter>
									<name>opacity</name>
									<parameterid>opacity</parameterid>
									<value>100</value>
									<valuemin>0</valuemin>
									<valuemax>100</valuemax>
								</parameter>
							</effect>
						</filter>
						<link>
							<linkclipref>ep6c1</linkclipref>
						</link>
						<link>
							<linkclipref>ep6c1-57a</linkclipref>
						</link>
					</clipitem>
					<clipitem id="ep6c1-58">
						<name>ep6c1cut</name>
						<file id="ep6c1">
							<duration>631.1680272108844</duration>
						</file>
						<rate>
							<timebase>60.0</timebase>
							<ntsc>FALSE</ntsc>
						</rate>
						<start>9603</start>
						<stop>9729</stop>
						<enabled>TRUE</enabled>
						<in>25354</in>
						<out>25480</out>
						<compositemode>normal</compositemode>
						<filter>
							<enabled>TRUE</enabled>
							<start>0</start>
							<end>631.1680272108844</end>
							<effect>
								<name>Basic Motion</name>
								<effectid>basic</effectid>
								<effecttype>motion</effecttype>
								<mediatype>video</mediatype>
								<effectcategory>motion</effectcategory>
								<parameter>
									<name>Scale</name>
									<parameterid>scale</parameterid>
									<value>100</value>
									<valuemin>0</valuemin>
									<valuemax>10000</valuemax>
								</parameter>
								<parameter>
									<name>Center</name>
									<parameterid>center</parameterid>
									<value>
										<horiz>0</horiz>
										<vert>0</vert>
									</value>
								</parameter>
								<parameter>
									<name>Rotation</name>
									<parameterid>rotation</parameterid>
									<value>0</value>
									<valuemin>-100000</valuemin>
									<valuemax>100000</valuemax>
								</parameter>
								<parameter>
									<name>Anchor Point</name>
									<parameterid>centerOffset</parameterid>
									<value>
										<horiz>0</horiz>
										<vert>0</vert>
									</value>
								</parameter>
							</effect>
						</filter>
						<filter>
							<enabled>TRUE</enabled>
							<start>0</start>
							<end>631.1680272108844</end>
							<effect>
								<name>Crop</name>
								<effectid>crop</effectid>
								<effecttype>motion</effecttype>
								<mediatype>video</mediatype>
								<effectcategory>motion</effectcategory>
								<parameter>
									<name>left</name>
									<parameterid>left</parameterid>
									<value>0</value>
									<valuemin>0</valuemin>
									<valuemax>100</valuemax>
								</parameter>
								<parameter>
									<name>right</name>
									<parameterid>right</parameterid>
									<value>0</value>
									<valuemin>0</valuemin>
									<valuemax>100</valuemax>
								</parameter>
								<parameter>
									<name>top</name>
									<parameterid>top</parameterid>
									<value>0</value>
									<valuemin>0</valuemin>
									<valuemax>100</valuemax>
								</parameter>
								<parameter>
									<name>bottom</name>
									<parameterid>bottom</parameterid>
									<value>0</value>
									<valuemin>0</valuemin>
									<valuemax>100</valuemax>
								</parameter>
							</effect>
						</filter>
						<filter>
							<enabled>TRUE</enabled>
							<start>0</start>
							<end>631.1680272108844</end>
							<effect>
								<name>Opacity</name>
								<effectid>opacity</effectid>
								<effecttype>motion</effecttype>
								<mediatype>video</mediatype>
								<effectcategory>motion</effectcategory>
								<parameter>
									<name>opacity</name>
									<parameterid>opacity</parameterid>
									<value>100</value>
									<valuemin>0</valuemin>
									<valuemax>100</valuemax>
								</parameter>
							</effect>
						</filter>
						<link>
							<linkclipref>ep6c1</linkclipref>
						</link>
						<link>
							<linkclipref>ep6c1-58a</linkclipref>
						</link>
					</clipitem>
					<clipitem id="ep6c1-59">
						<name>ep6c1cut</name>
						<file id="ep6c1">
							<duration>631.1680272108844</duration>
						</file>
						<rate>
							<timebase>60.0</timebase>
							<ntsc>FALSE</ntsc>
						</rate>
						<start>9729</start>
						<stop>9934</stop>
						<enabled>TRUE</enabled>
						<in>25514</in>
						<out>25719</out>
						<compositemode>normal</compositemode>
						<filter>
							<enabled>TRUE</enabled>
							<start>0</start>
							<end>631.1680272108844</end>
							<effect>
								<name>Basic Motion</name>
								<effectid>basic</effectid>
								<effecttype>motion</effecttype>
								<mediatype>video</mediatype>
								<effectcategory>motion</effectcategory>
								<parameter>
									<name>Scale</name>
									<parameterid>scale</parameterid>
									<value>100</value>
									<valuemin>0</valuemin>
									<valuemax>10000</valuemax>
								</parameter>
								<parameter>
									<name>Center</name>
									<parameterid>center</parameterid>
									<value>
										<horiz>0</horiz>
										<vert>0</vert>
									</value>
								</parameter>
								<parameter>
									<name>Rotation</name>
									<parameterid>rotation</parameterid>
									<value>0</value>
									<valuemin>-100000</valuemin>
									<valuemax>100000</valuemax>
								</parameter>
								<parameter>
									<name>Anchor Point</name>
									<parameterid>centerOffset</parameterid>
									<value>
										<horiz>0</horiz>
										<vert>0</vert>
									</value>
								</parameter>
							</effect>
						</filter>
						<filter>
							<enabled>TRUE</enabled>
							<start>0</start>
							<end>631.1680272108844</end>
							<effect>
								<name>Crop</name>
								<effectid>crop</effectid>
								<effecttype>motion</effecttype>
								<mediatype>video</mediatype>
								<effectcategory>motion</effectcategory>
								<parameter>
									<name>left</name>
									<parameterid>left</parameterid>
									<value>0</value>
									<valuemin>0</valuemin>
									<valuemax>100</valuemax>
								</parameter>
								<parameter>
									<name>right</name>
									<parameterid>right</parameterid>
									<value>0</value>
									<valuemin>0</valuemin>
									<valuemax>100</valuemax>
								</parameter>
								<parameter>
									<name>top</name>
									<parameterid>top</parameterid>
									<value>0</value>
									<valuemin>0</valuemin>
									<valuemax>100</valuemax>
								</parameter>
								<parameter>
									<name>bottom</name>
									<parameterid>bottom</parameterid>
									<value>0</value>
									<valuemin>0</valuemin>
									<valuemax>100</valuemax>
								</parameter>
							</effect>
						</filter>
						<filter>
							<enabled>TRUE</enabled>
							<start>0</start>
							<end>631.1680272108844</end>
							<effect>
								<name>Opacity</name>
								<effectid>opacity</effectid>
								<effecttype>motion</effecttype>
								<mediatype>video</mediatype>
								<effectcategory>motion</effectcategory>
								<parameter>
									<name>opacity</name>
									<parameterid>opacity</parameterid>
									<value>100</value>
									<valuemin>0</valuemin>
									<valuemax>100</valuemax>
								</parameter>
							</effect>
						</filter>
						<link>
							<linkclipref>ep6c1</linkclipref>
						</link>
						<link>
							<linkclipref>ep6c1-59a</linkclipref>
						</link>
					</clipitem>
					<clipitem id="ep6c1-60">
						<name>ep6c1cut</name>
						<file id="ep6c1">
							<duration>631.1680272108844</duration>
						</file>
						<rate>
							<timebase>60.0</timebase>
							<ntsc>FALSE</ntsc>
						</rate>
						<start>9934</start>
						<stop>10108</stop>
						<enabled>TRUE</enabled>
						<in>25728</in>
						<out>25902</out>
						<compositemode>normal</compositemode>
						<filter>
							<enabled>TRUE</enabled>
							<start>0</start>
							<end>631.1680272108844</end>
							<effect>
								<name>Basic Motion</name>
								<effectid>basic</effectid>
								<effecttype>motion</effecttype>
								<mediatype>video</mediatype>
								<effectcategory>motion</effectcategory>
								<parameter>
									<name>Scale</name>
									<parameterid>scale</parameterid>
									<value>100</value>
									<valuemin>0</valuemin>
									<valuemax>10000</valuemax>
								</parameter>
								<parameter>
									<name>Center</name>
									<parameterid>center</parameterid>
									<value>
										<horiz>0</horiz>
										<vert>0</vert>
									</value>
								</parameter>
								<parameter>
									<name>Rotation</name>
									<parameterid>rotation</parameterid>
									<value>0</value>
									<valuemin>-100000</valuemin>
									<valuemax>100000</valuemax>
								</parameter>
								<parameter>
									<name>Anchor Point</name>
									<parameterid>centerOffset</parameterid>
									<value>
										<horiz>0</horiz>
										<vert>0</vert>
									</value>
								</parameter>
							</effect>
						</filter>
						<filter>
							<enabled>TRUE</enabled>
							<start>0</start>
							<end>631.1680272108844</end>
							<effect>
								<name>Crop</name>
								<effectid>crop</effectid>
								<effecttype>motion</effecttype>
								<mediatype>video</mediatype>
								<effectcategory>motion</effectcategory>
								<parameter>
									<name>left</name>
									<parameterid>left</parameterid>
									<value>0</value>
									<valuemin>0</valuemin>
									<valuemax>100</valuemax>
								</parameter>
								<parameter>
									<name>right</name>
									<parameterid>right</parameterid>
									<value>0</value>
									<valuemin>0</valuemin>
									<valuemax>100</valuemax>
								</parameter>
								<parameter>
									<name>top</name>
									<parameterid>top</parameterid>
									<value>0</value>
									<valuemin>0</valuemin>
									<valuemax>100</valuemax>
								</parameter>
								<parameter>
									<name>bottom</name>
									<parameterid>bottom</parameterid>
									<value>0</value>
									<valuemin>0</valuemin>
									<valuemax>100</valuemax>
								</parameter>
							</effect>
						</filter>
						<filter>
							<enabled>TRUE</enabled>
							<start>0</start>
							<end>631.1680272108844</end>
							<effect>
								<name>Opacity</name>
								<effectid>opacity</effectid>
								<effecttype>motion</effecttype>
								<mediatype>video</mediatype>
								<effectcategory>motion</effectcategory>
								<parameter>
									<name>opacity</name>
									<parameterid>opacity</parameterid>
									<value>100</value>
									<valuemin>0</valuemin>
									<valuemax>100</valuemax>
								</parameter>
							</effect>
						</filter>
						<link>
							<linkclipref>ep6c1</linkclipref>
						</link>
						<link>
							<linkclipref>ep6c1-60a</linkclipref>
						</link>
					</clipitem>
					<clipitem id="ep6c1-61">
						<name>ep6c1cut</name>
						<file id="ep6c1">
							<duration>631.1680272108844</duration>
						</file>
						<rate>
							<timebase>60.0</timebase>
							<ntsc>FALSE</ntsc>
						</rate>
						<start>10108</start>
						<stop>10226</stop>
						<enabled>TRUE</enabled>
						<in>26018</in>
						<out>26137</out>
						<compositemode>normal</compositemode>
						<filter>
							<enabled>TRUE</enabled>
							<start>0</start>
							<end>631.1680272108844</end>
							<effect>
								<name>Basic Motion</name>
								<effectid>basic</effectid>
								<effecttype>motion</effecttype>
								<mediatype>video</mediatype>
								<effectcategory>motion</effectcategory>
								<parameter>
									<name>Scale</name>
									<parameterid>scale</parameterid>
									<value>100</value>
									<valuemin>0</valuemin>
									<valuemax>10000</valuemax>
								</parameter>
								<parameter>
									<name>Center</name>
									<parameterid>center</parameterid>
									<value>
										<horiz>0</horiz>
										<vert>0</vert>
									</value>
								</parameter>
								<parameter>
									<name>Rotation</name>
									<parameterid>rotation</parameterid>
									<value>0</value>
									<valuemin>-100000</valuemin>
									<valuemax>100000</valuemax>
								</parameter>
								<parameter>
									<name>Anchor Point</name>
									<parameterid>centerOffset</parameterid>
									<value>
										<horiz>0</horiz>
										<vert>0</vert>
									</value>
								</parameter>
							</effect>
						</filter>
						<filter>
							<enabled>TRUE</enabled>
							<start>0</start>
							<end>631.1680272108844</end>
							<effect>
								<name>Crop</name>
								<effectid>crop</effectid>
								<effecttype>motion</effecttype>
								<mediatype>video</mediatype>
								<effectcategory>motion</effectcategory>
								<parameter>
									<name>left</name>
									<parameterid>left</parameterid>
									<value>0</value>
									<valuemin>0</valuemin>
									<valuemax>100</valuemax>
								</parameter>
								<parameter>
									<name>right</name>
									<parameterid>right</parameterid>
									<value>0</value>
									<valuemin>0</valuemin>
									<valuemax>100</valuemax>
								</parameter>
								<parameter>
									<name>top</name>
									<parameterid>top</parameterid>
									<value>0</value>
									<valuemin>0</valuemin>
									<valuemax>100</valuemax>
								</parameter>
								<parameter>
									<name>bottom</name>
									<parameterid>bottom</parameterid>
									<value>0</value>
									<valuemin>0</valuemin>
									<valuemax>100</valuemax>
								</parameter>
							</effect>
						</filter>
						<filter>
							<enabled>TRUE</enabled>
							<start>0</start>
							<end>631.1680272108844</end>
							<effect>
								<name>Opacity</name>
								<effectid>opacity</effectid>
								<effecttype>motion</effecttype>
								<mediatype>video</mediatype>
								<effectcategory>motion</effectcategory>
								<parameter>
									<name>opacity</name>
									<parameterid>opacity</parameterid>
									<value>100</value>
									<valuemin>0</valuemin>
									<valuemax>100</valuemax>
								</parameter>
							</effect>
						</filter>
						<link>
							<linkclipref>ep6c1</linkclipref>
						</link>
						<link>
							<linkclipref>ep6c1-61a</linkclipref>
						</link>
					</clipitem>
					<clipitem id="ep6c1-62">
						<name>ep6c1cut</name>
						<file id="ep6c1">
							<duration>631.1680272108844</duration>
						</file>
						<rate>
							<timebase>60.0</timebase>
							<ntsc>FALSE</ntsc>
						</rate>
						<start>10226</start>
						<stop>10323</stop>
						<enabled>TRUE</enabled>
						<in>26200</in>
						<out>26298</out>
						<compositemode>normal</compositemode>
						<filter>
							<enabled>TRUE</enabled>
							<start>0</start>
							<end>631.1680272108844</end>
							<effect>
								<name>Basic Motion</name>
								<effectid>basic</effectid>
								<effecttype>motion</effecttype>
								<mediatype>video</mediatype>
								<effectcategory>motion</effectcategory>
								<parameter>
									<name>Scale</name>
									<parameterid>scale</parameterid>
									<value>100</value>
									<valuemin>0</valuemin>
									<valuemax>10000</valuemax>
								</parameter>
								<parameter>
									<name>Center</name>
									<parameterid>center</parameterid>
									<value>
										<horiz>0</horiz>
										<vert>0</vert>
									</value>
								</parameter>
								<parameter>
									<name>Rotation</name>
									<parameterid>rotation</parameterid>
									<value>0</value>
									<valuemin>-100000</valuemin>
									<valuemax>100000</valuemax>
								</parameter>
								<parameter>
									<name>Anchor Point</name>
									<parameterid>centerOffset</parameterid>
									<value>
										<horiz>0</horiz>
										<vert>0</vert>
									</value>
								</parameter>
							</effect>
						</filter>
						<filter>
							<enabled>TRUE</enabled>
							<start>0</start>
							<end>631.1680272108844</end>
							<effect>
								<name>Crop</name>
								<effectid>crop</effectid>
								<effecttype>motion</effecttype>
								<mediatype>video</mediatype>
								<effectcategory>motion</effectcategory>
								<parameter>
									<name>left</name>
									<parameterid>left</parameterid>
									<value>0</value>
									<valuemin>0</valuemin>
									<valuemax>100</valuemax>
								</parameter>
								<parameter>
									<name>right</name>
									<parameterid>right</parameterid>
									<value>0</value>
									<valuemin>0</valuemin>
									<valuemax>100</valuemax>
								</parameter>
								<parameter>
									<name>top</name>
									<parameterid>top</parameterid>
									<value>0</value>
									<valuemin>0</valuemin>
									<valuemax>100</valuemax>
								</parameter>
								<parameter>
									<name>bottom</name>
									<parameterid>bottom</parameterid>
									<value>0</value>
									<valuemin>0</valuemin>
									<valuemax>100</valuemax>
								</parameter>
							</effect>
						</filter>
						<filter>
							<enabled>TRUE</enabled>
							<start>0</start>
							<end>631.1680272108844</end>
							<effect>
								<name>Opacity</name>
								<effectid>opacity</effectid>
								<effecttype>motion</effecttype>
								<mediatype>video</mediatype>
								<effectcategory>motion</effectcategory>
								<parameter>
									<name>opacity</name>
									<parameterid>opacity</parameterid>
									<value>100</value>
									<valuemin>0</valuemin>
									<valuemax>100</valuemax>
								</parameter>
							</effect>
						</filter>
						<link>
							<linkclipref>ep6c1</linkclipref>
						</link>
						<link>
							<linkclipref>ep6c1-62a</linkclipref>
						</link>
					</clipitem>
					<clipitem id="ep6c1-63">
						<name>ep6c1cut</name>
						<file id="ep6c1">
							<duration>631.1680272108844</duration>
						</file>
						<rate>
							<timebase>60.0</timebase>
							<ntsc>FALSE</ntsc>
						</rate>
						<start>10323</start>
						<stop>10385</stop>
						<enabled>TRUE</enabled>
						<in>26688</in>
						<out>26751</out>
						<compositemode>normal</compositemode>
						<filter>
							<enabled>TRUE</enabled>
							<start>0</start>
							<end>631.1680272108844</end>
							<effect>
								<name>Basic Motion</name>
								<effectid>basic</effectid>
								<effecttype>motion</effecttype>
								<mediatype>video</mediatype>
								<effectcategory>motion</effectcategory>
								<parameter>
									<name>Scale</name>
									<parameterid>scale</parameterid>
									<value>100</value>
									<valuemin>0</valuemin>
									<valuemax>10000</valuemax>
								</parameter>
								<parameter>
									<name>Center</name>
									<parameterid>center</parameterid>
									<value>
										<horiz>0</horiz>
										<vert>0</vert>
									</value>
								</parameter>
								<parameter>
									<name>Rotation</name>
									<parameterid>rotation</parameterid>
									<value>0</value>
									<valuemin>-100000</valuemin>
									<valuemax>100000</valuemax>
								</parameter>
								<parameter>
									<name>Anchor Point</name>
									<parameterid>centerOffset</parameterid>
									<value>
										<horiz>0</horiz>
										<vert>0</vert>
									</value>
								</parameter>
							</effect>
						</filter>
						<filter>
							<enabled>TRUE</enabled>
							<start>0</start>
							<end>631.1680272108844</end>
							<effect>
								<name>Crop</name>
								<effectid>crop</effectid>
								<effecttype>motion</effecttype>
								<mediatype>video</mediatype>
								<effectcategory>motion</effectcategory>
								<parameter>
									<name>left</name>
									<parameterid>left</parameterid>
									<value>0</value>
									<valuemin>0</valuemin>
									<valuemax>100</valuemax>
								</parameter>
								<parameter>
									<name>right</name>
									<parameterid>right</parameterid>
									<value>0</value>
									<valuemin>0</valuemin>
									<valuemax>100</valuemax>
								</parameter>
								<parameter>
									<name>top</name>
									<parameterid>top</parameterid>
									<value>0</value>
									<valuemin>0</valuemin>
									<valuemax>100</valuemax>
								</parameter>
								<parameter>
									<name>bottom</name>
									<parameterid>bottom</parameterid>
									<value>0</value>
									<valuemin>0</valuemin>
									<valuemax>100</valuemax>
								</parameter>
							</effect>
						</filter>
						<filter>
							<enabled>TRUE</enabled>
							<start>0</start>
							<end>631.1680272108844</end>
							<effect>
								<name>Opacity</name>
								<effectid>opacity</effectid>
								<effecttype>motion</effecttype>
								<mediatype>video</mediatype>
								<effectcategory>motion</effectcategory>
								<parameter>
									<name>opacity</name>
									<parameterid>opacity</parameterid>
									<value>100</value>
									<valuemin>0</valuemin>
									<valuemax>100</valuemax>
								</parameter>
							</effect>
						</filter>
						<link>
							<linkclipref>ep6c1</linkclipref>
						</link>
						<link>
							<linkclipref>ep6c1-63a</linkclipref>
						</link>
					</clipitem>
					<clipitem id="ep6c1-64">
						<name>ep6c1cut</name>
						<file id="ep6c1">
							<duration>631.1680272108844</duration>
						</file>
						<rate>
							<timebase>60.0</timebase>
							<ntsc>FALSE</ntsc>
						</rate>
						<start>10385</start>
						<stop>10501</stop>
						<enabled>TRUE</enabled>
						<in>27134</in>
						<out>27251</out>
						<compositemode>normal</compositemode>
						<filter>
							<enabled>TRUE</enabled>
							<start>0</start>
							<end>631.1680272108844</end>
							<effect>
								<name>Basic Motion</name>
								<effectid>basic</effectid>
								<effecttype>motion</effecttype>
								<mediatype>video</mediatype>
								<effectcategory>motion</effectcategory>
								<parameter>
									<name>Scale</name>
									<parameterid>scale</parameterid>
									<value>100</value>
									<valuemin>0</valuemin>
									<valuemax>10000</valuemax>
								</parameter>
								<parameter>
									<name>Center</name>
									<parameterid>center</parameterid>
									<value>
										<horiz>0</horiz>
										<vert>0</vert>
									</value>
								</parameter>
								<parameter>
									<name>Rotation</name>
									<parameterid>rotation</parameterid>
									<value>0</value>
									<valuemin>-100000</valuemin>
									<valuemax>100000</valuemax>
								</parameter>
								<parameter>
									<name>Anchor Point</name>
									<parameterid>centerOffset</parameterid>
									<value>
										<horiz>0</horiz>
										<vert>0</vert>
									</value>
								</parameter>
							</effect>
						</filter>
						<filter>
							<enabled>TRUE</enabled>
							<start>0</start>
							<end>631.1680272108844</end>
							<effect>
								<name>Crop</name>
								<effectid>crop</effectid>
								<effecttype>motion</effecttype>
								<mediatype>video</mediatype>
								<effectcategory>motion</effectcategory>
								<parameter>
									<name>left</name>
									<parameterid>left</parameterid>
									<value>0</value>
									<valuemin>0</valuemin>
									<valuemax>100</valuemax>
								</parameter>
								<parameter>
									<name>right</name>
									<parameterid>right</parameterid>
									<value>0</value>
									<valuemin>0</valuemin>
									<valuemax>100</valuemax>
								</parameter>
								<parameter>
									<name>top</name>
									<parameterid>top</parameterid>
									<value>0</value>
									<valuemin>0</valuemin>
									<valuemax>100</valuemax>
								</parameter>
								<parameter>
									<name>bottom</name>
									<parameterid>bottom</parameterid>
									<value>0</value>
									<valuemin>0</valuemin>
									<valuemax>100</valuemax>
								</parameter>
							</effect>
						</filter>
						<filter>
							<enabled>TRUE</enabled>
							<start>0</start>
							<end>631.1680272108844</end>
							<effect>
								<name>Opacity</name>
								<effectid>opacity</effectid>
								<effecttype>motion</effecttype>
								<mediatype>video</mediatype>
								<effectcategory>motion</effectcategory>
								<parameter>
									<name>opacity</name>
									<parameterid>opacity</parameterid>
									<value>100</value>
									<valuemin>0</valuemin>
									<valuemax>100</valuemax>
								</parameter>
							</effect>
						</filter>
						<link>
							<linkclipref>ep6c1</linkclipref>
						</link>
						<link>
							<linkclipref>ep6c1-64a</linkclipref>
						</link>
					</clipitem>
					<clipitem id="ep6c1-65">
						<name>ep6c1cut</name>
						<file id="ep6c1">
							<duration>631.1680272108844</duration>
						</file>
						<rate>
							<timebase>60.0</timebase>
							<ntsc>FALSE</ntsc>
						</rate>
						<start>10501</start>
						<stop>10582</stop>
						<enabled>TRUE</enabled>
						<in>27401</in>
						<out>27482</out>
						<compositemode>normal</compositemode>
						<filter>
							<enabled>TRUE</enabled>
							<start>0</start>
							<end>631.1680272108844</end>
							<effect>
								<name>Basic Motion</name>
								<effectid>basic</effectid>
								<effecttype>motion</effecttype>
								<mediatype>video</mediatype>
								<effectcategory>motion</effectcategory>
								<parameter>
									<name>Scale</name>
									<parameterid>scale</parameterid>
									<value>100</value>
									<valuemin>0</valuemin>
									<valuemax>10000</valuemax>
								</parameter>
								<parameter>
									<name>Center</name>
									<parameterid>center</parameterid>
									<value>
										<horiz>0</horiz>
										<vert>0</vert>
									</value>
								</parameter>
								<parameter>
									<name>Rotation</name>
									<parameterid>rotation</parameterid>
									<value>0</value>
									<valuemin>-100000</valuemin>
									<valuemax>100000</valuemax>
								</parameter>
								<parameter>
									<name>Anchor Point</name>
									<parameterid>centerOffset</parameterid>
									<value>
										<horiz>0</horiz>
										<vert>0</vert>
									</value>
								</parameter>
							</effect>
						</filter>
						<filter>
							<enabled>TRUE</enabled>
							<start>0</start>
							<end>631.1680272108844</end>
							<effect>
								<name>Crop</name>
								<effectid>crop</effectid>
								<effecttype>motion</effecttype>
								<mediatype>video</mediatype>
								<effectcategory>motion</effectcategory>
								<parameter>
									<name>left</name>
									<parameterid>left</parameterid>
									<value>0</value>
									<valuemin>0</valuemin>
									<valuemax>100</valuemax>
								</parameter>
								<parameter>
									<name>right</name>
									<parameterid>right</parameterid>
									<value>0</value>
									<valuemin>0</valuemin>
									<valuemax>100</valuemax>
								</parameter>
								<parameter>
									<name>top</name>
									<parameterid>top</parameterid>
									<value>0</value>
									<valuemin>0</valuemin>
									<valuemax>100</valuemax>
								</parameter>
								<parameter>
									<name>bottom</name>
									<parameterid>bottom</parameterid>
									<value>0</value>
									<valuemin>0</valuemin>
									<valuemax>100</valuemax>
								</parameter>
							</effect>
						</filter>
						<filter>
							<enabled>TRUE</enabled>
							<start>0</start>
							<end>631.1680272108844</end>
							<effect>
								<name>Opacity</name>
								<effectid>opacity</effectid>
								<effecttype>motion</effecttype>
								<mediatype>video</mediatype>
								<effectcategory>motion</effectcategory>
								<parameter>
									<name>opacity</name>
									<parameterid>opacity</parameterid>
									<value>100</value>
									<valuemin>0</valuemin>
									<valuemax>100</valuemax>
								</parameter>
							</effect>
						</filter>
						<link>
							<linkclipref>ep6c1</linkclipref>
						</link>
						<link>
							<linkclipref>ep6c1-65a</linkclipref>
						</link>
					</clipitem>
					<clipitem id="ep6c1-66">
						<name>ep6c1cut</name>
						<file id="ep6c1">
							<duration>631.1680272108844</duration>
						</file>
						<rate>
							<timebase>60.0</timebase>
							<ntsc>FALSE</ntsc>
						</rate>
						<start>10582</start>
						<stop>10676</stop>
						<enabled>TRUE</enabled>
						<in>27577</in>
						<out>27672</out>
						<compositemode>normal</compositemode>
						<filter>
							<enabled>TRUE</enabled>
							<start>0</start>
							<end>631.1680272108844</end>
							<effect>
								<name>Basic Motion</name>
								<effectid>basic</effectid>
								<effecttype>motion</effecttype>
								<mediatype>video</mediatype>
								<effectcategory>motion</effectcategory>
								<parameter>
									<name>Scale</name>
									<parameterid>scale</parameterid>
									<value>100</value>
									<valuemin>0</valuemin>
									<valuemax>10000</valuemax>
								</parameter>
								<parameter>
									<name>Center</name>
									<parameterid>center</parameterid>
									<value>
										<horiz>0</horiz>
										<vert>0</vert>
									</value>
								</parameter>
								<parameter>
									<name>Rotation</name>
									<parameterid>rotation</parameterid>
									<value>0</value>
									<valuemin>-100000</valuemin>
									<valuemax>100000</valuemax>
								</parameter>
								<parameter>
									<name>Anchor Point</name>
									<parameterid>centerOffset</parameterid>
									<value>
										<horiz>0</horiz>
										<vert>0</vert>
									</value>
								</parameter>
							</effect>
						</filter>
						<filter>
							<enabled>TRUE</enabled>
							<start>0</start>
							<end>631.1680272108844</end>
							<effect>
								<name>Crop</name>
								<effectid>crop</effectid>
								<effecttype>motion</effecttype>
								<mediatype>video</mediatype>
								<effectcategory>motion</effectcategory>
								<parameter>
									<name>left</name>
									<parameterid>left</parameterid>
									<value>0</value>
									<valuemin>0</valuemin>
									<valuemax>100</valuemax>
								</parameter>
								<parameter>
									<name>right</name>
									<parameterid>right</parameterid>
									<value>0</value>
									<valuemin>0</valuemin>
									<valuemax>100</valuemax>
								</parameter>
								<parameter>
									<name>top</name>
									<parameterid>top</parameterid>
									<value>0</value>
									<valuemin>0</valuemin>
									<valuemax>100</valuemax>
								</parameter>
								<parameter>
									<name>bottom</name>
									<parameterid>bottom</parameterid>
									<value>0</value>
									<valuemin>0</valuemin>
									<valuemax>100</valuemax>
								</parameter>
							</effect>
						</filter>
						<filter>
							<enabled>TRUE</enabled>
							<start>0</start>
							<end>631.1680272108844</end>
							<effect>
								<name>Opacity</name>
								<effectid>opacity</effectid>
								<effecttype>motion</effecttype>
								<mediatype>video</mediatype>
								<effectcategory>motion</effectcategory>
								<parameter>
									<name>opacity</name>
									<parameterid>opacity</parameterid>
									<value>100</value>
									<valuemin>0</valuemin>
									<valuemax>100</valuemax>
								</parameter>
							</effect>
						</filter>
						<link>
							<linkclipref>ep6c1</linkclipref>
						</link>
						<link>
							<linkclipref>ep6c1-66a</linkclipref>
						</link>
					</clipitem>
					<clipitem id="ep6c1-67">
						<name>ep6c1cut</name>
						<file id="ep6c1">
							<duration>631.1680272108844</duration>
						</file>
						<rate>
							<timebase>60.0</timebase>
							<ntsc>FALSE</ntsc>
						</rate>
						<start>10676</start>
						<stop>10775</stop>
						<enabled>TRUE</enabled>
						<in>27856</in>
						<out>27955</out>
						<compositemode>normal</compositemode>
						<filter>
							<enabled>TRUE</enabled>
							<start>0</start>
							<end>631.1680272108844</end>
							<effect>
								<name>Basic Motion</name>
								<effectid>basic</effectid>
								<effecttype>motion</effecttype>
								<mediatype>video</mediatype>
								<effectcategory>motion</effectcategory>
								<parameter>
									<name>Scale</name>
									<parameterid>scale</parameterid>
									<value>100</value>
									<valuemin>0</valuemin>
									<valuemax>10000</valuemax>
								</parameter>
								<parameter>
									<name>Center</name>
									<parameterid>center</parameterid>
									<value>
										<horiz>0</horiz>
										<vert>0</vert>
									</value>
								</parameter>
								<parameter>
									<name>Rotation</name>
									<parameterid>rotation</parameterid>
									<value>0</value>
									<valuemin>-100000</valuemin>
									<valuemax>100000</valuemax>
								</parameter>
								<parameter>
									<name>Anchor Point</name>
									<parameterid>centerOffset</parameterid>
									<value>
										<horiz>0</horiz>
										<vert>0</vert>
									</value>
								</parameter>
							</effect>
						</filter>
						<filter>
							<enabled>TRUE</enabled>
							<start>0</start>
							<end>631.1680272108844</end>
							<effect>
								<name>Crop</name>
								<effectid>crop</effectid>
								<effecttype>motion</effecttype>
								<mediatype>video</mediatype>
								<effectcategory>motion</effectcategory>
								<parameter>
									<name>left</name>
									<parameterid>left</parameterid>
									<value>0</value>
									<valuemin>0</valuemin>
									<valuemax>100</valuemax>
								</parameter>
								<parameter>
									<name>right</name>
									<parameterid>right</parameterid>
									<value>0</value>
									<valuemin>0</valuemin>
									<valuemax>100</valuemax>
								</parameter>
								<parameter>
									<name>top</name>
									<parameterid>top</parameterid>
									<value>0</value>
									<valuemin>0</valuemin>
									<valuemax>100</valuemax>
								</parameter>
								<parameter>
									<name>bottom</name>
									<parameterid>bottom</parameterid>
									<value>0</value>
									<valuemin>0</valuemin>
									<valuemax>100</valuemax>
								</parameter>
							</effect>
						</filter>
						<filter>
							<enabled>TRUE</enabled>
							<start>0</start>
							<end>631.1680272108844</end>
							<effect>
								<name>Opacity</name>
								<effectid>opacity</effectid>
								<effecttype>motion</effecttype>
								<mediatype>video</mediatype>
								<effectcategory>motion</effectcategory>
								<parameter>
									<name>opacity</name>
									<parameterid>opacity</parameterid>
									<value>100</value>
									<valuemin>0</valuemin>
									<valuemax>100</valuemax>
								</parameter>
							</effect>
						</filter>
						<link>
							<linkclipref>ep6c1</linkclipref>
						</link>
						<link>
							<linkclipref>ep6c1-67a</linkclipref>
						</link>
					</clipitem>
					<clipitem id="ep6c1-68">
						<name>ep6c1cut</name>
						<file id="ep6c1">
							<duration>631.1680272108844</duration>
						</file>
						<rate>
							<timebase>60.0</timebase>
							<ntsc>FALSE</ntsc>
						</rate>
						<start>10775</start>
						<stop>10902</stop>
						<enabled>TRUE</enabled>
						<in>28227</in>
						<out>28355</out>
						<compositemode>normal</compositemode>
						<filter>
							<enabled>TRUE</enabled>
							<start>0</start>
							<end>631.1680272108844</end>
							<effect>
								<name>Basic Motion</name>
								<effectid>basic</effectid>
								<effecttype>motion</effecttype>
								<mediatype>video</mediatype>
								<effectcategory>motion</effectcategory>
								<parameter>
									<name>Scale</name>
									<parameterid>scale</parameterid>
									<value>100</value>
									<valuemin>0</valuemin>
									<valuemax>10000</valuemax>
								</parameter>
								<parameter>
									<name>Center</name>
									<parameterid>center</parameterid>
									<value>
										<horiz>0</horiz>
										<vert>0</vert>
									</value>
								</parameter>
								<parameter>
									<name>Rotation</name>
									<parameterid>rotation</parameterid>
									<value>0</value>
									<valuemin>-100000</valuemin>
									<valuemax>100000</valuemax>
								</parameter>
								<parameter>
									<name>Anchor Point</name>
									<parameterid>centerOffset</parameterid>
									<value>
										<horiz>0</horiz>
										<vert>0</vert>
									</value>
								</parameter>
							</effect>
						</filter>
						<filter>
							<enabled>TRUE</enabled>
							<start>0</start>
							<end>631.1680272108844</end>
							<effect>
								<name>Crop</name>
								<effectid>crop</effectid>
								<effecttype>motion</effecttype>
								<mediatype>video</mediatype>
								<effectcategory>motion</effectcategory>
								<parameter>
									<name>left</name>
									<parameterid>left</parameterid>
									<value>0</value>
									<valuemin>0</valuemin>
									<valuemax>100</valuemax>
								</parameter>
								<parameter>
									<name>right</name>
									<parameterid>right</parameterid>
									<value>0</value>
									<valuemin>0</valuemin>
									<valuemax>100</valuemax>
								</parameter>
								<parameter>
									<name>top</name>
									<parameterid>top</parameterid>
									<value>0</value>
									<valuemin>0</valuemin>
									<valuemax>100</valuemax>
								</parameter>
								<parameter>
									<name>bottom</name>
									<parameterid>bottom</parameterid>
									<value>0</value>
									<valuemin>0</valuemin>
									<valuemax>100</valuemax>
								</parameter>
							</effect>
						</filter>
						<filter>
							<enabled>TRUE</enabled>
							<start>0</start>
							<end>631.1680272108844</end>
							<effect>
								<name>Opacity</name>
								<effectid>opacity</effectid>
								<effecttype>motion</effecttype>
								<mediatype>video</mediatype>
								<effectcategory>motion</effectcategory>
								<parameter>
									<name>opacity</name>
									<parameterid>opacity</parameterid>
									<value>100</value>
									<valuemin>0</valuemin>
									<valuemax>100</valuemax>
								</parameter>
							</effect>
						</filter>
						<link>
							<linkclipref>ep6c1</linkclipref>
						</link>
						<link>
							<linkclipref>ep6c1-68a</linkclipref>
						</link>
					</clipitem>
					<clipitem id="ep6c1-69">
						<name>ep6c1cut</name>
						<file id="ep6c1">
							<duration>631.1680272108844</duration>
						</file>
						<rate>
							<timebase>60.0</timebase>
							<ntsc>FALSE</ntsc>
						</rate>
						<start>10902</start>
						<stop>10988</stop>
						<enabled>TRUE</enabled>
						<in>28413</in>
						<out>28500</out>
						<compositemode>normal</compositemode>
						<filter>
							<enabled>TRUE</enabled>
							<start>0</start>
							<end>631.1680272108844</end>
							<effect>
								<name>Basic Motion</name>
								<effectid>basic</effectid>
								<effecttype>motion</effecttype>
								<mediatype>video</mediatype>
								<effectcategory>motion</effectcategory>
								<parameter>
									<name>Scale</name>
									<parameterid>scale</parameterid>
									<value>100</value>
									<valuemin>0</valuemin>
									<valuemax>10000</valuemax>
								</parameter>
								<parameter>
									<name>Center</name>
									<parameterid>center</parameterid>
									<value>
										<horiz>0</horiz>
										<vert>0</vert>
									</value>
								</parameter>
								<parameter>
									<name>Rotation</name>
									<parameterid>rotation</parameterid>
									<value>0</value>
									<valuemin>-100000</valuemin>
									<valuemax>100000</valuemax>
								</parameter>
								<parameter>
									<name>Anchor Point</name>
									<parameterid>centerOffset</parameterid>
									<value>
										<horiz>0</horiz>
										<vert>0</vert>
									</value>
								</parameter>
							</effect>
						</filter>
						<filter>
							<enabled>TRUE</enabled>
							<start>0</start>
							<end>631.1680272108844</end>
							<effect>
								<name>Crop</name>
								<effectid>crop</effectid>
								<effecttype>motion</effecttype>
								<mediatype>video</mediatype>
								<effectcategory>motion</effectcategory>
								<parameter>
									<name>left</name>
									<parameterid>left</parameterid>
									<value>0</value>
									<valuemin>0</valuemin>
									<valuemax>100</valuemax>
								</parameter>
								<parameter>
									<name>right</name>
									<parameterid>right</parameterid>
									<value>0</value>
									<valuemin>0</valuemin>
									<valuemax>100</valuemax>
								</parameter>
								<parameter>
									<name>top</name>
									<parameterid>top</parameterid>
									<value>0</value>
									<valuemin>0</valuemin>
									<valuemax>100</valuemax>
								</parameter>
								<parameter>
									<name>bottom</name>
									<parameterid>bottom</parameterid>
									<value>0</value>
									<valuemin>0</valuemin>
									<valuemax>100</valuemax>
								</parameter>
							</effect>
						</filter>
						<filter>
							<enabled>TRUE</enabled>
							<start>0</start>
							<end>631.1680272108844</end>
							<effect>
								<name>Opacity</name>
								<effectid>opacity</effectid>
								<effecttype>motion</effecttype>
								<mediatype>video</mediatype>
								<effectcategory>motion</effectcategory>
								<parameter>
									<name>opacity</name>
									<parameterid>opacity</parameterid>
									<value>100</value>
									<valuemin>0</valuemin>
									<valuemax>100</valuemax>
								</parameter>
							</effect>
						</filter>
						<link>
							<linkclipref>ep6c1</linkclipref>
						</link>
						<link>
							<linkclipref>ep6c1-69a</linkclipref>
						</link>
					</clipitem>
					<clipitem id="ep6c1-70">
						<name>ep6c1cut</name>
						<file id="ep6c1">
							<duration>631.1680272108844</duration>
						</file>
						<rate>
							<timebase>60.0</timebase>
							<ntsc>FALSE</ntsc>
						</rate>
						<start>10988</start>
						<stop>11072</stop>
						<enabled>TRUE</enabled>
						<in>28767</in>
						<out>28851</out>
						<compositemode>normal</compositemode>
						<filter>
							<enabled>TRUE</enabled>
							<start>0</start>
							<end>631.1680272108844</end>
							<effect>
								<name>Basic Motion</name>
								<effectid>basic</effectid>
								<effecttype>motion</effecttype>
								<mediatype>video</mediatype>
								<effectcategory>motion</effectcategory>
								<parameter>
									<name>Scale</name>
									<parameterid>scale</parameterid>
									<value>100</value>
									<valuemin>0</valuemin>
									<valuemax>10000</valuemax>
								</parameter>
								<parameter>
									<name>Center</name>
									<parameterid>center</parameterid>
									<value>
										<horiz>0</horiz>
										<vert>0</vert>
									</value>
								</parameter>
								<parameter>
									<name>Rotation</name>
									<parameterid>rotation</parameterid>
									<value>0</value>
									<valuemin>-100000</valuemin>
									<valuemax>100000</valuemax>
								</parameter>
								<parameter>
									<name>Anchor Point</name>
									<parameterid>centerOffset</parameterid>
									<value>
										<horiz>0</horiz>
										<vert>0</vert>
									</value>
								</parameter>
							</effect>
						</filter>
						<filter>
							<enabled>TRUE</enabled>
							<start>0</start>
							<end>631.1680272108844</end>
							<effect>
								<name>Crop</name>
								<effectid>crop</effectid>
								<effecttype>motion</effecttype>
								<mediatype>video</mediatype>
								<effectcategory>motion</effectcategory>
								<parameter>
									<name>left</name>
									<parameterid>left</parameterid>
									<value>0</value>
									<valuemin>0</valuemin>
									<valuemax>100</valuemax>
								</parameter>
								<parameter>
									<name>right</name>
									<parameterid>right</parameterid>
									<value>0</value>
									<valuemin>0</valuemin>
									<valuemax>100</valuemax>
								</parameter>
								<parameter>
									<name>top</name>
									<parameterid>top</parameterid>
									<value>0</value>
									<valuemin>0</valuemin>
									<valuemax>100</valuemax>
								</parameter>
								<parameter>
									<name>bottom</name>
									<parameterid>bottom</parameterid>
									<value>0</value>
									<valuemin>0</valuemin>
									<valuemax>100</valuemax>
								</parameter>
							</effect>
						</filter>
						<filter>
							<enabled>TRUE</enabled>
							<start>0</start>
							<end>631.1680272108844</end>
							<effect>
								<name>Opacity</name>
								<effectid>opacity</effectid>
								<effecttype>motion</effecttype>
								<mediatype>video</mediatype>
								<effectcategory>motion</effectcategory>
								<parameter>
									<name>opacity</name>
									<parameterid>opacity</parameterid>
									<value>100</value>
									<valuemin>0</valuemin>
									<valuemax>100</valuemax>
								</parameter>
							</effect>
						</filter>
						<link>
							<linkclipref>ep6c1</linkclipref>
						</link>
						<link>
							<linkclipref>ep6c1-70a</linkclipref>
						</link>
					</clipitem>
					<clipitem id="ep6c1-71">
						<name>ep6c1cut</name>
						<file id="ep6c1">
							<duration>631.1680272108844</duration>
						</file>
						<rate>
							<timebase>60.0</timebase>
							<ntsc>FALSE</ntsc>
						</rate>
						<start>11072</start>
						<stop>11170</stop>
						<enabled>TRUE</enabled>
						<in>28868</in>
						<out>28967</out>
						<compositemode>normal</compositemode>
						<filter>
							<enabled>TRUE</enabled>
							<start>0</start>
							<end>631.1680272108844</end>
							<effect>
								<name>Basic Motion</name>
								<effectid>basic</effectid>
								<effecttype>motion</effecttype>
								<mediatype>video</mediatype>
								<effectcategory>motion</effectcategory>
								<parameter>
									<name>Scale</name>
									<parameterid>scale</parameterid>
									<value>100</value>
									<valuemin>0</valuemin>
									<valuemax>10000</valuemax>
								</parameter>
								<parameter>
									<name>Center</name>
									<parameterid>center</parameterid>
									<value>
										<horiz>0</horiz>
										<vert>0</vert>
									</value>
								</parameter>
								<parameter>
									<name>Rotation</name>
									<parameterid>rotation</parameterid>
									<value>0</value>
									<valuemin>-100000</valuemin>
									<valuemax>100000</valuemax>
								</parameter>
								<parameter>
									<name>Anchor Point</name>
									<parameterid>centerOffset</parameterid>
									<value>
										<horiz>0</horiz>
										<vert>0</vert>
									</value>
								</parameter>
							</effect>
						</filter>
						<filter>
							<enabled>TRUE</enabled>
							<start>0</start>
							<end>631.1680272108844</end>
							<effect>
								<name>Crop</name>
								<effectid>crop</effectid>
								<effecttype>motion</effecttype>
								<mediatype>video</mediatype>
								<effectcategory>motion</effectcategory>
								<parameter>
									<name>left</name>
									<parameterid>left</parameterid>
									<value>0</value>
									<valuemin>0</valuemin>
									<valuemax>100</valuemax>
								</parameter>
								<parameter>
									<name>right</name>
									<parameterid>right</parameterid>
									<value>0</value>
									<valuemin>0</valuemin>
									<valuemax>100</valuemax>
								</parameter>
								<parameter>
									<name>top</name>
									<parameterid>top</parameterid>
									<value>0</value>
									<valuemin>0</valuemin>
									<valuemax>100</valuemax>
								</parameter>
								<parameter>
									<name>bottom</name>
									<parameterid>bottom</parameterid>
									<value>0</value>
									<valuemin>0</valuemin>
									<valuemax>100</valuemax>
								</parameter>
							</effect>
						</filter>
						<filter>
							<enabled>TRUE</enabled>
							<start>0</start>
							<end>631.1680272108844</end>
							<effect>
								<name>Opacity</name>
								<effectid>opacity</effectid>
								<effecttype>motion</effecttype>
								<mediatype>video</mediatype>
								<effectcategory>motion</effectcategory>
								<parameter>
									<name>opacity</name>
									<parameterid>opacity</parameterid>
									<value>100</value>
									<valuemin>0</valuemin>
									<valuemax>100</valuemax>
								</parameter>
							</effect>
						</filter>
						<link>
							<linkclipref>ep6c1</linkclipref>
						</link>
						<link>
							<linkclipref>ep6c1-71a</linkclipref>
						</link>
					</clipitem>
					<clipitem id="ep6c1-72">
						<name>ep6c1cut</name>
						<file id="ep6c1">
							<duration>631.1680272108844</duration>
						</file>
						<rate>
							<timebase>60.0</timebase>
							<ntsc>FALSE</ntsc>
						</rate>
						<start>11170</start>
						<stop>11279</stop>
						<enabled>TRUE</enabled>
						<in>28976</in>
						<out>29085</out>
						<compositemode>normal</compositemode>
						<filter>
							<enabled>TRUE</enabled>
							<start>0</start>
							<end>631.1680272108844</end>
							<effect>
								<name>Basic Motion</name>
								<effectid>basic</effectid>
								<effecttype>motion</effecttype>
								<mediatype>video</mediatype>
								<effectcategory>motion</effectcategory>
								<parameter>
									<name>Scale</name>
									<parameterid>scale</parameterid>
									<value>100</value>
									<valuemin>0</valuemin>
									<valuemax>10000</valuemax>
								</parameter>
								<parameter>
									<name>Center</name>
									<parameterid>center</parameterid>
									<value>
										<horiz>0</horiz>
										<vert>0</vert>
									</value>
								</parameter>
								<parameter>
									<name>Rotation</name>
									<parameterid>rotation</parameterid>
									<value>0</value>
									<valuemin>-100000</valuemin>
									<valuemax>100000</valuemax>
								</parameter>
								<parameter>
									<name>Anchor Point</name>
									<parameterid>centerOffset</parameterid>
									<value>
										<horiz>0</horiz>
										<vert>0</vert>
									</value>
								</parameter>
							</effect>
						</filter>
						<filter>
							<enabled>TRUE</enabled>
							<start>0</start>
							<end>631.1680272108844</end>
							<effect>
								<name>Crop</name>
								<effectid>crop</effectid>
								<effecttype>motion</effecttype>
								<mediatype>video</mediatype>
								<effectcategory>motion</effectcategory>
								<parameter>
									<name>left</name>
									<parameterid>left</parameterid>
									<value>0</value>
									<valuemin>0</valuemin>
									<valuemax>100</valuemax>
								</parameter>
								<parameter>
									<name>right</name>
									<parameterid>right</parameterid>
									<value>0</value>
									<valuemin>0</valuemin>
									<valuemax>100</valuemax>
								</parameter>
								<parameter>
									<name>top</name>
									<parameterid>top</parameterid>
									<value>0</value>
									<valuemin>0</valuemin>
									<valuemax>100</valuemax>
								</parameter>
								<parameter>
									<name>bottom</name>
									<parameterid>bottom</parameterid>
									<value>0</value>
									<valuemin>0</valuemin>
									<valuemax>100</valuemax>
								</parameter>
							</effect>
						</filter>
						<filter>
							<enabled>TRUE</enabled>
							<start>0</start>
							<end>631.1680272108844</end>
							<effect>
								<name>Opacity</name>
								<effectid>opacity</effectid>
								<effecttype>motion</effecttype>
								<mediatype>video</mediatype>
								<effectcategory>motion</effectcategory>
								<parameter>
									<name>opacity</name>
									<parameterid>opacity</parameterid>
									<value>100</value>
									<valuemin>0</valuemin>
									<valuemax>100</valuemax>
								</parameter>
							</effect>
						</filter>
						<link>
							<linkclipref>ep6c1</linkclipref>
						</link>
						<link>
							<linkclipref>ep6c1-72a</linkclipref>
						</link>
					</clipitem>
					<clipitem id="ep6c1-73">
						<name>ep6c1cut</name>
						<file id="ep6c1">
							<duration>631.1680272108844</duration>
						</file>
						<rate>
							<timebase>60.0</timebase>
							<ntsc>FALSE</ntsc>
						</rate>
						<start>11279</start>
						<stop>11352</stop>
						<enabled>TRUE</enabled>
						<in>29128</in>
						<out>29202</out>
						<compositemode>normal</compositemode>
						<filter>
							<enabled>TRUE</enabled>
							<start>0</start>
							<end>631.1680272108844</end>
							<effect>
								<name>Basic Motion</name>
								<effectid>basic</effectid>
								<effecttype>motion</effecttype>
								<mediatype>video</mediatype>
								<effectcategory>motion</effectcategory>
								<parameter>
									<name>Scale</name>
									<parameterid>scale</parameterid>
									<value>100</value>
									<valuemin>0</valuemin>
									<valuemax>10000</valuemax>
								</parameter>
								<parameter>
									<name>Center</name>
									<parameterid>center</parameterid>
									<value>
										<horiz>0</horiz>
										<vert>0</vert>
									</value>
								</parameter>
								<parameter>
									<name>Rotation</name>
									<parameterid>rotation</parameterid>
									<value>0</value>
									<valuemin>-100000</valuemin>
									<valuemax>100000</valuemax>
								</parameter>
								<parameter>
									<name>Anchor Point</name>
									<parameterid>centerOffset</parameterid>
									<value>
										<horiz>0</horiz>
										<vert>0</vert>
									</value>
								</parameter>
							</effect>
						</filter>
						<filter>
							<enabled>TRUE</enabled>
							<start>0</start>
							<end>631.1680272108844</end>
							<effect>
								<name>Crop</name>
								<effectid>crop</effectid>
								<effecttype>motion</effecttype>
								<mediatype>video</mediatype>
								<effectcategory>motion</effectcategory>
								<parameter>
									<name>left</name>
									<parameterid>left</parameterid>
									<value>0</value>
									<valuemin>0</valuemin>
									<valuemax>100</valuemax>
								</parameter>
								<parameter>
									<name>right</name>
									<parameterid>right</parameterid>
									<value>0</value>
									<valuemin>0</valuemin>
									<valuemax>100</valuemax>
								</parameter>
								<parameter>
									<name>top</name>
									<parameterid>top</parameterid>
									<value>0</value>
									<valuemin>0</valuemin>
									<valuemax>100</valuemax>
								</parameter>
								<parameter>
									<name>bottom</name>
									<parameterid>bottom</parameterid>
									<value>0</value>
									<valuemin>0</valuemin>
									<valuemax>100</valuemax>
								</parameter>
							</effect>
						</filter>
						<filter>
							<enabled>TRUE</enabled>
							<start>0</start>
							<end>631.1680272108844</end>
							<effect>
								<name>Opacity</name>
								<effectid>opacity</effectid>
								<effecttype>motion</effecttype>
								<mediatype>video</mediatype>
								<effectcategory>motion</effectcategory>
								<parameter>
									<name>opacity</name>
									<parameterid>opacity</parameterid>
									<value>100</value>
									<valuemin>0</valuemin>
									<valuemax>100</valuemax>
								</parameter>
							</effect>
						</filter>
						<link>
							<linkclipref>ep6c1</linkclipref>
						</link>
						<link>
							<linkclipref>ep6c1-73a</linkclipref>
						</link>
					</clipitem>
					<clipitem id="ep6c1-74">
						<name>ep6c1cut</name>
						<file id="ep6c1">
							<duration>631.1680272108844</duration>
						</file>
						<rate>
							<timebase>60.0</timebase>
							<ntsc>FALSE</ntsc>
						</rate>
						<start>11352</start>
						<stop>11514</stop>
						<enabled>TRUE</enabled>
						<in>29225</in>
						<out>29387</out>
						<compositemode>normal</compositemode>
						<filter>
							<enabled>TRUE</enabled>
							<start>0</start>
							<end>631.1680272108844</end>
							<effect>
								<name>Basic Motion</name>
								<effectid>basic</effectid>
								<effecttype>motion</effecttype>
								<mediatype>video</mediatype>
								<effectcategory>motion</effectcategory>
								<parameter>
									<name>Scale</name>
									<parameterid>scale</parameterid>
									<value>100</value>
									<valuemin>0</valuemin>
									<valuemax>10000</valuemax>
								</parameter>
								<parameter>
									<name>Center</name>
									<parameterid>center</parameterid>
									<value>
										<horiz>0</horiz>
										<vert>0</vert>
									</value>
								</parameter>
								<parameter>
									<name>Rotation</name>
									<parameterid>rotation</parameterid>
									<value>0</value>
									<valuemin>-100000</valuemin>
									<valuemax>100000</valuemax>
								</parameter>
								<parameter>
									<name>Anchor Point</name>
									<parameterid>centerOffset</parameterid>
									<value>
										<horiz>0</horiz>
										<vert>0</vert>
									</value>
								</parameter>
							</effect>
						</filter>
						<filter>
							<enabled>TRUE</enabled>
							<start>0</start>
							<end>631.1680272108844</end>
							<effect>
								<name>Crop</name>
								<effectid>crop</effectid>
								<effecttype>motion</effecttype>
								<mediatype>video</mediatype>
								<effectcategory>motion</effectcategory>
								<parameter>
									<name>left</name>
									<parameterid>left</parameterid>
									<value>0</value>
									<valuemin>0</valuemin>
									<valuemax>100</valuemax>
								</parameter>
								<parameter>
									<name>right</name>
									<parameterid>right</parameterid>
									<value>0</value>
									<valuemin>0</valuemin>
									<valuemax>100</valuemax>
								</parameter>
								<parameter>
									<name>top</name>
									<parameterid>top</parameterid>
									<value>0</value>
									<valuemin>0</valuemin>
									<valuemax>100</valuemax>
								</parameter>
								<parameter>
									<name>bottom</name>
									<parameterid>bottom</parameterid>
									<value>0</value>
									<valuemin>0</valuemin>
									<valuemax>100</valuemax>
								</parameter>
							</effect>
						</filter>
						<filter>
							<enabled>TRUE</enabled>
							<start>0</start>
							<end>631.1680272108844</end>
							<effect>
								<name>Opacity</name>
								<effectid>opacity</effectid>
								<effecttype>motion</effecttype>
								<mediatype>video</mediatype>
								<effectcategory>motion</effectcategory>
								<parameter>
									<name>opacity</name>
									<parameterid>opacity</parameterid>
									<value>100</value>
									<valuemin>0</valuemin>
									<valuemax>100</valuemax>
								</parameter>
							</effect>
						</filter>
						<link>
							<linkclipref>ep6c1</linkclipref>
						</link>
						<link>
							<linkclipref>ep6c1-74a</linkclipref>
						</link>
					</clipitem>
					<clipitem id="ep6c1-75">
						<name>ep6c1cut</name>
						<file id="ep6c1">
							<duration>631.1680272108844</duration>
						</file>
						<rate>
							<timebase>60.0</timebase>
							<ntsc>FALSE</ntsc>
						</rate>
						<start>11514</start>
						<stop>11642</stop>
						<enabled>TRUE</enabled>
						<in>29470</in>
						<out>29598</out>
						<compositemode>normal</compositemode>
						<filter>
							<enabled>TRUE</enabled>
							<start>0</start>
							<end>631.1680272108844</end>
							<effect>
								<name>Basic Motion</name>
								<effectid>basic</effectid>
								<effecttype>motion</effecttype>
								<mediatype>video</mediatype>
								<effectcategory>motion</effectcategory>
								<parameter>
									<name>Scale</name>
									<parameterid>scale</parameterid>
									<value>100</value>
									<valuemin>0</valuemin>
									<valuemax>10000</valuemax>
								</parameter>
								<parameter>
									<name>Center</name>
									<parameterid>center</parameterid>
									<value>
										<horiz>0</horiz>
										<vert>0</vert>
									</value>
								</parameter>
								<parameter>
									<name>Rotation</name>
									<parameterid>rotation</parameterid>
									<value>0</value>
									<valuemin>-100000</valuemin>
									<valuemax>100000</valuemax>
								</parameter>
								<parameter>
									<name>Anchor Point</name>
									<parameterid>centerOffset</parameterid>
									<value>
										<horiz>0</horiz>
										<vert>0</vert>
									</value>
								</parameter>
							</effect>
						</filter>
						<filter>
							<enabled>TRUE</enabled>
							<start>0</start>
							<end>631.1680272108844</end>
							<effect>
								<name>Crop</name>
								<effectid>crop</effectid>
								<effecttype>motion</effecttype>
								<mediatype>video</mediatype>
								<effectcategory>motion</effectcategory>
								<parameter>
									<name>left</name>
									<parameterid>left</parameterid>
									<value>0</value>
									<valuemin>0</valuemin>
									<valuemax>100</valuemax>
								</parameter>
								<parameter>
									<name>right</name>
									<parameterid>right</parameterid>
									<value>0</value>
									<valuemin>0</valuemin>
									<valuemax>100</valuemax>
								</parameter>
								<parameter>
									<name>top</name>
									<parameterid>top</parameterid>
									<value>0</value>
									<valuemin>0</valuemin>
									<valuemax>100</valuemax>
								</parameter>
								<parameter>
									<name>bottom</name>
									<parameterid>bottom</parameterid>
									<value>0</value>
									<valuemin>0</valuemin>
									<valuemax>100</valuemax>
								</parameter>
							</effect>
						</filter>
						<filter>
							<enabled>TRUE</enabled>
							<start>0</start>
							<end>631.1680272108844</end>
							<effect>
								<name>Opacity</name>
								<effectid>opacity</effectid>
								<effecttype>motion</effecttype>
								<mediatype>video</mediatype>
								<effectcategory>motion</effectcategory>
								<parameter>
									<name>opacity</name>
									<parameterid>opacity</parameterid>
									<value>100</value>
									<valuemin>0</valuemin>
									<valuemax>100</valuemax>
								</parameter>
							</effect>
						</filter>
						<link>
							<linkclipref>ep6c1</linkclipref>
						</link>
						<link>
							<linkclipref>ep6c1-75a</linkclipref>
						</link>
					</clipitem>
					<clipitem id="ep6c1-76">
						<name>ep6c1cut</name>
						<file id="ep6c1">
							<duration>631.1680272108844</duration>
						</file>
						<rate>
							<timebase>60.0</timebase>
							<ntsc>FALSE</ntsc>
						</rate>
						<start>11642</start>
						<stop>11819</stop>
						<enabled>TRUE</enabled>
						<in>30181</in>
						<out>30359</out>
						<compositemode>normal</compositemode>
						<filter>
							<enabled>TRUE</enabled>
							<start>0</start>
							<end>631.1680272108844</end>
							<effect>
								<name>Basic Motion</name>
								<effectid>basic</effectid>
								<effecttype>motion</effecttype>
								<mediatype>video</mediatype>
								<effectcategory>motion</effectcategory>
								<parameter>
									<name>Scale</name>
									<parameterid>scale</parameterid>
									<value>100</value>
									<valuemin>0</valuemin>
									<valuemax>10000</valuemax>
								</parameter>
								<parameter>
									<name>Center</name>
									<parameterid>center</parameterid>
									<value>
										<horiz>0</horiz>
										<vert>0</vert>
									</value>
								</parameter>
								<parameter>
									<name>Rotation</name>
									<parameterid>rotation</parameterid>
									<value>0</value>
									<valuemin>-100000</valuemin>
									<valuemax>100000</valuemax>
								</parameter>
								<parameter>
									<name>Anchor Point</name>
									<parameterid>centerOffset</parameterid>
									<value>
										<horiz>0</horiz>
										<vert>0</vert>
									</value>
								</parameter>
							</effect>
						</filter>
						<filter>
							<enabled>TRUE</enabled>
							<start>0</start>
							<end>631.1680272108844</end>
							<effect>
								<name>Crop</name>
								<effectid>crop</effectid>
								<effecttype>motion</effecttype>
								<mediatype>video</mediatype>
								<effectcategory>motion</effectcategory>
								<parameter>
									<name>left</name>
									<parameterid>left</parameterid>
									<value>0</value>
									<valuemin>0</valuemin>
									<valuemax>100</valuemax>
								</parameter>
								<parameter>
									<name>right</name>
									<parameterid>right</parameterid>
									<value>0</value>
									<valuemin>0</valuemin>
									<valuemax>100</valuemax>
								</parameter>
								<parameter>
									<name>top</name>
									<parameterid>top</parameterid>
									<value>0</value>
									<valuemin>0</valuemin>
									<valuemax>100</valuemax>
								</parameter>
								<parameter>
									<name>bottom</name>
									<parameterid>bottom</parameterid>
									<value>0</value>
									<valuemin>0</valuemin>
									<valuemax>100</valuemax>
								</parameter>
							</effect>
						</filter>
						<filter>
							<enabled>TRUE</enabled>
							<start>0</start>
							<end>631.1680272108844</end>
							<effect>
								<name>Opacity</name>
								<effectid>opacity</effectid>
								<effecttype>motion</effecttype>
								<mediatype>video</mediatype>
								<effectcategory>motion</effectcategory>
								<parameter>
									<name>opacity</name>
									<parameterid>opacity</parameterid>
									<value>100</value>
									<valuemin>0</valuemin>
									<valuemax>100</valuemax>
								</parameter>
							</effect>
						</filter>
						<link>
							<linkclipref>ep6c1</linkclipref>
						</link>
						<link>
							<linkclipref>ep6c1-76a</linkclipref>
						</link>
					</clipitem>
					<clipitem id="ep6c1-77">
						<name>ep6c1cut</name>
						<file id="ep6c1">
							<duration>631.1680272108844</duration>
						</file>
						<rate>
							<timebase>60.0</timebase>
							<ntsc>FALSE</ntsc>
						</rate>
						<start>11819</start>
						<stop>11942</stop>
						<enabled>TRUE</enabled>
						<in>30414</in>
						<out>30538</out>
						<compositemode>normal</compositemode>
						<filter>
							<enabled>TRUE</enabled>
							<start>0</start>
							<end>631.1680272108844</end>
							<effect>
								<name>Basic Motion</name>
								<effectid>basic</effectid>
								<effecttype>motion</effecttype>
								<mediatype>video</mediatype>
								<effectcategory>motion</effectcategory>
								<parameter>
									<name>Scale</name>
									<parameterid>scale</parameterid>
									<value>100</value>
									<valuemin>0</valuemin>
									<valuemax>10000</valuemax>
								</parameter>
								<parameter>
									<name>Center</name>
									<parameterid>center</parameterid>
									<value>
										<horiz>0</horiz>
										<vert>0</vert>
									</value>
								</parameter>
								<parameter>
									<name>Rotation</name>
									<parameterid>rotation</parameterid>
									<value>0</value>
									<valuemin>-100000</valuemin>
									<valuemax>100000</valuemax>
								</parameter>
								<parameter>
									<name>Anchor Point</name>
									<parameterid>centerOffset</parameterid>
									<value>
										<horiz>0</horiz>
										<vert>0</vert>
									</value>
								</parameter>
							</effect>
						</filter>
						<filter>
							<enabled>TRUE</enabled>
							<start>0</start>
							<end>631.1680272108844</end>
							<effect>
								<name>Crop</name>
								<effectid>crop</effectid>
								<effecttype>motion</effecttype>
								<mediatype>video</mediatype>
								<effectcategory>motion</effectcategory>
								<parameter>
									<name>left</name>
									<parameterid>left</parameterid>
									<value>0</value>
									<valuemin>0</valuemin>
									<valuemax>100</valuemax>
								</parameter>
								<parameter>
									<name>right</name>
									<parameterid>right</parameterid>
									<value>0</value>
									<valuemin>0</valuemin>
									<valuemax>100</valuemax>
								</parameter>
								<parameter>
									<name>top</name>
									<parameterid>top</parameterid>
									<value>0</value>
									<valuemin>0</valuemin>
									<valuemax>100</valuemax>
								</parameter>
								<parameter>
									<name>bottom</name>
									<parameterid>bottom</parameterid>
									<value>0</value>
									<valuemin>0</valuemin>
									<valuemax>100</valuemax>
								</parameter>
							</effect>
						</filter>
						<filter>
							<enabled>TRUE</enabled>
							<start>0</start>
							<end>631.1680272108844</end>
							<effect>
								<name>Opacity</name>
								<effectid>opacity</effectid>
								<effecttype>motion</effecttype>
								<mediatype>video</mediatype>
								<effectcategory>motion</effectcategory>
								<parameter>
									<name>opacity</name>
									<parameterid>opacity</parameterid>
									<value>100</value>
									<valuemin>0</valuemin>
									<valuemax>100</valuemax>
								</parameter>
							</effect>
						</filter>
						<link>
							<linkclipref>ep6c1</linkclipref>
						</link>
						<link>
							<linkclipref>ep6c1-77a</linkclipref>
						</link>
					</clipitem>
					<clipitem id="ep6c1-78">
						<name>ep6c1cut</name>
						<file id="ep6c1">
							<duration>631.1680272108844</duration>
						</file>
						<rate>
							<timebase>60.0</timebase>
							<ntsc>FALSE</ntsc>
						</rate>
						<start>11942</start>
						<stop>12051</stop>
						<enabled>TRUE</enabled>
						<in>30550</in>
						<out>30660</out>
						<compositemode>normal</compositemode>
						<filter>
							<enabled>TRUE</enabled>
							<start>0</start>
							<end>631.1680272108844</end>
							<effect>
								<name>Basic Motion</name>
								<effectid>basic</effectid>
								<effecttype>motion</effecttype>
								<mediatype>video</mediatype>
								<effectcategory>motion</effectcategory>
								<parameter>
									<name>Scale</name>
									<parameterid>scale</parameterid>
									<value>100</value>
									<valuemin>0</valuemin>
									<valuemax>10000</valuemax>
								</parameter>
								<parameter>
									<name>Center</name>
									<parameterid>center</parameterid>
									<value>
										<horiz>0</horiz>
										<vert>0</vert>
									</value>
								</parameter>
								<parameter>
									<name>Rotation</name>
									<parameterid>rotation</parameterid>
									<value>0</value>
									<valuemin>-100000</valuemin>
									<valuemax>100000</valuemax>
								</parameter>
								<parameter>
									<name>Anchor Point</name>
									<parameterid>centerOffset</parameterid>
									<value>
										<horiz>0</horiz>
										<vert>0</vert>
									</value>
								</parameter>
							</effect>
						</filter>
						<filter>
							<enabled>TRUE</enabled>
							<start>0</start>
							<end>631.1680272108844</end>
							<effect>
								<name>Crop</name>
								<effectid>crop</effectid>
								<effecttype>motion</effecttype>
								<mediatype>video</mediatype>
								<effectcategory>motion</effectcategory>
								<parameter>
									<name>left</name>
									<parameterid>left</parameterid>
									<value>0</value>
									<valuemin>0</valuemin>
									<valuemax>100</valuemax>
								</parameter>
								<parameter>
									<name>right</name>
									<parameterid>right</parameterid>
									<value>0</value>
									<valuemin>0</valuemin>
									<valuemax>100</valuemax>
								</parameter>
								<parameter>
									<name>top</name>
									<parameterid>top</parameterid>
									<value>0</value>
									<valuemin>0</valuemin>
									<valuemax>100</valuemax>
								</parameter>
								<parameter>
									<name>bottom</name>
									<parameterid>bottom</parameterid>
									<value>0</value>
									<valuemin>0</valuemin>
									<valuemax>100</valuemax>
								</parameter>
							</effect>
						</filter>
						<filter>
							<enabled>TRUE</enabled>
							<start>0</start>
							<end>631.1680272108844</end>
							<effect>
								<name>Opacity</name>
								<effectid>opacity</effectid>
								<effecttype>motion</effecttype>
								<mediatype>video</mediatype>
								<effectcategory>motion</effectcategory>
								<parameter>
									<name>opacity</name>
									<parameterid>opacity</parameterid>
									<value>100</value>
									<valuemin>0</valuemin>
									<valuemax>100</valuemax>
								</parameter>
							</effect>
						</filter>
						<link>
							<linkclipref>ep6c1</linkclipref>
						</link>
						<link>
							<linkclipref>ep6c1-78a</linkclipref>
						</link>
					</clipitem>
					<clipitem id="ep6c1-79">
						<name>ep6c1cut</name>
						<file id="ep6c1">
							<duration>631.1680272108844</duration>
						</file>
						<rate>
							<timebase>60.0</timebase>
							<ntsc>FALSE</ntsc>
						</rate>
						<start>12051</start>
						<stop>12249</stop>
						<enabled>TRUE</enabled>
						<in>30680</in>
						<out>30878</out>
						<compositemode>normal</compositemode>
						<filter>
							<enabled>TRUE</enabled>
							<start>0</start>
							<end>631.1680272108844</end>
							<effect>
								<name>Basic Motion</name>
								<effectid>basic</effectid>
								<effecttype>motion</effecttype>
								<mediatype>video</mediatype>
								<effectcategory>motion</effectcategory>
								<parameter>
									<name>Scale</name>
									<parameterid>scale</parameterid>
									<value>100</value>
									<valuemin>0</valuemin>
									<valuemax>10000</valuemax>
								</parameter>
								<parameter>
									<name>Center</name>
									<parameterid>center</parameterid>
									<value>
										<horiz>0</horiz>
										<vert>0</vert>
									</value>
								</parameter>
								<parameter>
									<name>Rotation</name>
									<parameterid>rotation</parameterid>
									<value>0</value>
									<valuemin>-100000</valuemin>
									<valuemax>100000</valuemax>
								</parameter>
								<parameter>
									<name>Anchor Point</name>
									<parameterid>centerOffset</parameterid>
									<value>
										<horiz>0</horiz>
										<vert>0</vert>
									</value>
								</parameter>
							</effect>
						</filter>
						<filter>
							<enabled>TRUE</enabled>
							<start>0</start>
							<end>631.1680272108844</end>
							<effect>
								<name>Crop</name>
								<effectid>crop</effectid>
								<effecttype>motion</effecttype>
								<mediatype>video</mediatype>
								<effectcategory>motion</effectcategory>
								<parameter>
									<name>left</name>
									<parameterid>left</parameterid>
									<value>0</value>
									<valuemin>0</valuemin>
									<valuemax>100</valuemax>
								</parameter>
								<parameter>
									<name>right</name>
									<parameterid>right</parameterid>
									<value>0</value>
									<valuemin>0</valuemin>
									<valuemax>100</valuemax>
								</parameter>
								<parameter>
									<name>top</name>
									<parameterid>top</parameterid>
									<value>0</value>
									<valuemin>0</valuemin>
									<valuemax>100</valuemax>
								</parameter>
								<parameter>
									<name>bottom</name>
									<parameterid>bottom</parameterid>
									<value>0</value>
									<valuemin>0</valuemin>
									<valuemax>100</valuemax>
								</parameter>
							</effect>
						</filter>
						<filter>
							<enabled>TRUE</enabled>
							<start>0</start>
							<end>631.1680272108844</end>
							<effect>
								<name>Opacity</name>
								<effectid>opacity</effectid>
								<effecttype>motion</effecttype>
								<mediatype>video</mediatype>
								<effectcategory>motion</effectcategory>
								<parameter>
									<name>opacity</name>
									<parameterid>opacity</parameterid>
									<value>100</value>
									<valuemin>0</valuemin>
									<valuemax>100</valuemax>
								</parameter>
							</effect>
						</filter>
						<link>
							<linkclipref>ep6c1</linkclipref>
						</link>
						<link>
							<linkclipref>ep6c1-79a</linkclipref>
						</link>
					</clipitem>
					<clipitem id="ep6c1-80">
						<name>ep6c1cut</name>
						<file id="ep6c1">
							<duration>631.1680272108844</duration>
						</file>
						<rate>
							<timebase>60.0</timebase>
							<ntsc>FALSE</ntsc>
						</rate>
						<start>12249</start>
						<stop>12352</stop>
						<enabled>TRUE</enabled>
						<in>30896</in>
						<out>31000</out>
						<compositemode>normal</compositemode>
						<filter>
							<enabled>TRUE</enabled>
							<start>0</start>
							<end>631.1680272108844</end>
							<effect>
								<name>Basic Motion</name>
								<effectid>basic</effectid>
								<effecttype>motion</effecttype>
								<mediatype>video</mediatype>
								<effectcategory>motion</effectcategory>
								<parameter>
									<name>Scale</name>
									<parameterid>scale</parameterid>
									<value>100</value>
									<valuemin>0</valuemin>
									<valuemax>10000</valuemax>
								</parameter>
								<parameter>
									<name>Center</name>
									<parameterid>center</parameterid>
									<value>
										<horiz>0</horiz>
										<vert>0</vert>
									</value>
								</parameter>
								<parameter>
									<name>Rotation</name>
									<parameterid>rotation</parameterid>
									<value>0</value>
									<valuemin>-100000</valuemin>
									<valuemax>100000</valuemax>
								</parameter>
								<parameter>
									<name>Anchor Point</name>
									<parameterid>centerOffset</parameterid>
									<value>
										<horiz>0</horiz>
										<vert>0</vert>
									</value>
								</parameter>
							</effect>
						</filter>
						<filter>
							<enabled>TRUE</enabled>
							<start>0</start>
							<end>631.1680272108844</end>
							<effect>
								<name>Crop</name>
								<effectid>crop</effectid>
								<effecttype>motion</effecttype>
								<mediatype>video</mediatype>
								<effectcategory>motion</effectcategory>
								<parameter>
									<name>left</name>
									<parameterid>left</parameterid>
									<value>0</value>
									<valuemin>0</valuemin>
									<valuemax>100</valuemax>
								</parameter>
								<parameter>
									<name>right</name>
									<parameterid>right</parameterid>
									<value>0</value>
									<valuemin>0</valuemin>
									<valuemax>100</valuemax>
								</parameter>
								<parameter>
									<name>top</name>
									<parameterid>top</parameterid>
									<value>0</value>
									<valuemin>0</valuemin>
									<valuemax>100</valuemax>
								</parameter>
								<parameter>
									<name>bottom</name>
									<parameterid>bottom</parameterid>
									<value>0</value>
									<valuemin>0</valuemin>
									<valuemax>100</valuemax>
								</parameter>
							</effect>
						</filter>
						<filter>
							<enabled>TRUE</enabled>
							<start>0</start>
							<end>631.1680272108844</end>
							<effect>
								<name>Opacity</name>
								<effectid>opacity</effectid>
								<effecttype>motion</effecttype>
								<mediatype>video</mediatype>
								<effectcategory>motion</effectcategory>
								<parameter>
									<name>opacity</name>
									<parameterid>opacity</parameterid>
									<value>100</value>
									<valuemin>0</valuemin>
									<valuemax>100</valuemax>
								</parameter>
							</effect>
						</filter>
						<link>
							<linkclipref>ep6c1</linkclipref>
						</link>
						<link>
							<linkclipref>ep6c1-80a</linkclipref>
						</link>
					</clipitem>
					<clipitem id="ep6c1-81">
						<name>ep6c1cut</name>
						<file id="ep6c1">
							<duration>631.1680272108844</duration>
						</file>
						<rate>
							<timebase>60.0</timebase>
							<ntsc>FALSE</ntsc>
						</rate>
						<start>12352</start>
						<stop>12417</stop>
						<enabled>TRUE</enabled>
						<in>31263</in>
						<out>31329</out>
						<compositemode>normal</compositemode>
						<filter>
							<enabled>TRUE</enabled>
							<start>0</start>
							<end>631.1680272108844</end>
							<effect>
								<name>Basic Motion</name>
								<effectid>basic</effectid>
								<effecttype>motion</effecttype>
								<mediatype>video</mediatype>
								<effectcategory>motion</effectcategory>
								<parameter>
									<name>Scale</name>
									<parameterid>scale</parameterid>
									<value>100</value>
									<valuemin>0</valuemin>
									<valuemax>10000</valuemax>
								</parameter>
								<parameter>
									<name>Center</name>
									<parameterid>center</parameterid>
									<value>
										<horiz>0</horiz>
										<vert>0</vert>
									</value>
								</parameter>
								<parameter>
									<name>Rotation</name>
									<parameterid>rotation</parameterid>
									<value>0</value>
									<valuemin>-100000</valuemin>
									<valuemax>100000</valuemax>
								</parameter>
								<parameter>
									<name>Anchor Point</name>
									<parameterid>centerOffset</parameterid>
									<value>
										<horiz>0</horiz>
										<vert>0</vert>
									</value>
								</parameter>
							</effect>
						</filter>
						<filter>
							<enabled>TRUE</enabled>
							<start>0</start>
							<end>631.1680272108844</end>
							<effect>
								<name>Crop</name>
								<effectid>crop</effectid>
								<effecttype>motion</effecttype>
								<mediatype>video</mediatype>
								<effectcategory>motion</effectcategory>
								<parameter>
									<name>left</name>
									<parameterid>left</parameterid>
									<value>0</value>
									<valuemin>0</valuemin>
									<valuemax>100</valuemax>
								</parameter>
								<parameter>
									<name>right</name>
									<parameterid>right</parameterid>
									<value>0</value>
									<valuemin>0</valuemin>
									<valuemax>100</valuemax>
								</parameter>
								<parameter>
									<name>top</name>
									<parameterid>top</parameterid>
									<value>0</value>
									<valuemin>0</valuemin>
									<valuemax>100</valuemax>
								</parameter>
								<parameter>
									<name>bottom</name>
									<parameterid>bottom</parameterid>
									<value>0</value>
									<valuemin>0</valuemin>
									<valuemax>100</valuemax>
								</parameter>
							</effect>
						</filter>
						<filter>
							<enabled>TRUE</enabled>
							<start>0</start>
							<end>631.1680272108844</end>
							<effect>
								<name>Opacity</name>
								<effectid>opacity</effectid>
								<effecttype>motion</effecttype>
								<mediatype>video</mediatype>
								<effectcategory>motion</effectcategory>
								<parameter>
									<name>opacity</name>
									<parameterid>opacity</parameterid>
									<value>100</value>
									<valuemin>0</valuemin>
									<valuemax>100</valuemax>
								</parameter>
							</effect>
						</filter>
						<link>
							<linkclipref>ep6c1</linkclipref>
						</link>
						<link>
							<linkclipref>ep6c1-81a</linkclipref>
						</link>
					</clipitem>
					<clipitem id="ep6c1-82">
						<name>ep6c1cut</name>
						<file id="ep6c1">
							<duration>631.1680272108844</duration>
						</file>
						<rate>
							<timebase>60.0</timebase>
							<ntsc>FALSE</ntsc>
						</rate>
						<start>12417</start>
						<stop>12608</stop>
						<enabled>TRUE</enabled>
						<in>32052</in>
						<out>32244</out>
						<compositemode>normal</compositemode>
						<filter>
							<enabled>TRUE</enabled>
							<start>0</start>
							<end>631.1680272108844</end>
							<effect>
								<name>Basic Motion</name>
								<effectid>basic</effectid>
								<effecttype>motion</effecttype>
								<mediatype>video</mediatype>
								<effectcategory>motion</effectcategory>
								<parameter>
									<name>Scale</name>
									<parameterid>scale</parameterid>
									<value>100</value>
									<valuemin>0</valuemin>
									<valuemax>10000</valuemax>
								</parameter>
								<parameter>
									<name>Center</name>
									<parameterid>center</parameterid>
									<value>
										<horiz>0</horiz>
										<vert>0</vert>
									</value>
								</parameter>
								<parameter>
									<name>Rotation</name>
									<parameterid>rotation</parameterid>
									<value>0</value>
									<valuemin>-100000</valuemin>
									<valuemax>100000</valuemax>
								</parameter>
								<parameter>
									<name>Anchor Point</name>
									<parameterid>centerOffset</parameterid>
									<value>
										<horiz>0</horiz>
										<vert>0</vert>
									</value>
								</parameter>
							</effect>
						</filter>
						<filter>
							<enabled>TRUE</enabled>
							<start>0</start>
							<end>631.1680272108844</end>
							<effect>
								<name>Crop</name>
								<effectid>crop</effectid>
								<effecttype>motion</effecttype>
								<mediatype>video</mediatype>
								<effectcategory>motion</effectcategory>
								<parameter>
									<name>left</name>
									<parameterid>left</parameterid>
									<value>0</value>
									<valuemin>0</valuemin>
									<valuemax>100</valuemax>
								</parameter>
								<parameter>
									<name>right</name>
									<parameterid>right</parameterid>
									<value>0</value>
									<valuemin>0</valuemin>
									<valuemax>100</valuemax>
								</parameter>
								<parameter>
									<name>top</name>
									<parameterid>top</parameterid>
									<value>0</value>
									<valuemin>0</valuemin>
									<valuemax>100</valuemax>
								</parameter>
								<parameter>
									<name>bottom</name>
									<parameterid>bottom</parameterid>
									<value>0</value>
									<valuemin>0</valuemin>
									<valuemax>100</valuemax>
								</parameter>
							</effect>
						</filter>
						<filter>
							<enabled>TRUE</enabled>
							<start>0</start>
							<end>631.1680272108844</end>
							<effect>
								<name>Opacity</name>
								<effectid>opacity</effectid>
								<effecttype>motion</effecttype>
								<mediatype>video</mediatype>
								<effectcategory>motion</effectcategory>
								<parameter>
									<name>opacity</name>
									<parameterid>opacity</parameterid>
									<value>100</value>
									<valuemin>0</valuemin>
									<valuemax>100</valuemax>
								</parameter>
							</effect>
						</filter>
						<link>
							<linkclipref>ep6c1</linkclipref>
						</link>
						<link>
							<linkclipref>ep6c1-82a</linkclipref>
						</link>
					</clipitem>
					<clipitem id="ep6c1-83">
						<name>ep6c1cut</name>
						<file id="ep6c1">
							<duration>631.1680272108844</duration>
						</file>
						<rate>
							<timebase>60.0</timebase>
							<ntsc>FALSE</ntsc>
						</rate>
						<start>12608</start>
						<stop>12680</stop>
						<enabled>TRUE</enabled>
						<in>32388</in>
						<out>32460</out>
						<compositemode>normal</compositemode>
						<filter>
							<enabled>TRUE</enabled>
							<start>0</start>
							<end>631.1680272108844</end>
							<effect>
								<name>Basic Motion</name>
								<effectid>basic</effectid>
								<effecttype>motion</effecttype>
								<mediatype>video</mediatype>
								<effectcategory>motion</effectcategory>
								<parameter>
									<name>Scale</name>
									<parameterid>scale</parameterid>
									<value>100</value>
									<valuemin>0</valuemin>
									<valuemax>10000</valuemax>
								</parameter>
								<parameter>
									<name>Center</name>
									<parameterid>center</parameterid>
									<value>
										<horiz>0</horiz>
										<vert>0</vert>
									</value>
								</parameter>
								<parameter>
									<name>Rotation</name>
									<parameterid>rotation</parameterid>
									<value>0</value>
									<valuemin>-100000</valuemin>
									<valuemax>100000</valuemax>
								</parameter>
								<parameter>
									<name>Anchor Point</name>
									<parameterid>centerOffset</parameterid>
									<value>
										<horiz>0</horiz>
										<vert>0</vert>
									</value>
								</parameter>
							</effect>
						</filter>
						<filter>
							<enabled>TRUE</enabled>
							<start>0</start>
							<end>631.1680272108844</end>
							<effect>
								<name>Crop</name>
								<effectid>crop</effectid>
								<effecttype>motion</effecttype>
								<mediatype>video</mediatype>
								<effectcategory>motion</effectcategory>
								<parameter>
									<name>left</name>
									<parameterid>left</parameterid>
									<value>0</value>
									<valuemin>0</valuemin>
									<valuemax>100</valuemax>
								</parameter>
								<parameter>
									<name>right</name>
									<parameterid>right</parameterid>
									<value>0</value>
									<valuemin>0</valuemin>
									<valuemax>100</valuemax>
								</parameter>
								<parameter>
									<name>top</name>
									<parameterid>top</parameterid>
									<value>0</value>
									<valuemin>0</valuemin>
									<valuemax>100</valuemax>
								</parameter>
								<parameter>
									<name>bottom</name>
									<parameterid>bottom</parameterid>
									<value>0</value>
									<valuemin>0</valuemin>
									<valuemax>100</valuemax>
								</parameter>
							</effect>
						</filter>
						<filter>
							<enabled>TRUE</enabled>
							<start>0</start>
							<end>631.1680272108844</end>
							<effect>
								<name>Opacity</name>
								<effectid>opacity</effectid>
								<effecttype>motion</effecttype>
								<mediatype>video</mediatype>
								<effectcategory>motion</effectcategory>
								<parameter>
									<name>opacity</name>
									<parameterid>opacity</parameterid>
									<value>100</value>
									<valuemin>0</valuemin>
									<valuemax>100</valuemax>
								</parameter>
							</effect>
						</filter>
						<link>
							<linkclipref>ep6c1</linkclipref>
						</link>
						<link>
							<linkclipref>ep6c1-83a</linkclipref>
						</link>
					</clipitem>
					<clipitem id="ep6c1-84">
						<name>ep6c1cut</name>
						<file id="ep6c1">
							<duration>631.1680272108844</duration>
						</file>
						<rate>
							<timebase>60.0</timebase>
							<ntsc>FALSE</ntsc>
						</rate>
						<start>12680</start>
						<stop>12825</stop>
						<enabled>TRUE</enabled>
						<in>32466</in>
						<out>32612</out>
						<compositemode>normal</compositemode>
						<filter>
							<enabled>TRUE</enabled>
							<start>0</start>
							<end>631.1680272108844</end>
							<effect>
								<name>Basic Motion</name>
								<effectid>basic</effectid>
								<effecttype>motion</effecttype>
								<mediatype>video</mediatype>
								<effectcategory>motion</effectcategory>
								<parameter>
									<name>Scale</name>
									<parameterid>scale</parameterid>
									<value>100</value>
									<valuemin>0</valuemin>
									<valuemax>10000</valuemax>
								</parameter>
								<parameter>
									<name>Center</name>
									<parameterid>center</parameterid>
									<value>
										<horiz>0</horiz>
										<vert>0</vert>
									</value>
								</parameter>
								<parameter>
									<name>Rotation</name>
									<parameterid>rotation</parameterid>
									<value>0</value>
									<valuemin>-100000</valuemin>
									<valuemax>100000</valuemax>
								</parameter>
								<parameter>
									<name>Anchor Point</name>
									<parameterid>centerOffset</parameterid>
									<value>
										<horiz>0</horiz>
										<vert>0</vert>
									</value>
								</parameter>
							</effect>
						</filter>
						<filter>
							<enabled>TRUE</enabled>
							<start>0</start>
							<end>631.1680272108844</end>
							<effect>
								<name>Crop</name>
								<effectid>crop</effectid>
								<effecttype>motion</effecttype>
								<mediatype>video</mediatype>
								<effectcategory>motion</effectcategory>
								<parameter>
									<name>left</name>
									<parameterid>left</parameterid>
									<value>0</value>
									<valuemin>0</valuemin>
									<valuemax>100</valuemax>
								</parameter>
								<parameter>
									<name>right</name>
									<parameterid>right</parameterid>
									<value>0</value>
									<valuemin>0</valuemin>
									<valuemax>100</valuemax>
								</parameter>
								<parameter>
									<name>top</name>
									<parameterid>top</parameterid>
									<value>0</value>
									<valuemin>0</valuemin>
									<valuemax>100</valuemax>
								</parameter>
								<parameter>
									<name>bottom</name>
									<parameterid>bottom</parameterid>
									<value>0</value>
									<valuemin>0</valuemin>
									<valuemax>100</valuemax>
								</parameter>
							</effect>
						</filter>
						<filter>
							<enabled>TRUE</enabled>
							<start>0</start>
							<end>631.1680272108844</end>
							<effect>
								<name>Opacity</name>
								<effectid>opacity</effectid>
								<effecttype>motion</effecttype>
								<mediatype>video</mediatype>
								<effectcategory>motion</effectcategory>
								<parameter>
									<name>opacity</name>
									<parameterid>opacity</parameterid>
									<value>100</value>
									<valuemin>0</valuemin>
									<valuemax>100</valuemax>
								</parameter>
							</effect>
						</filter>
						<link>
							<linkclipref>ep6c1</linkclipref>
						</link>
						<link>
							<linkclipref>ep6c1-84a</linkclipref>
						</link>
					</clipitem>
					<clipitem id="ep6c1-85">
						<name>ep6c1cut</name>
						<file id="ep6c1">
							<duration>631.1680272108844</duration>
						</file>
						<rate>
							<timebase>60.0</timebase>
							<ntsc>FALSE</ntsc>
						</rate>
						<start>12825</start>
						<stop>12937</stop>
						<enabled>TRUE</enabled>
						<in>32671</in>
						<out>32783</out>
						<compositemode>normal</compositemode>
						<filter>
							<enabled>TRUE</enabled>
							<start>0</start>
							<end>631.1680272108844</end>
							<effect>
								<name>Basic Motion</name>
								<effectid>basic</effectid>
								<effecttype>motion</effecttype>
								<mediatype>video</mediatype>
								<effectcategory>motion</effectcategory>
								<parameter>
									<name>Scale</name>
									<parameterid>scale</parameterid>
									<value>100</value>
									<valuemin>0</valuemin>
									<valuemax>10000</valuemax>
								</parameter>
								<parameter>
									<name>Center</name>
									<parameterid>center</parameterid>
									<value>
										<horiz>0</horiz>
										<vert>0</vert>
									</value>
								</parameter>
								<parameter>
									<name>Rotation</name>
									<parameterid>rotation</parameterid>
									<value>0</value>
									<valuemin>-100000</valuemin>
									<valuemax>100000</valuemax>
								</parameter>
								<parameter>
									<name>Anchor Point</name>
									<parameterid>centerOffset</parameterid>
									<value>
										<horiz>0</horiz>
										<vert>0</vert>
									</value>
								</parameter>
							</effect>
						</filter>
						<filter>
							<enabled>TRUE</enabled>
							<start>0</start>
							<end>631.1680272108844</end>
							<effect>
								<name>Crop</name>
								<effectid>crop</effectid>
								<effecttype>motion</effecttype>
								<mediatype>video</mediatype>
								<effectcategory>motion</effectcategory>
								<parameter>
									<name>left</name>
									<parameterid>left</parameterid>
									<value>0</value>
									<valuemin>0</valuemin>
									<valuemax>100</valuemax>
								</parameter>
								<parameter>
									<name>right</name>
									<parameterid>right</parameterid>
									<value>0</value>
									<valuemin>0</valuemin>
									<valuemax>100</valuemax>
								</parameter>
								<parameter>
									<name>top</name>
									<parameterid>top</parameterid>
									<value>0</value>
									<valuemin>0</valuemin>
									<valuemax>100</valuemax>
								</parameter>
								<parameter>
									<name>bottom</name>
									<parameterid>bottom</parameterid>
									<value>0</value>
									<valuemin>0</valuemin>
									<valuemax>100</valuemax>
								</parameter>
							</effect>
						</filter>
						<filter>
							<enabled>TRUE</enabled>
							<start>0</start>
							<end>631.1680272108844</end>
							<effect>
								<name>Opacity</name>
								<effectid>opacity</effectid>
								<effecttype>motion</effecttype>
								<mediatype>video</mediatype>
								<effectcategory>motion</effectcategory>
								<parameter>
									<name>opacity</name>
									<parameterid>opacity</parameterid>
									<value>100</value>
									<valuemin>0</valuemin>
									<valuemax>100</valuemax>
								</parameter>
							</effect>
						</filter>
						<link>
							<linkclipref>ep6c1</linkclipref>
						</link>
						<link>
							<linkclipref>ep6c1-85a</linkclipref>
						</link>
					</clipitem>
					<clipitem id="ep6c1-86">
						<name>ep6c1cut</name>
						<file id="ep6c1">
							<duration>631.1680272108844</duration>
						</file>
						<rate>
							<timebase>60.0</timebase>
							<ntsc>FALSE</ntsc>
						</rate>
						<start>12937</start>
						<stop>13043</stop>
						<enabled>TRUE</enabled>
						<in>32807</in>
						<out>32913</out>
						<compositemode>normal</compositemode>
						<filter>
							<enabled>TRUE</enabled>
							<start>0</start>
							<end>631.1680272108844</end>
							<effect>
								<name>Basic Motion</name>
								<effectid>basic</effectid>
								<effecttype>motion</effecttype>
								<mediatype>video</mediatype>
								<effectcategory>motion</effectcategory>
								<parameter>
									<name>Scale</name>
									<parameterid>scale</parameterid>
									<value>100</value>
									<valuemin>0</valuemin>
									<valuemax>10000</valuemax>
								</parameter>
								<parameter>
									<name>Center</name>
									<parameterid>center</parameterid>
									<value>
										<horiz>0</horiz>
										<vert>0</vert>
									</value>
								</parameter>
								<parameter>
									<name>Rotation</name>
									<parameterid>rotation</parameterid>
									<value>0</value>
									<valuemin>-100000</valuemin>
									<valuemax>100000</valuemax>
								</parameter>
								<parameter>
									<name>Anchor Point</name>
									<parameterid>centerOffset</parameterid>
									<value>
										<horiz>0</horiz>
										<vert>0</vert>
									</value>
								</parameter>
							</effect>
						</filter>
						<filter>
							<enabled>TRUE</enabled>
							<start>0</start>
							<end>631.1680272108844</end>
							<effect>
								<name>Crop</name>
								<effectid>crop</effectid>
								<effecttype>motion</effecttype>
								<mediatype>video</mediatype>
								<effectcategory>motion</effectcategory>
								<parameter>
									<name>left</name>
									<parameterid>left</parameterid>
									<value>0</value>
									<valuemin>0</valuemin>
									<valuemax>100</valuemax>
								</parameter>
								<parameter>
									<name>right</name>
									<parameterid>right</parameterid>
									<value>0</value>
									<valuemin>0</valuemin>
									<valuemax>100</valuemax>
								</parameter>
								<parameter>
									<name>top</name>
									<parameterid>top</parameterid>
									<value>0</value>
									<valuemin>0</valuemin>
									<valuemax>100</valuemax>
								</parameter>
								<parameter>
									<name>bottom</name>
									<parameterid>bottom</parameterid>
									<value>0</value>
									<valuemin>0</valuemin>
									<valuemax>100</valuemax>
								</parameter>
							</effect>
						</filter>
						<filter>
							<enabled>TRUE</enabled>
							<start>0</start>
							<end>631.1680272108844</end>
							<effect>
								<name>Opacity</name>
								<effectid>opacity</effectid>
								<effecttype>motion</effecttype>
								<mediatype>video</mediatype>
								<effectcategory>motion</effectcategory>
								<parameter>
									<name>opacity</name>
									<parameterid>opacity</parameterid>
									<value>100</value>
									<valuemin>0</valuemin>
									<valuemax>100</valuemax>
								</parameter>
							</effect>
						</filter>
						<link>
							<linkclipref>ep6c1</linkclipref>
						</link>
						<link>
							<linkclipref>ep6c1-86a</linkclipref>
						</link>
					</clipitem>
					<clipitem id="ep6c1-87">
						<name>ep6c1cut</name>
						<file id="ep6c1">
							<duration>631.1680272108844</duration>
						</file>
						<rate>
							<timebase>60.0</timebase>
							<ntsc>FALSE</ntsc>
						</rate>
						<start>13043</start>
						<stop>13197</stop>
						<enabled>TRUE</enabled>
						<in>32920</in>
						<out>33075</out>
						<compositemode>normal</compositemode>
						<filter>
							<enabled>TRUE</enabled>
							<start>0</start>
							<end>631.1680272108844</end>
							<effect>
								<name>Basic Motion</name>
								<effectid>basic</effectid>
								<effecttype>motion</effecttype>
								<mediatype>video</mediatype>
								<effectcategory>motion</effectcategory>
								<parameter>
									<name>Scale</name>
									<parameterid>scale</parameterid>
									<value>100</value>
									<valuemin>0</valuemin>
									<valuemax>10000</valuemax>
								</parameter>
								<parameter>
									<name>Center</name>
									<parameterid>center</parameterid>
									<value>
										<horiz>0</horiz>
										<vert>0</vert>
									</value>
								</parameter>
								<parameter>
									<name>Rotation</name>
									<parameterid>rotation</parameterid>
									<value>0</value>
									<valuemin>-100000</valuemin>
									<valuemax>100000</valuemax>
								</parameter>
								<parameter>
									<name>Anchor Point</name>
									<parameterid>centerOffset</parameterid>
									<value>
										<horiz>0</horiz>
										<vert>0</vert>
									</value>
								</parameter>
							</effect>
						</filter>
						<filter>
							<enabled>TRUE</enabled>
							<start>0</start>
							<end>631.1680272108844</end>
							<effect>
								<name>Crop</name>
								<effectid>crop</effectid>
								<effecttype>motion</effecttype>
								<mediatype>video</mediatype>
								<effectcategory>motion</effectcategory>
								<parameter>
									<name>left</name>
									<parameterid>left</parameterid>
									<value>0</value>
									<valuemin>0</valuemin>
									<valuemax>100</valuemax>
								</parameter>
								<parameter>
									<name>right</name>
									<parameterid>right</parameterid>
									<value>0</value>
									<valuemin>0</valuemin>
									<valuemax>100</valuemax>
								</parameter>
								<parameter>
									<name>top</name>
									<parameterid>top</parameterid>
									<value>0</value>
									<valuemin>0</valuemin>
									<valuemax>100</valuemax>
								</parameter>
								<parameter>
									<name>bottom</name>
									<parameterid>bottom</parameterid>
									<value>0</value>
									<valuemin>0</valuemin>
									<valuemax>100</valuemax>
								</parameter>
							</effect>
						</filter>
						<filter>
							<enabled>TRUE</enabled>
							<start>0</start>
							<end>631.1680272108844</end>
							<effect>
								<name>Opacity</name>
								<effectid>opacity</effectid>
								<effecttype>motion</effecttype>
								<mediatype>video</mediatype>
								<effectcategory>motion</effectcategory>
								<parameter>
									<name>opacity</name>
									<parameterid>opacity</parameterid>
									<value>100</value>
									<valuemin>0</valuemin>
									<valuemax>100</valuemax>
								</parameter>
							</effect>
						</filter>
						<link>
							<linkclipref>ep6c1</linkclipref>
						</link>
						<link>
							<linkclipref>ep6c1-87a</linkclipref>
						</link>
					</clipitem>
					<clipitem id="ep6c1-88">
						<name>ep6c1cut</name>
						<file id="ep6c1">
							<duration>631.1680272108844</duration>
						</file>
						<rate>
							<timebase>60.0</timebase>
							<ntsc>FALSE</ntsc>
						</rate>
						<start>13197</start>
						<stop>13286</stop>
						<enabled>TRUE</enabled>
						<in>33947</in>
						<out>34036</out>
						<compositemode>normal</compositemode>
						<filter>
							<enabled>TRUE</enabled>
							<start>0</start>
							<end>631.1680272108844</end>
							<effect>
								<name>Basic Motion</name>
								<effectid>basic</effectid>
								<effecttype>motion</effecttype>
								<mediatype>video</mediatype>
								<effectcategory>motion</effectcategory>
								<parameter>
									<name>Scale</name>
									<parameterid>scale</parameterid>
									<value>100</value>
									<valuemin>0</valuemin>
									<valuemax>10000</valuemax>
								</parameter>
								<parameter>
									<name>Center</name>
									<parameterid>center</parameterid>
									<value>
										<horiz>0</horiz>
										<vert>0</vert>
									</value>
								</parameter>
								<parameter>
									<name>Rotation</name>
									<parameterid>rotation</parameterid>
									<value>0</value>
									<valuemin>-100000</valuemin>
									<valuemax>100000</valuemax>
								</parameter>
								<parameter>
									<name>Anchor Point</name>
									<parameterid>centerOffset</parameterid>
									<value>
										<horiz>0</horiz>
										<vert>0</vert>
									</value>
								</parameter>
							</effect>
						</filter>
						<filter>
							<enabled>TRUE</enabled>
							<start>0</start>
							<end>631.1680272108844</end>
							<effect>
								<name>Crop</name>
								<effectid>crop</effectid>
								<effecttype>motion</effecttype>
								<mediatype>video</mediatype>
								<effectcategory>motion</effectcategory>
								<parameter>
									<name>left</name>
									<parameterid>left</parameterid>
									<value>0</value>
									<valuemin>0</valuemin>
									<valuemax>100</valuemax>
								</parameter>
								<parameter>
									<name>right</name>
									<parameterid>right</parameterid>
									<value>0</value>
									<valuemin>0</valuemin>
									<valuemax>100</valuemax>
								</parameter>
								<parameter>
									<name>top</name>
									<parameterid>top</parameterid>
									<value>0</value>
									<valuemin>0</valuemin>
									<valuemax>100</valuemax>
								</parameter>
								<parameter>
									<name>bottom</name>
									<parameterid>bottom</parameterid>
									<value>0</value>
									<valuemin>0</valuemin>
									<valuemax>100</valuemax>
								</parameter>
							</effect>
						</filter>
						<filter>
							<enabled>TRUE</enabled>
							<start>0</start>
							<end>631.1680272108844</end>
							<effect>
								<name>Opacity</name>
								<effectid>opacity</effectid>
								<effecttype>motion</effecttype>
								<mediatype>video</mediatype>
								<effectcategory>motion</effectcategory>
								<parameter>
									<name>opacity</name>
									<parameterid>opacity</parameterid>
									<value>100</value>
									<valuemin>0</valuemin>
									<valuemax>100</valuemax>
								</parameter>
							</effect>
						</filter>
						<link>
							<linkclipref>ep6c1</linkclipref>
						</link>
						<link>
							<linkclipref>ep6c1-88a</linkclipref>
						</link>
					</clipitem>
					<clipitem id="ep6c1-89">
						<name>ep6c1cut</name>
						<file id="ep6c1">
							<duration>631.1680272108844</duration>
						</file>
						<rate>
							<timebase>60.0</timebase>
							<ntsc>FALSE</ntsc>
						</rate>
						<start>13286</start>
						<stop>13456</stop>
						<enabled>TRUE</enabled>
						<in>36103</in>
						<out>36273</out>
						<compositemode>normal</compositemode>
						<filter>
							<enabled>TRUE</enabled>
							<start>0</start>
							<end>631.1680272108844</end>
							<effect>
								<name>Basic Motion</name>
								<effectid>basic</effectid>
								<effecttype>motion</effecttype>
								<mediatype>video</mediatype>
								<effectcategory>motion</effectcategory>
								<parameter>
									<name>Scale</name>
									<parameterid>scale</parameterid>
									<value>100</value>
									<valuemin>0</valuemin>
									<valuemax>10000</valuemax>
								</parameter>
								<parameter>
									<name>Center</name>
									<parameterid>center</parameterid>
									<value>
										<horiz>0</horiz>
										<vert>0</vert>
									</value>
								</parameter>
								<parameter>
									<name>Rotation</name>
									<parameterid>rotation</parameterid>
									<value>0</value>
									<valuemin>-100000</valuemin>
									<valuemax>100000</valuemax>
								</parameter>
								<parameter>
									<name>Anchor Point</name>
									<parameterid>centerOffset</parameterid>
									<value>
										<horiz>0</horiz>
										<vert>0</vert>
									</value>
								</parameter>
							</effect>
						</filter>
						<filter>
							<enabled>TRUE</enabled>
							<start>0</start>
							<end>631.1680272108844</end>
							<effect>
								<name>Crop</name>
								<effectid>crop</effectid>
								<effecttype>motion</effecttype>
								<mediatype>video</mediatype>
								<effectcategory>motion</effectcategory>
								<parameter>
									<name>left</name>
									<parameterid>left</parameterid>
									<value>0</value>
									<valuemin>0</valuemin>
									<valuemax>100</valuemax>
								</parameter>
								<parameter>
									<name>right</name>
									<parameterid>right</parameterid>
									<value>0</value>
									<valuemin>0</valuemin>
									<valuemax>100</valuemax>
								</parameter>
								<parameter>
									<name>top</name>
									<parameterid>top</parameterid>
									<value>0</value>
									<valuemin>0</valuemin>
									<valuemax>100</valuemax>
								</parameter>
								<parameter>
									<name>bottom</name>
									<parameterid>bottom</parameterid>
									<value>0</value>
									<valuemin>0</valuemin>
									<valuemax>100</valuemax>
								</parameter>
							</effect>
						</filter>
						<filter>
							<enabled>TRUE</enabled>
							<start>0</start>
							<end>631.1680272108844</end>
							<effect>
								<name>Opacity</name>
								<effectid>opacity</effectid>
								<effecttype>motion</effecttype>
								<mediatype>video</mediatype>
								<effectcategory>motion</effectcategory>
								<parameter>
									<name>opacity</name>
									<parameterid>opacity</parameterid>
									<value>100</value>
									<valuemin>0</valuemin>
									<valuemax>100</valuemax>
								</parameter>
							</effect>
						</filter>
						<link>
							<linkclipref>ep6c1</linkclipref>
						</link>
						<link>
							<linkclipref>ep6c1-89a</linkclipref>
						</link>
					</clipitem>
					<clipitem id="ep6c1-90">
						<name>ep6c1cut</name>
						<file id="ep6c1">
							<duration>631.1680272108844</duration>
						</file>
						<rate>
							<timebase>60.0</timebase>
							<ntsc>FALSE</ntsc>
						</rate>
						<start>13456</start>
						<stop>13579</stop>
						<enabled>TRUE</enabled>
						<in>36282</in>
						<out>36406</out>
						<compositemode>normal</compositemode>
						<filter>
							<enabled>TRUE</enabled>
							<start>0</start>
							<end>631.1680272108844</end>
							<effect>
								<name>Basic Motion</name>
								<effectid>basic</effectid>
								<effecttype>motion</effecttype>
								<mediatype>video</mediatype>
								<effectcategory>motion</effectcategory>
								<parameter>
									<name>Scale</name>
									<parameterid>scale</parameterid>
									<value>100</value>
									<valuemin>0</valuemin>
									<valuemax>10000</valuemax>
								</parameter>
								<parameter>
									<name>Center</name>
									<parameterid>center</parameterid>
									<value>
										<horiz>0</horiz>
										<vert>0</vert>
									</value>
								</parameter>
								<parameter>
									<name>Rotation</name>
									<parameterid>rotation</parameterid>
									<value>0</value>
									<valuemin>-100000</valuemin>
									<valuemax>100000</valuemax>
								</parameter>
								<parameter>
									<name>Anchor Point</name>
									<parameterid>centerOffset</parameterid>
									<value>
										<horiz>0</horiz>
										<vert>0</vert>
									</value>
								</parameter>
							</effect>
						</filter>
						<filter>
							<enabled>TRUE</enabled>
							<start>0</start>
							<end>631.1680272108844</end>
							<effect>
								<name>Crop</name>
								<effectid>crop</effectid>
								<effecttype>motion</effecttype>
								<mediatype>video</mediatype>
								<effectcategory>motion</effectcategory>
								<parameter>
									<name>left</name>
									<parameterid>left</parameterid>
									<value>0</value>
									<valuemin>0</valuemin>
									<valuemax>100</valuemax>
								</parameter>
								<parameter>
									<name>right</name>
									<parameterid>right</parameterid>
									<value>0</value>
									<valuemin>0</valuemin>
									<valuemax>100</valuemax>
								</parameter>
								<parameter>
									<name>top</name>
									<parameterid>top</parameterid>
									<value>0</value>
									<valuemin>0</valuemin>
									<valuemax>100</valuemax>
								</parameter>
								<parameter>
									<name>bottom</name>
									<parameterid>bottom</parameterid>
									<value>0</value>
									<valuemin>0</valuemin>
									<valuemax>100</valuemax>
								</parameter>
							</effect>
						</filter>
						<filter>
							<enabled>TRUE</enabled>
							<start>0</start>
							<end>631.1680272108844</end>
							<effect>
								<name>Opacity</name>
								<effectid>opacity</effectid>
								<effecttype>motion</effecttype>
								<mediatype>video</mediatype>
								<effectcategory>motion</effectcategory>
								<parameter>
									<name>opacity</name>
									<parameterid>opacity</parameterid>
									<value>100</value>
									<valuemin>0</valuemin>
									<valuemax>100</valuemax>
								</parameter>
							</effect>
						</filter>
						<link>
							<linkclipref>ep6c1</linkclipref>
						</link>
						<link>
							<linkclipref>ep6c1-90a</linkclipref>
						</link>
					</clipitem>
					<clipitem id="ep6c1-91">
						<name>ep6c1cut</name>
						<file id="ep6c1">
							<duration>631.1680272108844</duration>
						</file>
						<rate>
							<timebase>60.0</timebase>
							<ntsc>FALSE</ntsc>
						</rate>
						<start>13579</start>
						<stop>13672</stop>
						<enabled>TRUE</enabled>
						<in>37448</in>
						<out>37541</out>
						<compositemode>normal</compositemode>
						<filter>
							<enabled>TRUE</enabled>
							<start>0</start>
							<end>631.1680272108844</end>
							<effect>
								<name>Basic Motion</name>
								<effectid>basic</effectid>
								<effecttype>motion</effecttype>
								<mediatype>video</mediatype>
								<effectcategory>motion</effectcategory>
								<parameter>
									<name>Scale</name>
									<parameterid>scale</parameterid>
									<value>100</value>
									<valuemin>0</valuemin>
									<valuemax>10000</valuemax>
								</parameter>
								<parameter>
									<name>Center</name>
									<parameterid>center</parameterid>
									<value>
										<horiz>0</horiz>
										<vert>0</vert>
									</value>
								</parameter>
								<parameter>
									<name>Rotation</name>
									<parameterid>rotation</parameterid>
									<value>0</value>
									<valuemin>-100000</valuemin>
									<valuemax>100000</valuemax>
								</parameter>
								<parameter>
									<name>Anchor Point</name>
									<parameterid>centerOffset</parameterid>
									<value>
										<horiz>0</horiz>
										<vert>0</vert>
									</value>
								</parameter>
							</effect>
						</filter>
						<filter>
							<enabled>TRUE</enabled>
							<start>0</start>
							<end>631.1680272108844</end>
							<effect>
								<name>Crop</name>
								<effectid>crop</effectid>
								<effecttype>motion</effecttype>
								<mediatype>video</mediatype>
								<effectcategory>motion</effectcategory>
								<parameter>
									<name>left</name>
									<parameterid>left</parameterid>
									<value>0</value>
									<valuemin>0</valuemin>
									<valuemax>100</valuemax>
								</parameter>
								<parameter>
									<name>right</name>
									<parameterid>right</parameterid>
									<value>0</value>
									<valuemin>0</valuemin>
									<valuemax>100</valuemax>
								</parameter>
								<parameter>
									<name>top</name>
									<parameterid>top</parameterid>
									<value>0</value>
									<valuemin>0</valuemin>
									<valuemax>100</valuemax>
								</parameter>
								<parameter>
									<name>bottom</name>
									<parameterid>bottom</parameterid>
									<value>0</value>
									<valuemin>0</valuemin>
									<valuemax>100</valuemax>
								</parameter>
							</effect>
						</filter>
						<filter>
							<enabled>TRUE</enabled>
							<start>0</start>
							<end>631.1680272108844</end>
							<effect>
								<name>Opacity</name>
								<effectid>opacity</effectid>
								<effecttype>motion</effecttype>
								<mediatype>video</mediatype>
								<effectcategory>motion</effectcategory>
								<parameter>
									<name>opacity</name>
									<parameterid>opacity</parameterid>
									<value>100</value>
									<valuemin>0</valuemin>
									<valuemax>100</valuemax>
								</parameter>
							</effect>
						</filter>
						<link>
							<linkclipref>ep6c1</linkclipref>
						</link>
						<link>
							<linkclipref>ep6c1-91a</linkclipref>
						</link>
					</clipitem>
				</track>
				<format>
					<samplecharacteristics>
						<width>1280</width>
						<height>720</height>
						<pixelaspectratio>square</pixelaspectratio>
						<rate>
							<timebase>60.0</timebase>
							<ntsc>FALSE</ntsc>
						</rate>
						<codec>
							<appspecificdata>
								<appname>Final Cut Pro</appname>
								<appmanufacturer>Apple Inc.</appmanufacturer>
								<data>
									<qtcodec />
								</data>
							</appspecificdata>
						</codec>
					</samplecharacteristics>
				</format>
			</video>
			<audio>
				<track>
					<clipitem id="ep6c1">
						<name>ep6c1</name>
						<duration>631.1680272108844</duration>
						<rate>
							<timebase>60.0</timebase>
							<ntsc>FALSE</ntsc>
						</rate>
						<start>0</start>
						<stop>395</stop>
						<enabled>TRUE</enabled>
						<in>252</in>
						<out>647</out>
						<file id="ep6c1" />
						<sourcetrack>
							<mediatype>audio</mediatype>
							<trackindex>1</trackindex>
						</sourcetrack>
						<link>
							<linkclipref>ep6c1</linkclipref>
							<mediatype>video</mediatype>
						</link>
					</clipitem>
					<enabled>TRUE</enabled>
					<locked>FALSE</locked>
					<clipitem id="ep6c1">
						<name>ep6c1</name>
						<duration>631.1680272108844</duration>
						<rate>
							<timebase>60.0</timebase>
							<ntsc>FALSE</ntsc>
						</rate>
						<start>395</start>
						<stop>867</stop>
						<enabled>TRUE</enabled>
						<in>660</in>
						<out>1133</out>
						<file id="ep6c1" />
						<sourcetrack>
							<mediatype>audio</mediatype>
							<trackindex>1</trackindex>
						</sourcetrack>
						<link>
							<linkclipref>ep6c1</linkclipref>
							<mediatype>video</mediatype>
						</link>
					</clipitem>
					<enabled>TRUE</enabled>
					<locked>FALSE</locked>
					<clipitem id="ep6c1">
						<name>ep6c1</name>
						<duration>631.1680272108844</duration>
						<rate>
							<timebase>60.0</timebase>
							<ntsc>FALSE</ntsc>
						</rate>
						<start>867</start>
						<stop>1064</stop>
						<enabled>TRUE</enabled>
						<in>1168</in>
						<out>1365</out>
						<file id="ep6c1" />
						<sourcetrack>
							<mediatype>audio</mediatype>
							<trackindex>1</trackindex>
						</sourcetrack>
						<link>
							<linkclipref>ep6c1</linkclipref>
							<mediatype>video</mediatype>
						</link>
					</clipitem>
					<enabled>TRUE</enabled>
					<locked>FALSE</locked>
					<clipitem id="ep6c1">
						<name>ep6c1</name>
						<duration>631.1680272108844</duration>
						<rate>
							<timebase>60.0</timebase>
							<ntsc>FALSE</ntsc>
						</rate>
						<start>1064</start>
						<stop>1151</stop>
						<enabled>TRUE</enabled>
						<in>1374</in>
						<out>1461</out>
						<file id="ep6c1" />
						<sourcetrack>
							<mediatype>audio</mediatype>
							<trackindex>1</trackindex>
						</sourcetrack>
						<link>
							<linkclipref>ep6c1</linkclipref>
							<mediatype>video</mediatype>
						</link>
					</clipitem>
					<enabled>TRUE</enabled>
					<locked>FALSE</locked>
					<clipitem id="ep6c1">
						<name>ep6c1</name>
						<duration>631.1680272108844</duration>
						<rate>
							<timebase>60.0</timebase>
							<ntsc>FALSE</ntsc>
						</rate>
						<start>1151</start>
						<stop>1398</stop>
						<enabled>TRUE</enabled>
						<in>1511</in>
						<out>1758</out>
						<file id="ep6c1" />
						<sourcetrack>
							<mediatype>audio</mediatype>
							<trackindex>1</trackindex>
						</sourcetrack>
						<link>
							<linkclipref>ep6c1</linkclipref>
							<mediatype>video</mediatype>
						</link>
					</clipitem>
					<enabled>TRUE</enabled>
					<locked>FALSE</locked>
					<clipitem id="ep6c1">
						<name>ep6c1</name>
						<duration>631.1680272108844</duration>
						<rate>
							<timebase>60.0</timebase>
							<ntsc>FALSE</ntsc>
						</rate>
						<start>1398</start>
						<stop>1817</stop>
						<enabled>TRUE</enabled>
						<in>1821</in>
						<out>2240</out>
						<file id="ep6c1" />
						<sourcetrack>
							<mediatype>audio</mediatype>
							<trackindex>1</trackindex>
						</sourcetrack>
						<link>
							<linkclipref>ep6c1</linkclipref>
							<mediatype>video</mediatype>
						</link>
					</clipitem>
					<enabled>TRUE</enabled>
					<locked>FALSE</locked>
					<clipitem id="ep6c1">
						<name>ep6c1</name>
						<duration>631.1680272108844</duration>
						<rate>
							<timebase>60.0</timebase>
							<ntsc>FALSE</ntsc>
						</rate>
						<start>1817</start>
						<stop>2069</stop>
						<enabled>TRUE</enabled>
						<in>2312</in>
						<out>2564</out>
						<file id="ep6c1" />
						<sourcetrack>
							<mediatype>audio</mediatype>
							<trackindex>1</trackindex>
						</sourcetrack>
						<link>
							<linkclipref>ep6c1</linkclipref>
							<mediatype>video</mediatype>
						</link>
					</clipitem>
					<enabled>TRUE</enabled>
					<locked>FALSE</locked>
					<clipitem id="ep6c1">
						<name>ep6c1</name>
						<duration>631.1680272108844</duration>
						<rate>
							<timebase>60.0</timebase>
							<ntsc>FALSE</ntsc>
						</rate>
						<start>2069</start>
						<stop>2419</stop>
						<enabled>TRUE</enabled>
						<in>2573</in>
						<out>2923</out>
						<file id="ep6c1" />
						<sourcetrack>
							<mediatype>audio</mediatype>
							<trackindex>1</trackindex>
						</sourcetrack>
						<link>
							<linkclipref>ep6c1</linkclipref>
							<mediatype>video</mediatype>
						</link>
					</clipitem>
					<enabled>TRUE</enabled>
					<locked>FALSE</locked>
					<clipitem id="ep6c1">
						<name>ep6c1</name>
						<duration>631.1680272108844</duration>
						<rate>
							<timebase>60.0</timebase>
							<ntsc>FALSE</ntsc>
						</rate>
						<start>2419</start>
						<stop>2570</stop>
						<enabled>TRUE</enabled>
						<in>3739</in>
						<out>3890</out>
						<file id="ep6c1" />
						<sourcetrack>
							<mediatype>audio</mediatype>
							<trackindex>1</trackindex>
						</sourcetrack>
						<link>
							<linkclipref>ep6c1</linkclipref>
							<mediatype>video</mediatype>
						</link>
					</clipitem>
					<enabled>TRUE</enabled>
					<locked>FALSE</locked>
					<clipitem id="ep6c1">
						<name>ep6c1</name>
						<duration>631.1680272108844</duration>
						<rate>
							<timebase>60.0</timebase>
							<ntsc>FALSE</ntsc>
						</rate>
						<start>2570</start>
						<stop>2645</stop>
						<enabled>TRUE</enabled>
						<in>4022</in>
						<out>4097</out>
						<file id="ep6c1" />
						<sourcetrack>
							<mediatype>audio</mediatype>
							<trackindex>1</trackindex>
						</sourcetrack>
						<link>
							<linkclipref>ep6c1</linkclipref>
							<mediatype>video</mediatype>
						</link>
					</clipitem>
					<enabled>TRUE</enabled>
					<locked>FALSE</locked>
					<clipitem id="ep6c1">
						<name>ep6c1</name>
						<duration>631.1680272108844</duration>
						<rate>
							<timebase>60.0</timebase>
							<ntsc>FALSE</ntsc>
						</rate>
						<start>2645</start>
						<stop>2879</stop>
						<enabled>TRUE</enabled>
						<in>4121</in>
						<out>4355</out>
						<file id="ep6c1" />
						<sourcetrack>
							<mediatype>audio</mediatype>
							<trackindex>1</trackindex>
						</sourcetrack>
						<link>
							<linkclipref>ep6c1</linkclipref>
							<mediatype>video</mediatype>
						</link>
					</clipitem>
					<enabled>TRUE</enabled>
					<locked>FALSE</locked>
					<clipitem id="ep6c1">
						<name>ep6c1</name>
						<duration>631.1680272108844</duration>
						<rate>
							<timebase>60.0</timebase>
							<ntsc>FALSE</ntsc>
						</rate>
						<start>2879</start>
						<stop>2978</stop>
						<enabled>TRUE</enabled>
						<in>4421</in>
						<out>4520</out>
						<file id="ep6c1" />
						<sourcetrack>
							<mediatype>audio</mediatype>
							<trackindex>1</trackindex>
						</sourcetrack>
						<link>
							<linkclipref>ep6c1</linkclipref>
							<mediatype>video</mediatype>
						</link>
					</clipitem>
					<enabled>TRUE</enabled>
					<locked>FALSE</locked>
					<clipitem id="ep6c1">
						<name>ep6c1</name>
						<duration>631.1680272108844</duration>
						<rate>
							<timebase>60.0</timebase>
							<ntsc>FALSE</ntsc>
						</rate>
						<start>2978</start>
						<stop>3084</stop>
						<enabled>TRUE</enabled>
						<in>4643</in>
						<out>4750</out>
						<file id="ep6c1" />
						<sourcetrack>
							<mediatype>audio</mediatype>
							<trackindex>1</trackindex>
						</sourcetrack>
						<link>
							<linkclipref>ep6c1</linkclipref>
							<mediatype>video</mediatype>
						</link>
					</clipitem>
					<enabled>TRUE</enabled>
					<locked>FALSE</locked>
					<clipitem id="ep6c1">
						<name>ep6c1</name>
						<duration>631.1680272108844</duration>
						<rate>
							<timebase>60.0</timebase>
							<ntsc>FALSE</ntsc>
						</rate>
						<start>3084</start>
						<stop>3264</stop>
						<enabled>TRUE</enabled>
						<in>4834</in>
						<out>5015</out>
						<file id="ep6c1" />
						<sourcetrack>
							<mediatype>audio</mediatype>
							<trackindex>1</trackindex>
						</sourcetrack>
						<link>
							<linkclipref>ep6c1</linkclipref>
							<mediatype>video</mediatype>
						</link>
					</clipitem>
					<enabled>TRUE</enabled>
					<locked>FALSE</locked>
					<clipitem id="ep6c1">
						<name>ep6c1</name>
						<duration>631.1680272108844</duration>
						<rate>
							<timebase>60.0</timebase>
							<ntsc>FALSE</ntsc>
						</rate>
						<start>3264</start>
						<stop>3360</stop>
						<enabled>TRUE</enabled>
						<in>5593</in>
						<out>5689</out>
						<file id="ep6c1" />
						<sourcetrack>
							<mediatype>audio</mediatype>
							<trackindex>1</trackindex>
						</sourcetrack>
						<link>
							<linkclipref>ep6c1</linkclipref>
							<mediatype>video</mediatype>
						</link>
					</clipitem>
					<enabled>TRUE</enabled>
					<locked>FALSE</locked>
					<clipitem id="ep6c1">
						<name>ep6c1</name>
						<duration>631.1680272108844</duration>
						<rate>
							<timebase>60.0</timebase>
							<ntsc>FALSE</ntsc>
						</rate>
						<start>3360</start>
						<stop>3515</stop>
						<enabled>TRUE</enabled>
						<in>6091</in>
						<out>6247</out>
						<file id="ep6c1" />
						<sourcetrack>
							<mediatype>audio</mediatype>
							<trackindex>1</trackindex>
						</sourcetrack>
						<link>
							<linkclipref>ep6c1</linkclipref>
							<mediatype>video</mediatype>
						</link>
					</clipitem>
					<enabled>TRUE</enabled>
					<locked>FALSE</locked>
					<clipitem id="ep6c1">
						<name>ep6c1</name>
						<duration>631.1680272108844</duration>
						<rate>
							<timebase>60.0</timebase>
							<ntsc>FALSE</ntsc>
						</rate>
						<start>3515</start>
						<stop>3594</stop>
						<enabled>TRUE</enabled>
						<in>6307</in>
						<out>6386</out>
						<file id="ep6c1" />
						<sourcetrack>
							<mediatype>audio</mediatype>
							<trackindex>1</trackindex>
						</sourcetrack>
						<link>
							<linkclipref>ep6c1</linkclipref>
							<mediatype>video</mediatype>
						</link>
					</clipitem>
					<enabled>TRUE</enabled>
					<locked>FALSE</locked>
					<clipitem id="ep6c1">
						<name>ep6c1</name>
						<duration>631.1680272108844</duration>
						<rate>
							<timebase>60.0</timebase>
							<ntsc>FALSE</ntsc>
						</rate>
						<start>3594</start>
						<stop>3669</stop>
						<enabled>TRUE</enabled>
						<in>6513</in>
						<out>6589</out>
						<file id="ep6c1" />
						<sourcetrack>
							<mediatype>audio</mediatype>
							<trackindex>1</trackindex>
						</sourcetrack>
						<link>
							<linkclipref>ep6c1</linkclipref>
							<mediatype>video</mediatype>
						</link>
					</clipitem>
					<enabled>TRUE</enabled>
					<locked>FALSE</locked>
					<clipitem id="ep6c1">
						<name>ep6c1</name>
						<duration>631.1680272108844</duration>
						<rate>
							<timebase>60.0</timebase>
							<ntsc>FALSE</ntsc>
						</rate>
						<start>3669</start>
						<stop>3770</stop>
						<enabled>TRUE</enabled>
						<in>7409</in>
						<out>7510</out>
						<file id="ep6c1" />
						<sourcetrack>
							<mediatype>audio</mediatype>
							<trackindex>1</trackindex>
						</sourcetrack>
						<link>
							<linkclipref>ep6c1</linkclipref>
							<mediatype>video</mediatype>
						</link>
					</clipitem>
					<enabled>TRUE</enabled>
					<locked>FALSE</locked>
					<clipitem id="ep6c1">
						<name>ep6c1</name>
						<duration>631.1680272108844</duration>
						<rate>
							<timebase>60.0</timebase>
							<ntsc>FALSE</ntsc>
						</rate>
						<start>3770</start>
						<stop>3959</stop>
						<enabled>TRUE</enabled>
						<in>10637</in>
						<out>10826</out>
						<file id="ep6c1" />
						<sourcetrack>
							<mediatype>audio</mediatype>
							<trackindex>1</trackindex>
						</sourcetrack>
						<link>
							<linkclipref>ep6c1</linkclipref>
							<mediatype>video</mediatype>
						</link>
					</clipitem>
					<enabled>TRUE</enabled>
					<locked>FALSE</locked>
					<clipitem id="ep6c1">
						<name>ep6c1</name>
						<duration>631.1680272108844</duration>
						<rate>
							<timebase>60.0</timebase>
							<ntsc>FALSE</ntsc>
						</rate>
						<start>3959</start>
						<stop>4021</stop>
						<enabled>TRUE</enabled>
						<in>10911</in>
						<out>10973</out>
						<file id="ep6c1" />
						<sourcetrack>
							<mediatype>audio</mediatype>
							<trackindex>1</trackindex>
						</sourcetrack>
						<link>
							<linkclipref>ep6c1</linkclipref>
							<mediatype>video</mediatype>
						</link>
					</clipitem>
					<enabled>TRUE</enabled>
					<locked>FALSE</locked>
					<clipitem id="ep6c1">
						<name>ep6c1</name>
						<duration>631.1680272108844</duration>
						<rate>
							<timebase>60.0</timebase>
							<ntsc>FALSE</ntsc>
						</rate>
						<start>4021</start>
						<stop>4135</stop>
						<enabled>TRUE</enabled>
						<in>12093</in>
						<out>12208</out>
						<file id="ep6c1" />
						<sourcetrack>
							<mediatype>audio</mediatype>
							<trackindex>1</trackindex>
						</sourcetrack>
						<link>
							<linkclipref>ep6c1</linkclipref>
							<mediatype>video</mediatype>
						</link>
					</clipitem>
					<enabled>TRUE</enabled>
					<locked>FALSE</locked>
					<clipitem id="ep6c1">
						<name>ep6c1</name>
						<duration>631.1680272108844</duration>
						<rate>
							<timebase>60.0</timebase>
							<ntsc>FALSE</ntsc>
						</rate>
						<start>4135</start>
						<stop>4242</stop>
						<enabled>TRUE</enabled>
						<in>12641</in>
						<out>12749</out>
						<file id="ep6c1" />
						<sourcetrack>
							<mediatype>audio</mediatype>
							<trackindex>1</trackindex>
						</sourcetrack>
						<link>
							<linkclipref>ep6c1</linkclipref>
							<mediatype>video</mediatype>
						</link>
					</clipitem>
					<enabled>TRUE</enabled>
					<locked>FALSE</locked>
					<clipitem id="ep6c1">
						<name>ep6c1</name>
						<duration>631.1680272108844</duration>
						<rate>
							<timebase>60.0</timebase>
							<ntsc>FALSE</ntsc>
						</rate>
						<start>4242</start>
						<stop>4345</stop>
						<enabled>TRUE</enabled>
						<in>12771</in>
						<out>12875</out>
						<file id="ep6c1" />
						<sourcetrack>
							<mediatype>audio</mediatype>
							<trackindex>1</trackindex>
						</sourcetrack>
						<link>
							<linkclipref>ep6c1</linkclipref>
							<mediatype>video</mediatype>
						</link>
					</clipitem>
					<enabled>TRUE</enabled>
					<locked>FALSE</locked>
					<clipitem id="ep6c1">
						<name>ep6c1</name>
						<duration>631.1680272108844</duration>
						<rate>
							<timebase>60.0</timebase>
							<ntsc>FALSE</ntsc>
						</rate>
						<start>4345</start>
						<stop>4533</stop>
						<enabled>TRUE</enabled>
						<in>13304</in>
						<out>13492</out>
						<file id="ep6c1" />
						<sourcetrack>
							<mediatype>audio</mediatype>
							<trackindex>1</trackindex>
						</sourcetrack>
						<link>
							<linkclipref>ep6c1</linkclipref>
							<mediatype>video</mediatype>
						</link>
					</clipitem>
					<enabled>TRUE</enabled>
					<locked>FALSE</locked>
					<clipitem id="ep6c1">
						<name>ep6c1</name>
						<duration>631.1680272108844</duration>
						<rate>
							<timebase>60.0</timebase>
							<ntsc>FALSE</ntsc>
						</rate>
						<start>4533</start>
						<stop>4616</stop>
						<enabled>TRUE</enabled>
						<in>13524</in>
						<out>13607</out>
						<file id="ep6c1" />
						<sourcetrack>
							<mediatype>audio</mediatype>
							<trackindex>1</trackindex>
						</sourcetrack>
						<link>
							<linkclipref>ep6c1</linkclipref>
							<mediatype>video</mediatype>
						</link>
					</clipitem>
					<enabled>TRUE</enabled>
					<locked>FALSE</locked>
					<clipitem id="ep6c1">
						<name>ep6c1</name>
						<duration>631.1680272108844</duration>
						<rate>
							<timebase>60.0</timebase>
							<ntsc>FALSE</ntsc>
						</rate>
						<start>4616</start>
						<stop>4718</stop>
						<enabled>TRUE</enabled>
						<in>13788</in>
						<out>13890</out>
						<file id="ep6c1" />
						<sourcetrack>
							<mediatype>audio</mediatype>
							<trackindex>1</trackindex>
						</sourcetrack>
						<link>
							<linkclipref>ep6c1</linkclipref>
							<mediatype>video</mediatype>
						</link>
					</clipitem>
					<enabled>TRUE</enabled>
					<locked>FALSE</locked>
					<clipitem id="ep6c1">
						<name>ep6c1</name>
						<duration>631.1680272108844</duration>
						<rate>
							<timebase>60.0</timebase>
							<ntsc>FALSE</ntsc>
						</rate>
						<start>4718</start>
						<stop>4793</stop>
						<enabled>TRUE</enabled>
						<in>13929</in>
						<out>14004</out>
						<file id="ep6c1" />
						<sourcetrack>
							<mediatype>audio</mediatype>
							<trackindex>1</trackindex>
						</sourcetrack>
						<link>
							<linkclipref>ep6c1</linkclipref>
							<mediatype>video</mediatype>
						</link>
					</clipitem>
					<enabled>TRUE</enabled>
					<locked>FALSE</locked>
					<clipitem id="ep6c1">
						<name>ep6c1</name>
						<duration>631.1680272108844</duration>
						<rate>
							<timebase>60.0</timebase>
							<ntsc>FALSE</ntsc>
						</rate>
						<start>4793</start>
						<stop>4910</stop>
						<enabled>TRUE</enabled>
						<in>14029</in>
						<out>14146</out>
						<file id="ep6c1" />
						<sourcetrack>
							<mediatype>audio</mediatype>
							<trackindex>1</trackindex>
						</sourcetrack>
						<link>
							<linkclipref>ep6c1</linkclipref>
							<mediatype>video</mediatype>
						</link>
					</clipitem>
					<enabled>TRUE</enabled>
					<locked>FALSE</locked>
					<clipitem id="ep6c1">
						<name>ep6c1</name>
						<duration>631.1680272108844</duration>
						<rate>
							<timebase>60.0</timebase>
							<ntsc>FALSE</ntsc>
						</rate>
						<start>4910</start>
						<stop>4984</stop>
						<enabled>TRUE</enabled>
						<in>14259</in>
						<out>14334</out>
						<file id="ep6c1" />
						<sourcetrack>
							<mediatype>audio</mediatype>
							<trackindex>1</trackindex>
						</sourcetrack>
						<link>
							<linkclipref>ep6c1</linkclipref>
							<mediatype>video</mediatype>
						</link>
					</clipitem>
					<enabled>TRUE</enabled>
					<locked>FALSE</locked>
					<clipitem id="ep6c1">
						<name>ep6c1</name>
						<duration>631.1680272108844</duration>
						<rate>
							<timebase>60.0</timebase>
							<ntsc>FALSE</ntsc>
						</rate>
						<start>4984</start>
						<stop>5098</stop>
						<enabled>TRUE</enabled>
						<in>14991</in>
						<out>15105</out>
						<file id="ep6c1" />
						<sourcetrack>
							<mediatype>audio</mediatype>
							<trackindex>1</trackindex>
						</sourcetrack>
						<link>
							<linkclipref>ep6c1</linkclipref>
							<mediatype>video</mediatype>
						</link>
					</clipitem>
					<enabled>TRUE</enabled>
					<locked>FALSE</locked>
					<clipitem id="ep6c1">
						<name>ep6c1</name>
						<duration>631.1680272108844</duration>
						<rate>
							<timebase>60.0</timebase>
							<ntsc>FALSE</ntsc>
						</rate>
						<start>5098</start>
						<stop>6146</stop>
						<enabled>TRUE</enabled>
						<in>15149</in>
						<out>16198</out>
						<file id="ep6c1" />
						<sourcetrack>
							<mediatype>audio</mediatype>
							<trackindex>1</trackindex>
						</sourcetrack>
						<link>
							<linkclipref>ep6c1</linkclipref>
							<mediatype>video</mediatype>
						</link>
					</clipitem>
					<enabled>TRUE</enabled>
					<locked>FALSE</locked>
					<clipitem id="ep6c1">
						<name>ep6c1</name>
						<duration>631.1680272108844</duration>
						<rate>
							<timebase>60.0</timebase>
							<ntsc>FALSE</ntsc>
						</rate>
						<start>6146</start>
						<stop>6267</stop>
						<enabled>TRUE</enabled>
						<in>16269</in>
						<out>16391</out>
						<file id="ep6c1" />
						<sourcetrack>
							<mediatype>audio</mediatype>
							<trackindex>1</trackindex>
						</sourcetrack>
						<link>
							<linkclipref>ep6c1</linkclipref>
							<mediatype>video</mediatype>
						</link>
					</clipitem>
					<enabled>TRUE</enabled>
					<locked>FALSE</locked>
					<clipitem id="ep6c1">
						<name>ep6c1</name>
						<duration>631.1680272108844</duration>
						<rate>
							<timebase>60.0</timebase>
							<ntsc>FALSE</ntsc>
						</rate>
						<start>6267</start>
						<stop>6344</stop>
						<enabled>TRUE</enabled>
						<in>16467</in>
						<out>16545</out>
						<file id="ep6c1" />
						<sourcetrack>
							<mediatype>audio</mediatype>
							<trackindex>1</trackindex>
						</sourcetrack>
						<link>
							<linkclipref>ep6c1</linkclipref>
							<mediatype>video</mediatype>
						</link>
					</clipitem>
					<enabled>TRUE</enabled>
					<locked>FALSE</locked>
					<clipitem id="ep6c1">
						<name>ep6c1</name>
						<duration>631.1680272108844</duration>
						<rate>
							<timebase>60.0</timebase>
							<ntsc>FALSE</ntsc>
						</rate>
						<start>6344</start>
						<stop>6492</stop>
						<enabled>TRUE</enabled>
						<in>16586</in>
						<out>16735</out>
						<file id="ep6c1" />
						<sourcetrack>
							<mediatype>audio</mediatype>
							<trackindex>1</trackindex>
						</sourcetrack>
						<link>
							<linkclipref>ep6c1</linkclipref>
							<mediatype>video</mediatype>
						</link>
					</clipitem>
					<enabled>TRUE</enabled>
					<locked>FALSE</locked>
					<clipitem id="ep6c1">
						<name>ep6c1</name>
						<duration>631.1680272108844</duration>
						<rate>
							<timebase>60.0</timebase>
							<ntsc>FALSE</ntsc>
						</rate>
						<start>6492</start>
						<stop>6672</stop>
						<enabled>TRUE</enabled>
						<in>16871</in>
						<out>17051</out>
						<file id="ep6c1" />
						<sourcetrack>
							<mediatype>audio</mediatype>
							<trackindex>1</trackindex>
						</sourcetrack>
						<link>
							<linkclipref>ep6c1</linkclipref>
							<mediatype>video</mediatype>
						</link>
					</clipitem>
					<enabled>TRUE</enabled>
					<locked>FALSE</locked>
					<clipitem id="ep6c1">
						<name>ep6c1</name>
						<duration>631.1680272108844</duration>
						<rate>
							<timebase>60.0</timebase>
							<ntsc>FALSE</ntsc>
						</rate>
						<start>6672</start>
						<stop>6869</stop>
						<enabled>TRUE</enabled>
						<in>17079</in>
						<out>17276</out>
						<file id="ep6c1" />
						<sourcetrack>
							<mediatype>audio</mediatype>
							<trackindex>1</trackindex>
						</sourcetrack>
						<link>
							<linkclipref>ep6c1</linkclipref>
							<mediatype>video</mediatype>
						</link>
					</clipitem>
					<enabled>TRUE</enabled>
					<locked>FALSE</locked>
					<clipitem id="ep6c1">
						<name>ep6c1</name>
						<duration>631.1680272108844</duration>
						<rate>
							<timebase>60.0</timebase>
							<ntsc>FALSE</ntsc>
						</rate>
						<start>6869</start>
						<stop>6957</stop>
						<enabled>TRUE</enabled>
						<in>17305</in>
						<out>17394</out>
						<file id="ep6c1" />
						<sourcetrack>
							<mediatype>audio</mediatype>
							<trackindex>1</trackindex>
						</sourcetrack>
						<link>
							<linkclipref>ep6c1</linkclipref>
							<mediatype>video</mediatype>
						</link>
					</clipitem>
					<enabled>TRUE</enabled>
					<locked>FALSE</locked>
					<clipitem id="ep6c1">
						<name>ep6c1</name>
						<duration>631.1680272108844</duration>
						<rate>
							<timebase>60.0</timebase>
							<ntsc>FALSE</ntsc>
						</rate>
						<start>6957</start>
						<stop>7028</stop>
						<enabled>TRUE</enabled>
						<in>17493</in>
						<out>17564</out>
						<file id="ep6c1" />
						<sourcetrack>
							<mediatype>audio</mediatype>
							<trackindex>1</trackindex>
						</sourcetrack>
						<link>
							<linkclipref>ep6c1</linkclipref>
							<mediatype>video</mediatype>
						</link>
					</clipitem>
					<enabled>TRUE</enabled>
					<locked>FALSE</locked>
					<clipitem id="ep6c1">
						<name>ep6c1</name>
						<duration>631.1680272108844</duration>
						<rate>
							<timebase>60.0</timebase>
							<ntsc>FALSE</ntsc>
						</rate>
						<start>7028</start>
						<stop>7098</stop>
						<enabled>TRUE</enabled>
						<in>17650</in>
						<out>17720</out>
						<file id="ep6c1" />
						<sourcetrack>
							<mediatype>audio</mediatype>
							<trackindex>1</trackindex>
						</sourcetrack>
						<link>
							<linkclipref>ep6c1</linkclipref>
							<mediatype>video</mediatype>
						</link>
					</clipitem>
					<enabled>TRUE</enabled>
					<locked>FALSE</locked>
					<clipitem id="ep6c1">
						<name>ep6c1</name>
						<duration>631.1680272108844</duration>
						<rate>
							<timebase>60.0</timebase>
							<ntsc>FALSE</ntsc>
						</rate>
						<start>7098</start>
						<stop>7203</stop>
						<enabled>TRUE</enabled>
						<in>17823</in>
						<out>17928</out>
						<file id="ep6c1" />
						<sourcetrack>
							<mediatype>audio</mediatype>
							<trackindex>1</trackindex>
						</sourcetrack>
						<link>
							<linkclipref>ep6c1</linkclipref>
							<mediatype>video</mediatype>
						</link>
					</clipitem>
					<enabled>TRUE</enabled>
					<locked>FALSE</locked>
					<clipitem id="ep6c1">
						<name>ep6c1</name>
						<duration>631.1680272108844</duration>
						<rate>
							<timebase>60.0</timebase>
							<ntsc>FALSE</ntsc>
						</rate>
						<start>7203</start>
						<stop>7330</stop>
						<enabled>TRUE</enabled>
						<in>17948</in>
						<out>18075</out>
						<file id="ep6c1" />
						<sourcetrack>
							<mediatype>audio</mediatype>
							<trackindex>1</trackindex>
						</sourcetrack>
						<link>
							<linkclipref>ep6c1</linkclipref>
							<mediatype>video</mediatype>
						</link>
					</clipitem>
					<enabled>TRUE</enabled>
					<locked>FALSE</locked>
					<clipitem id="ep6c1">
						<name>ep6c1</name>
						<duration>631.1680272108844</duration>
						<rate>
							<timebase>60.0</timebase>
							<ntsc>FALSE</ntsc>
						</rate>
						<start>7330</start>
						<stop>7397</stop>
						<enabled>TRUE</enabled>
						<in>18510</in>
						<out>18578</out>
						<file id="ep6c1" />
						<sourcetrack>
							<mediatype>audio</mediatype>
							<trackindex>1</trackindex>
						</sourcetrack>
						<link>
							<linkclipref>ep6c1</linkclipref>
							<mediatype>video</mediatype>
						</link>
					</clipitem>
					<enabled>TRUE</enabled>
					<locked>FALSE</locked>
					<clipitem id="ep6c1">
						<name>ep6c1</name>
						<duration>631.1680272108844</duration>
						<rate>
							<timebase>60.0</timebase>
							<ntsc>FALSE</ntsc>
						</rate>
						<start>7397</start>
						<stop>7465</stop>
						<enabled>TRUE</enabled>
						<in>18680</in>
						<out>18748</out>
						<file id="ep6c1" />
						<sourcetrack>
							<mediatype>audio</mediatype>
							<trackindex>1</trackindex>
						</sourcetrack>
						<link>
							<linkclipref>ep6c1</linkclipref>
							<mediatype>video</mediatype>
						</link>
					</clipitem>
					<enabled>TRUE</enabled>
					<locked>FALSE</locked>
					<clipitem id="ep6c1">
						<name>ep6c1</name>
						<duration>631.1680272108844</duration>
						<rate>
							<timebase>60.0</timebase>
							<ntsc>FALSE</ntsc>
						</rate>
						<start>7465</start>
						<stop>7527</stop>
						<enabled>TRUE</enabled>
						<in>18764</in>
						<out>18826</out>
						<file id="ep6c1" />
						<sourcetrack>
							<mediatype>audio</mediatype>
							<trackindex>1</trackindex>
						</sourcetrack>
						<link>
							<linkclipref>ep6c1</linkclipref>
							<mediatype>video</mediatype>
						</link>
					</clipitem>
					<enabled>TRUE</enabled>
					<locked>FALSE</locked>
					<clipitem id="ep6c1">
						<name>ep6c1</name>
						<duration>631.1680272108844</duration>
						<rate>
							<timebase>60.0</timebase>
							<ntsc>FALSE</ntsc>
						</rate>
						<start>7527</start>
						<stop>7647</stop>
						<enabled>TRUE</enabled>
						<in>18852</in>
						<out>18972</out>
						<file id="ep6c1" />
						<sourcetrack>
							<mediatype>audio</mediatype>
							<trackindex>1</trackindex>
						</sourcetrack>
						<link>
							<linkclipref>ep6c1</linkclipref>
							<mediatype>video</mediatype>
						</link>
					</clipitem>
					<enabled>TRUE</enabled>
					<locked>FALSE</locked>
					<clipitem id="ep6c1">
						<name>ep6c1</name>
						<duration>631.1680272108844</duration>
						<rate>
							<timebase>60.0</timebase>
							<ntsc>FALSE</ntsc>
						</rate>
						<start>7647</start>
						<stop>7753</stop>
						<enabled>TRUE</enabled>
						<in>19196</in>
						<out>19303</out>
						<file id="ep6c1" />
						<sourcetrack>
							<mediatype>audio</mediatype>
							<trackindex>1</trackindex>
						</sourcetrack>
						<link>
							<linkclipref>ep6c1</linkclipref>
							<mediatype>video</mediatype>
						</link>
					</clipitem>
					<enabled>TRUE</enabled>
					<locked>FALSE</locked>
					<clipitem id="ep6c1">
						<name>ep6c1</name>
						<duration>631.1680272108844</duration>
						<rate>
							<timebase>60.0</timebase>
							<ntsc>FALSE</ntsc>
						</rate>
						<start>7753</start>
						<stop>7835</stop>
						<enabled>TRUE</enabled>
						<in>19358</in>
						<out>19441</out>
						<file id="ep6c1" />
						<sourcetrack>
							<mediatype>audio</mediatype>
							<trackindex>1</trackindex>
						</sourcetrack>
						<link>
							<linkclipref>ep6c1</linkclipref>
							<mediatype>video</mediatype>
						</link>
					</clipitem>
					<enabled>TRUE</enabled>
					<locked>FALSE</locked>
					<clipitem id="ep6c1">
						<name>ep6c1</name>
						<duration>631.1680272108844</duration>
						<rate>
							<timebase>60.0</timebase>
							<ntsc>FALSE</ntsc>
						</rate>
						<start>7835</start>
						<stop>8074</stop>
						<enabled>TRUE</enabled>
						<in>19463</in>
						<out>19702</out>
						<file id="ep6c1" />
						<sourcetrack>
							<mediatype>audio</mediatype>
							<trackindex>1</trackindex>
						</sourcetrack>
						<link>
							<linkclipref>ep6c1</linkclipref>
							<mediatype>video</mediatype>
						</link>
					</clipitem>
					<enabled>TRUE</enabled>
					<locked>FALSE</locked>
					<clipitem id="ep6c1">
						<name>ep6c1</name>
						<duration>631.1680272108844</duration>
						<rate>
							<timebase>60.0</timebase>
							<ntsc>FALSE</ntsc>
						</rate>
						<start>8074</start>
						<stop>8149</stop>
						<enabled>TRUE</enabled>
						<in>19763</in>
						<out>19839</out>
						<file id="ep6c1" />
						<sourcetrack>
							<mediatype>audio</mediatype>
							<trackindex>1</trackindex>
						</sourcetrack>
						<link>
							<linkclipref>ep6c1</linkclipref>
							<mediatype>video</mediatype>
						</link>
					</clipitem>
					<enabled>TRUE</enabled>
					<locked>FALSE</locked>
					<clipitem id="ep6c1">
						<name>ep6c1</name>
						<duration>631.1680272108844</duration>
						<rate>
							<timebase>60.0</timebase>
							<ntsc>FALSE</ntsc>
						</rate>
						<start>8149</start>
						<stop>8256</stop>
						<enabled>TRUE</enabled>
						<in>19845</in>
						<out>19953</out>
						<file id="ep6c1" />
						<sourcetrack>
							<mediatype>audio</mediatype>
							<trackindex>1</trackindex>
						</sourcetrack>
						<link>
							<linkclipref>ep6c1</linkclipref>
							<mediatype>video</mediatype>
						</link>
					</clipitem>
					<enabled>TRUE</enabled>
					<locked>FALSE</locked>
					<clipitem id="ep6c1">
						<name>ep6c1</name>
						<duration>631.1680272108844</duration>
						<rate>
							<timebase>60.0</timebase>
							<ntsc>FALSE</ntsc>
						</rate>
						<start>8256</start>
						<stop>8375</stop>
						<enabled>TRUE</enabled>
						<in>20550</in>
						<out>20669</out>
						<file id="ep6c1" />
						<sourcetrack>
							<mediatype>audio</mediatype>
							<trackindex>1</trackindex>
						</sourcetrack>
						<link>
							<linkclipref>ep6c1</linkclipref>
							<mediatype>video</mediatype>
						</link>
					</clipitem>
					<enabled>TRUE</enabled>
					<locked>FALSE</locked>
					<clipitem id="ep6c1">
						<name>ep6c1</name>
						<duration>631.1680272108844</duration>
						<rate>
							<timebase>60.0</timebase>
							<ntsc>FALSE</ntsc>
						</rate>
						<start>8375</start>
						<stop>8485</stop>
						<enabled>TRUE</enabled>
						<in>20731</in>
						<out>20842</out>
						<file id="ep6c1" />
						<sourcetrack>
							<mediatype>audio</mediatype>
							<trackindex>1</trackindex>
						</sourcetrack>
						<link>
							<linkclipref>ep6c1</linkclipref>
							<mediatype>video</mediatype>
						</link>
					</clipitem>
					<enabled>TRUE</enabled>
					<locked>FALSE</locked>
					<clipitem id="ep6c1">
						<name>ep6c1</name>
						<duration>631.1680272108844</duration>
						<rate>
							<timebase>60.0</timebase>
							<ntsc>FALSE</ntsc>
						</rate>
						<start>8485</start>
						<stop>8688</stop>
						<enabled>TRUE</enabled>
						<in>21198</in>
						<out>21402</out>
						<file id="ep6c1" />
						<sourcetrack>
							<mediatype>audio</mediatype>
							<trackindex>1</trackindex>
						</sourcetrack>
						<link>
							<linkclipref>ep6c1</linkclipref>
							<mediatype>video</mediatype>
						</link>
					</clipitem>
					<enabled>TRUE</enabled>
					<locked>FALSE</locked>
					<clipitem id="ep6c1">
						<name>ep6c1</name>
						<duration>631.1680272108844</duration>
						<rate>
							<timebase>60.0</timebase>
							<ntsc>FALSE</ntsc>
						</rate>
						<start>8688</start>
						<stop>8787</stop>
						<enabled>TRUE</enabled>
						<in>21854</in>
						<out>21953</out>
						<file id="ep6c1" />
						<sourcetrack>
							<mediatype>audio</mediatype>
							<trackindex>1</trackindex>
						</sourcetrack>
						<link>
							<linkclipref>ep6c1</linkclipref>
							<mediatype>video</mediatype>
						</link>
					</clipitem>
					<enabled>TRUE</enabled>
					<locked>FALSE</locked>
					<clipitem id="ep6c1">
						<name>ep6c1</name>
						<duration>631.1680272108844</duration>
						<rate>
							<timebase>60.0</timebase>
							<ntsc>FALSE</ntsc>
						</rate>
						<start>8787</start>
						<stop>8993</stop>
						<enabled>TRUE</enabled>
						<in>22404</in>
						<out>22611</out>
						<file id="ep6c1" />
						<sourcetrack>
							<mediatype>audio</mediatype>
							<trackindex>1</trackindex>
						</sourcetrack>
						<link>
							<linkclipref>ep6c1</linkclipref>
							<mediatype>video</mediatype>
						</link>
					</clipitem>
					<enabled>TRUE</enabled>
					<locked>FALSE</locked>
					<clipitem id="ep6c1">
						<name>ep6c1</name>
						<duration>631.1680272108844</duration>
						<rate>
							<timebase>60.0</timebase>
							<ntsc>FALSE</ntsc>
						</rate>
						<start>8993</start>
						<stop>9525</stop>
						<enabled>TRUE</enabled>
						<in>24598</in>
						<out>25130</out>
						<file id="ep6c1" />
						<sourcetrack>
							<mediatype>audio</mediatype>
							<trackindex>1</trackindex>
						</sourcetrack>
						<link>
							<linkclipref>ep6c1</linkclipref>
							<mediatype>video</mediatype>
						</link>
					</clipitem>
					<enabled>TRUE</enabled>
					<locked>FALSE</locked>
					<clipitem id="ep6c1">
						<name>ep6c1</name>
						<duration>631.1680272108844</duration>
						<rate>
							<timebase>60.0</timebase>
							<ntsc>FALSE</ntsc>
						</rate>
						<start>9525</start>
						<stop>9603</stop>
						<enabled>TRUE</enabled>
						<in>25139</in>
						<out>25218</out>
						<file id="ep6c1" />
						<sourcetrack>
							<mediatype>audio</mediatype>
							<trackindex>1</trackindex>
						</sourcetrack>
						<link>
							<linkclipref>ep6c1</linkclipref>
							<mediatype>video</mediatype>
						</link>
					</clipitem>
					<enabled>TRUE</enabled>
					<locked>FALSE</locked>
					<clipitem id="ep6c1">
						<name>ep6c1</name>
						<duration>631.1680272108844</duration>
						<rate>
							<timebase>60.0</timebase>
							<ntsc>FALSE</ntsc>
						</rate>
						<start>9603</start>
						<stop>9729</stop>
						<enabled>TRUE</enabled>
						<in>25354</in>
						<out>25480</out>
						<file id="ep6c1" />
						<sourcetrack>
							<mediatype>audio</mediatype>
							<trackindex>1</trackindex>
						</sourcetrack>
						<link>
							<linkclipref>ep6c1</linkclipref>
							<mediatype>video</mediatype>
						</link>
					</clipitem>
					<enabled>TRUE</enabled>
					<locked>FALSE</locked>
					<clipitem id="ep6c1">
						<name>ep6c1</name>
						<duration>631.1680272108844</duration>
						<rate>
							<timebase>60.0</timebase>
							<ntsc>FALSE</ntsc>
						</rate>
						<start>9729</start>
						<stop>9934</stop>
						<enabled>TRUE</enabled>
						<in>25514</in>
						<out>25719</out>
						<file id="ep6c1" />
						<sourcetrack>
							<mediatype>audio</mediatype>
							<trackindex>1</trackindex>
						</sourcetrack>
						<link>
							<linkclipref>ep6c1</linkclipref>
							<mediatype>video</mediatype>
						</link>
					</clipitem>
					<enabled>TRUE</enabled>
					<locked>FALSE</locked>
					<clipitem id="ep6c1">
						<name>ep6c1</name>
						<duration>631.1680272108844</duration>
						<rate>
							<timebase>60.0</timebase>
							<ntsc>FALSE</ntsc>
						</rate>
						<start>9934</start>
						<stop>10108</stop>
						<enabled>TRUE</enabled>
						<in>25728</in>
						<out>25902</out>
						<file id="ep6c1" />
						<sourcetrack>
							<mediatype>audio</mediatype>
							<trackindex>1</trackindex>
						</sourcetrack>
						<link>
							<linkclipref>ep6c1</linkclipref>
							<mediatype>video</mediatype>
						</link>
					</clipitem>
					<enabled>TRUE</enabled>
					<locked>FALSE</locked>
					<clipitem id="ep6c1">
						<name>ep6c1</name>
						<duration>631.1680272108844</duration>
						<rate>
							<timebase>60.0</timebase>
							<ntsc>FALSE</ntsc>
						</rate>
						<start>10108</start>
						<stop>10226</stop>
						<enabled>TRUE</enabled>
						<in>26018</in>
						<out>26137</out>
						<file id="ep6c1" />
						<sourcetrack>
							<mediatype>audio</mediatype>
							<trackindex>1</trackindex>
						</sourcetrack>
						<link>
							<linkclipref>ep6c1</linkclipref>
							<mediatype>video</mediatype>
						</link>
					</clipitem>
					<enabled>TRUE</enabled>
					<locked>FALSE</locked>
					<clipitem id="ep6c1">
						<name>ep6c1</name>
						<duration>631.1680272108844</duration>
						<rate>
							<timebase>60.0</timebase>
							<ntsc>FALSE</ntsc>
						</rate>
						<start>10226</start>
						<stop>10323</stop>
						<enabled>TRUE</enabled>
						<in>26200</in>
						<out>26298</out>
						<file id="ep6c1" />
						<sourcetrack>
							<mediatype>audio</mediatype>
							<trackindex>1</trackindex>
						</sourcetrack>
						<link>
							<linkclipref>ep6c1</linkclipref>
							<mediatype>video</mediatype>
						</link>
					</clipitem>
					<enabled>TRUE</enabled>
					<locked>FALSE</locked>
					<clipitem id="ep6c1">
						<name>ep6c1</name>
						<duration>631.1680272108844</duration>
						<rate>
							<timebase>60.0</timebase>
							<ntsc>FALSE</ntsc>
						</rate>
						<start>10323</start>
						<stop>10385</stop>
						<enabled>TRUE</enabled>
						<in>26688</in>
						<out>26751</out>
						<file id="ep6c1" />
						<sourcetrack>
							<mediatype>audio</mediatype>
							<trackindex>1</trackindex>
						</sourcetrack>
						<link>
							<linkclipref>ep6c1</linkclipref>
							<mediatype>video</mediatype>
						</link>
					</clipitem>
					<enabled>TRUE</enabled>
					<locked>FALSE</locked>
					<clipitem id="ep6c1">
						<name>ep6c1</name>
						<duration>631.1680272108844</duration>
						<rate>
							<timebase>60.0</timebase>
							<ntsc>FALSE</ntsc>
						</rate>
						<start>10385</start>
						<stop>10501</stop>
						<enabled>TRUE</enabled>
						<in>27134</in>
						<out>27251</out>
						<file id="ep6c1" />
						<sourcetrack>
							<mediatype>audio</mediatype>
							<trackindex>1</trackindex>
						</sourcetrack>
						<link>
							<linkclipref>ep6c1</linkclipref>
							<mediatype>video</mediatype>
						</link>
					</clipitem>
					<enabled>TRUE</enabled>
					<locked>FALSE</locked>
					<clipitem id="ep6c1">
						<name>ep6c1</name>
						<duration>631.1680272108844</duration>
						<rate>
							<timebase>60.0</timebase>
							<ntsc>FALSE</ntsc>
						</rate>
						<start>10501</start>
						<stop>10582</stop>
						<enabled>TRUE</enabled>
						<in>27401</in>
						<out>27482</out>
						<file id="ep6c1" />
						<sourcetrack>
							<mediatype>audio</mediatype>
							<trackindex>1</trackindex>
						</sourcetrack>
						<link>
							<linkclipref>ep6c1</linkclipref>
							<mediatype>video</mediatype>
						</link>
					</clipitem>
					<enabled>TRUE</enabled>
					<locked>FALSE</locked>
					<clipitem id="ep6c1">
						<name>ep6c1</name>
						<duration>631.1680272108844</duration>
						<rate>
							<timebase>60.0</timebase>
							<ntsc>FALSE</ntsc>
						</rate>
						<start>10582</start>
						<stop>10676</stop>
						<enabled>TRUE</enabled>
						<in>27577</in>
						<out>27672</out>
						<file id="ep6c1" />
						<sourcetrack>
							<mediatype>audio</mediatype>
							<trackindex>1</trackindex>
						</sourcetrack>
						<link>
							<linkclipref>ep6c1</linkclipref>
							<mediatype>video</mediatype>
						</link>
					</clipitem>
					<enabled>TRUE</enabled>
					<locked>FALSE</locked>
					<clipitem id="ep6c1">
						<name>ep6c1</name>
						<duration>631.1680272108844</duration>
						<rate>
							<timebase>60.0</timebase>
							<ntsc>FALSE</ntsc>
						</rate>
						<start>10676</start>
						<stop>10775</stop>
						<enabled>TRUE</enabled>
						<in>27856</in>
						<out>27955</out>
						<file id="ep6c1" />
						<sourcetrack>
							<mediatype>audio</mediatype>
							<trackindex>1</trackindex>
						</sourcetrack>
						<link>
							<linkclipref>ep6c1</linkclipref>
							<mediatype>video</mediatype>
						</link>
					</clipitem>
					<enabled>TRUE</enabled>
					<locked>FALSE</locked>
					<clipitem id="ep6c1">
						<name>ep6c1</name>
						<duration>631.1680272108844</duration>
						<rate>
							<timebase>60.0</timebase>
							<ntsc>FALSE</ntsc>
						</rate>
						<start>10775</start>
						<stop>10902</stop>
						<enabled>TRUE</enabled>
						<in>28227</in>
						<out>28355</out>
						<file id="ep6c1" />
						<sourcetrack>
							<mediatype>audio</mediatype>
							<trackindex>1</trackindex>
						</sourcetrack>
						<link>
							<linkclipref>ep6c1</linkclipref>
							<mediatype>video</mediatype>
						</link>
					</clipitem>
					<enabled>TRUE</enabled>
					<locked>FALSE</locked>
					<clipitem id="ep6c1">
						<name>ep6c1</name>
						<duration>631.1680272108844</duration>
						<rate>
							<timebase>60.0</timebase>
							<ntsc>FALSE</ntsc>
						</rate>
						<start>10902</start>
						<stop>10988</stop>
						<enabled>TRUE</enabled>
						<in>28413</in>
						<out>28500</out>
						<file id="ep6c1" />
						<sourcetrack>
							<mediatype>audio</mediatype>
							<trackindex>1</trackindex>
						</sourcetrack>
						<link>
							<linkclipref>ep6c1</linkclipref>
							<mediatype>video</mediatype>
						</link>
					</clipitem>
					<enabled>TRUE</enabled>
					<locked>FALSE</locked>
					<clipitem id="ep6c1">
						<name>ep6c1</name>
						<duration>631.1680272108844</duration>
						<rate>
							<timebase>60.0</timebase>
							<ntsc>FALSE</ntsc>
						</rate>
						<start>10988</start>
						<stop>11072</stop>
						<enabled>TRUE</enabled>
						<in>28767</in>
						<out>28851</out>
						<file id="ep6c1" />
						<sourcetrack>
							<mediatype>audio</mediatype>
							<trackindex>1</trackindex>
						</sourcetrack>
						<link>
							<linkclipref>ep6c1</linkclipref>
							<mediatype>video</mediatype>
						</link>
					</clipitem>
					<enabled>TRUE</enabled>
					<locked>FALSE</locked>
					<clipitem id="ep6c1">
						<name>ep6c1</name>
						<duration>631.1680272108844</duration>
						<rate>
							<timebase>60.0</timebase>
							<ntsc>FALSE</ntsc>
						</rate>
						<start>11072</start>
						<stop>11170</stop>
						<enabled>TRUE</enabled>
						<in>28868</in>
						<out>28967</out>
						<file id="ep6c1" />
						<sourcetrack>
							<mediatype>audio</mediatype>
							<trackindex>1</trackindex>
						</sourcetrack>
						<link>
							<linkclipref>ep6c1</linkclipref>
							<mediatype>video</mediatype>
						</link>
					</clipitem>
					<enabled>TRUE</enabled>
					<locked>FALSE</locked>
					<clipitem id="ep6c1">
						<name>ep6c1</name>
						<duration>631.1680272108844</duration>
						<rate>
							<timebase>60.0</timebase>
							<ntsc>FALSE</ntsc>
						</rate>
						<start>11170</start>
						<stop>11279</stop>
						<enabled>TRUE</enabled>
						<in>28976</in>
						<out>29085</out>
						<file id="ep6c1" />
						<sourcetrack>
							<mediatype>audio</mediatype>
							<trackindex>1</trackindex>
						</sourcetrack>
						<link>
							<linkclipref>ep6c1</linkclipref>
							<mediatype>video</mediatype>
						</link>
					</clipitem>
					<enabled>TRUE</enabled>
					<locked>FALSE</locked>
					<clipitem id="ep6c1">
						<name>ep6c1</name>
						<duration>631.1680272108844</duration>
						<rate>
							<timebase>60.0</timebase>
							<ntsc>FALSE</ntsc>
						</rate>
						<start>11279</start>
						<stop>11352</stop>
						<enabled>TRUE</enabled>
						<in>29128</in>
						<out>29202</out>
						<file id="ep6c1" />
						<sourcetrack>
							<mediatype>audio</mediatype>
							<trackindex>1</trackindex>
						</sourcetrack>
						<link>
							<linkclipref>ep6c1</linkclipref>
							<mediatype>video</mediatype>
						</link>
					</clipitem>
					<enabled>TRUE</enabled>
					<locked>FALSE</locked>
					<clipitem id="ep6c1">
						<name>ep6c1</name>
						<duration>631.1680272108844</duration>
						<rate>
							<timebase>60.0</timebase>
							<ntsc>FALSE</ntsc>
						</rate>
						<start>11352</start>
						<stop>11514</stop>
						<enabled>TRUE</enabled>
						<in>29225</in>
						<out>29387</out>
						<file id="ep6c1" />
						<sourcetrack>
							<mediatype>audio</mediatype>
							<trackindex>1</trackindex>
						</sourcetrack>
						<link>
							<linkclipref>ep6c1</linkclipref>
							<mediatype>video</mediatype>
						</link>
					</clipitem>
					<enabled>TRUE</enabled>
					<locked>FALSE</locked>
					<clipitem id="ep6c1">
						<name>ep6c1</name>
						<duration>631.1680272108844</duration>
						<rate>
							<timebase>60.0</timebase>
							<ntsc>FALSE</ntsc>
						</rate>
						<start>11514</start>
						<stop>11642</stop>
						<enabled>TRUE</enabled>
						<in>29470</in>
						<out>29598</out>
						<file id="ep6c1" />
						<sourcetrack>
							<mediatype>audio</mediatype>
							<trackindex>1</trackindex>
						</sourcetrack>
						<link>
							<linkclipref>ep6c1</linkclipref>
							<mediatype>video</mediatype>
						</link>
					</clipitem>
					<enabled>TRUE</enabled>
					<locked>FALSE</locked>
					<clipitem id="ep6c1">
						<name>ep6c1</name>
						<duration>631.1680272108844</duration>
						<rate>
							<timebase>60.0</timebase>
							<ntsc>FALSE</ntsc>
						</rate>
						<start>11642</start>
						<stop>11819</stop>
						<enabled>TRUE</enabled>
						<in>30181</in>
						<out>30359</out>
						<file id="ep6c1" />
						<sourcetrack>
							<mediatype>audio</mediatype>
							<trackindex>1</trackindex>
						</sourcetrack>
						<link>
							<linkclipref>ep6c1</linkclipref>
							<mediatype>video</mediatype>
						</link>
					</clipitem>
					<enabled>TRUE</enabled>
					<locked>FALSE</locked>
					<clipitem id="ep6c1">
						<name>ep6c1</name>
						<duration>631.1680272108844</duration>
						<rate>
							<timebase>60.0</timebase>
							<ntsc>FALSE</ntsc>
						</rate>
						<start>11819</start>
						<stop>11942</stop>
						<enabled>TRUE</enabled>
						<in>30414</in>
						<out>30538</out>
						<file id="ep6c1" />
						<sourcetrack>
							<mediatype>audio</mediatype>
							<trackindex>1</trackindex>
						</sourcetrack>
						<link>
							<linkclipref>ep6c1</linkclipref>
							<mediatype>video</mediatype>
						</link>
					</clipitem>
					<enabled>TRUE</enabled>
					<locked>FALSE</locked>
					<clipitem id="ep6c1">
						<name>ep6c1</name>
						<duration>631.1680272108844</duration>
						<rate>
							<timebase>60.0</timebase>
							<ntsc>FALSE</ntsc>
						</rate>
						<start>11942</start>
						<stop>12051</stop>
						<enabled>TRUE</enabled>
						<in>30550</in>
						<out>30660</out>
						<file id="ep6c1" />
						<sourcetrack>
							<mediatype>audio</mediatype>
							<trackindex>1</trackindex>
						</sourcetrack>
						<link>
							<linkclipref>ep6c1</linkclipref>
							<mediatype>video</mediatype>
						</link>
					</clipitem>
					<enabled>TRUE</enabled>
					<locked>FALSE</locked>
					<clipitem id="ep6c1">
						<name>ep6c1</name>
						<duration>631.1680272108844</duration>
						<rate>
							<timebase>60.0</timebase>
							<ntsc>FALSE</ntsc>
						</rate>
						<start>12051</start>
						<stop>12249</stop>
						<enabled>TRUE</enabled>
						<in>30680</in>
						<out>30878</out>
						<file id="ep6c1" />
						<sourcetrack>
							<mediatype>audio</mediatype>
							<trackindex>1</trackindex>
						</sourcetrack>
						<link>
							<linkclipref>ep6c1</linkclipref>
							<mediatype>video</mediatype>
						</link>
					</clipitem>
					<enabled>TRUE</enabled>
					<locked>FALSE</locked>
					<clipitem id="ep6c1">
						<name>ep6c1</name>
						<duration>631.1680272108844</duration>
						<rate>
							<timebase>60.0</timebase>
							<ntsc>FALSE</ntsc>
						</rate>
						<start>12249</start>
						<stop>12352</stop>
						<enabled>TRUE</enabled>
						<in>30896</in>
						<out>31000</out>
						<file id="ep6c1" />
						<sourcetrack>
							<mediatype>audio</mediatype>
							<trackindex>1</trackindex>
						</sourcetrack>
						<link>
							<linkclipref>ep6c1</linkclipref>
							<mediatype>video</mediatype>
						</link>
					</clipitem>
					<enabled>TRUE</enabled>
					<locked>FALSE</locked>
					<clipitem id="ep6c1">
						<name>ep6c1</name>
						<duration>631.1680272108844</duration>
						<rate>
							<timebase>60.0</timebase>
							<ntsc>FALSE</ntsc>
						</rate>
						<start>12352</start>
						<stop>12417</stop>
						<enabled>TRUE</enabled>
						<in>31263</in>
						<out>31329</out>
						<file id="ep6c1" />
						<sourcetrack>
							<mediatype>audio</mediatype>
							<trackindex>1</trackindex>
						</sourcetrack>
						<link>
							<linkclipref>ep6c1</linkclipref>
							<mediatype>video</mediatype>
						</link>
					</clipitem>
					<enabled>TRUE</enabled>
					<locked>FALSE</locked>
					<clipitem id="ep6c1">
						<name>ep6c1</name>
						<duration>631.1680272108844</duration>
						<rate>
							<timebase>60.0</timebase>
							<ntsc>FALSE</ntsc>
						</rate>
						<start>12417</start>
						<stop>12608</stop>
						<enabled>TRUE</enabled>
						<in>32052</in>
						<out>32244</out>
						<file id="ep6c1" />
						<sourcetrack>
							<mediatype>audio</mediatype>
							<trackindex>1</trackindex>
						</sourcetrack>
						<link>
							<linkclipref>ep6c1</linkclipref>
							<mediatype>video</mediatype>
						</link>
					</clipitem>
					<enabled>TRUE</enabled>
					<locked>FALSE</locked>
					<clipitem id="ep6c1">
						<name>ep6c1</name>
						<duration>631.1680272108844</duration>
						<rate>
							<timebase>60.0</timebase>
							<ntsc>FALSE</ntsc>
						</rate>
						<start>12608</start>
						<stop>12680</stop>
						<enabled>TRUE</enabled>
						<in>32388</in>
						<out>32460</out>
						<file id="ep6c1" />
						<sourcetrack>
							<mediatype>audio</mediatype>
							<trackindex>1</trackindex>
						</sourcetrack>
						<link>
							<linkclipref>ep6c1</linkclipref>
							<mediatype>video</mediatype>
						</link>
					</clipitem>
					<enabled>TRUE</enabled>
					<locked>FALSE</locked>
					<clipitem id="ep6c1">
						<name>ep6c1</name>
						<duration>631.1680272108844</duration>
						<rate>
							<timebase>60.0</timebase>
							<ntsc>FALSE</ntsc>
						</rate>
						<start>12680</start>
						<stop>12825</stop>
						<enabled>TRUE</enabled>
						<in>32466</in>
						<out>32612</out>
						<file id="ep6c1" />
						<sourcetrack>
							<mediatype>audio</mediatype>
							<trackindex>1</trackindex>
						</sourcetrack>
						<link>
							<linkclipref>ep6c1</linkclipref>
							<mediatype>video</mediatype>
						</link>
					</clipitem>
					<enabled>TRUE</enabled>
					<locked>FALSE</locked>
					<clipitem id="ep6c1">
						<name>ep6c1</name>
						<duration>631.1680272108844</duration>
						<rate>
							<timebase>60.0</timebase>
							<ntsc>FALSE</ntsc>
						</rate>
						<start>12825</start>
						<stop>12937</stop>
						<enabled>TRUE</enabled>
						<in>32671</in>
						<out>32783</out>
						<file id="ep6c1" />
						<sourcetrack>
							<mediatype>audio</mediatype>
							<trackindex>1</trackindex>
						</sourcetrack>
						<link>
							<linkclipref>ep6c1</linkclipref>
							<mediatype>video</mediatype>
						</link>
					</clipitem>
					<enabled>TRUE</enabled>
					<locked>FALSE</locked>
					<clipitem id="ep6c1">
						<name>ep6c1</name>
						<duration>631.1680272108844</duration>
						<rate>
							<timebase>60.0</timebase>
							<ntsc>FALSE</ntsc>
						</rate>
						<start>12937</start>
						<stop>13043</stop>
						<enabled>TRUE</enabled>
						<in>32807</in>
						<out>32913</out>
						<file id="ep6c1" />
						<sourcetrack>
							<mediatype>audio</mediatype>
							<trackindex>1</trackindex>
						</sourcetrack>
						<link>
							<linkclipref>ep6c1</linkclipref>
							<mediatype>video</mediatype>
						</link>
					</clipitem>
					<enabled>TRUE</enabled>
					<locked>FALSE</locked>
					<clipitem id="ep6c1">
						<name>ep6c1</name>
						<duration>631.1680272108844</duration>
						<rate>
							<timebase>60.0</timebase>
							<ntsc>FALSE</ntsc>
						</rate>
						<start>13043</start>
						<stop>13197</stop>
						<enabled>TRUE</enabled>
						<in>32920</in>
						<out>33075</out>
						<file id="ep6c1" />
						<sourcetrack>
							<mediatype>audio</mediatype>
							<trackindex>1</trackindex>
						</sourcetrack>
						<link>
							<linkclipref>ep6c1</linkclipref>
							<mediatype>video</mediatype>
						</link>
					</clipitem>
					<enabled>TRUE</enabled>
					<locked>FALSE</locked>
					<clipitem id="ep6c1">
						<name>ep6c1</name>
						<duration>631.1680272108844</duration>
						<rate>
							<timebase>60.0</timebase>
							<ntsc>FALSE</ntsc>
						</rate>
						<start>13197</start>
						<stop>13286</stop>
						<enabled>TRUE</enabled>
						<in>33947</in>
						<out>34036</out>
						<file id="ep6c1" />
						<sourcetrack>
							<mediatype>audio</mediatype>
							<trackindex>1</trackindex>
						</sourcetrack>
						<link>
							<linkclipref>ep6c1</linkclipref>
							<mediatype>video</mediatype>
						</link>
					</clipitem>
					<enabled>TRUE</enabled>
					<locked>FALSE</locked>
					<clipitem id="ep6c1">
						<name>ep6c1</name>
						<duration>631.1680272108844</duration>
						<rate>
							<timebase>60.0</timebase>
							<ntsc>FALSE</ntsc>
						</rate>
						<start>13286</start>
						<stop>13456</stop>
						<enabled>TRUE</enabled>
						<in>36103</in>
						<out>36273</out>
						<file id="ep6c1" />
						<sourcetrack>
							<mediatype>audio</mediatype>
							<trackindex>1</trackindex>
						</sourcetrack>
						<link>
							<linkclipref>ep6c1</linkclipref>
							<mediatype>video</mediatype>
						</link>
					</clipitem>
					<enabled>TRUE</enabled>
					<locked>FALSE</locked>
					<clipitem id="ep6c1">
						<name>ep6c1</name>
						<duration>631.1680272108844</duration>
						<rate>
							<timebase>60.0</timebase>
							<ntsc>FALSE</ntsc>
						</rate>
						<start>13456</start>
						<stop>13579</stop>
						<enabled>TRUE</enabled>
						<in>36282</in>
						<out>36406</out>
						<file id="ep6c1" />
						<sourcetrack>
							<mediatype>audio</mediatype>
							<trackindex>1</trackindex>
						</sourcetrack>
						<link>
							<linkclipref>ep6c1</linkclipref>
							<mediatype>video</mediatype>
						</link>
					</clipitem>
					<enabled>TRUE</enabled>
					<locked>FALSE</locked>
					<clipitem id="ep6c1">
						<name>ep6c1</name>
						<duration>631.1680272108844</duration>
						<rate>
							<timebase>60.0</timebase>
							<ntsc>FALSE</ntsc>
						</rate>
						<start>13579</start>
						<stop>13672</stop>
						<enabled>TRUE</enabled>
						<in>37448</in>
						<out>37541</out>
						<file id="ep6c1" />
						<sourcetrack>
							<mediatype>audio</mediatype>
							<trackindex>1</trackindex>
						</sourcetrack>
						<link>
							<linkclipref>ep6c1</linkclipref>
							<mediatype>video</mediatype>
						</link>
					</clipitem>
					<enabled>TRUE</enabled>
					<locked>FALSE</locked>
				</track>
			</audio>
		</media>
	</sequence>
</xmeml>